G04*
G04 #@! TF.GenerationSoftware,Altium Limited,Altium Designer,24.6.1 (21)*
G04*
G04 Layer_Color=128*
%FSLAX25Y25*%
%MOIN*%
G70*
G04*
G04 #@! TF.SameCoordinates,F1231132-C47A-4D83-8C5A-8FF387E60FE7*
G04*
G04*
G04 #@! TF.FilePolarity,Positive*
G04*
G01*
G75*
%ADD15C,0.00394*%
%ADD90C,0.00200*%
D15*
X-255109Y173189D02*
G03*
X-255638Y172660I0J-528D01*
G01*
X-45101Y283159D02*
G03*
X-30108Y282443I17760J214594D01*
G01*
D02*
G03*
X-24479Y282445I2753J213889D01*
G01*
Y282445D02*
G03*
X-20366Y282540I-2848J211666D01*
G01*
X84587Y305479D02*
G03*
X84487Y305530I-2368J-4578D01*
G01*
X84686Y305427D02*
G03*
X84587Y305479I-2439J-4472D01*
G01*
X84807Y305358D02*
G03*
X84686Y305427I-2534J-4356D01*
G01*
X85202Y305103D02*
G03*
X84807Y305358I-2893J-4039D01*
G01*
X85400Y304953D02*
G03*
X85202Y305103I-3101J-3902D01*
G01*
X85508Y304866D02*
G03*
X85400Y304953I-3243J-3859D01*
G01*
X85592Y304793D02*
G03*
X85507Y304866I-3362J-3828D01*
G01*
X85674Y304719D02*
G03*
X85592Y304793I-3485J-3800D01*
G01*
X16123Y45327D02*
G03*
X16122Y44351I110923J-534D01*
G01*
X18880Y21184D02*
G03*
X19304Y19531I86389J21256D01*
G01*
X19304Y19531D02*
G03*
X19756Y17899I84987J22649D01*
G01*
X19756D02*
G03*
X20235Y16289I83629J24020D01*
G01*
D02*
G03*
X20828Y14439I82248J25352D01*
G01*
D02*
G03*
X21457Y12619I80772J26908D01*
G01*
D02*
G03*
X22220Y10575I79295J28424D01*
G01*
D02*
G03*
X23132Y8323I77687J30139D01*
G01*
X23132Y8323D02*
G03*
X24210Y5878I75967J32050D01*
G01*
X24210D02*
G03*
X25711Y2792I74091J34127D01*
G01*
X25711D02*
G03*
X40178Y-17135I71084J36393D01*
G01*
X40178D02*
G03*
X44797Y-21429I57234J56927D01*
G01*
X44797Y-21429D02*
G03*
X49097Y-24879I53161J61854D01*
G01*
D02*
G03*
X73149Y-37350I49867J66744D01*
G01*
Y-37350D02*
G03*
X76822Y-38454I25532J78344D01*
G01*
D02*
G03*
X79641Y-39175I21628J78611D01*
G01*
X79641Y-39175D02*
G03*
X82030Y-39704I18607J78481D01*
G01*
Y-39704D02*
G03*
X83985Y-40079I16046J78173D01*
G01*
X83985D02*
G03*
X85721Y-40371I13947J77749D01*
G01*
X85721D02*
G03*
X87455Y-40622I12082J77212D01*
G01*
X87455D02*
G03*
X88969Y-40810I10235J76625D01*
G01*
Y-40810D02*
G03*
X90481Y-40966I8626J75975D01*
G01*
X94347Y-41227D02*
G03*
X95628Y-41269I3026J73085D01*
G01*
X128412Y-32917D02*
G03*
X129206Y-32394I-24390J37933D01*
G01*
Y-32394D02*
G03*
X129988Y-31855I-24881J36960D01*
G01*
X129989D02*
G03*
X130758Y-31301I-25368J36002D01*
G01*
X130758Y-31301D02*
G03*
X131514Y-30730I-25851J35059D01*
G01*
Y-30730D02*
G03*
X132257Y-30144I-26332J34132D01*
G01*
D02*
G03*
X133131Y-29419I-26788J33190D01*
G01*
X133131Y-29419D02*
G03*
X134125Y-28545I-27346J32095D01*
G01*
D02*
G03*
X135227Y-27507I-28012J30859D01*
G01*
X135227D02*
G03*
X136423Y-26291I-28797J29497D01*
G01*
Y-26291D02*
G03*
X140265Y-21549I-29550J27874D01*
G01*
X140265Y-21549D02*
G03*
X141834Y-19101I-33491J23193D01*
G01*
Y-19101D02*
G03*
X142701Y-17563I-35453J20979D01*
G01*
X142701D02*
G03*
X143334Y-16331I-36727J19660D01*
G01*
D02*
G03*
X143848Y-15250I-37785J18637D01*
G01*
Y-15250D02*
G03*
X144256Y-14331I-38726J17752D01*
G01*
D02*
G03*
X144645Y-13397I-39578J17025D01*
G01*
X144645D02*
G03*
X144943Y-12638I-40415J16271D01*
G01*
D02*
G03*
X145228Y-11868I-41149J15678D01*
G01*
X145228Y-11868D02*
G03*
X145500Y-11089I-41909J15080D01*
G01*
Y-11089D02*
G03*
X145760Y-10299I-42695J14474D01*
G01*
D02*
G03*
X146007Y-9499I-43508J13860D01*
G01*
X142339Y48237D02*
G03*
X142339Y47839I122830J-80D01*
G01*
X196084Y247448D02*
G03*
X185735Y220481I1235180J-489509D01*
G01*
X220932Y306135D02*
G03*
X222032Y308936I-156376J63057D01*
G01*
X222032D02*
G03*
X223075Y311737I-155777J59605D01*
G01*
X223075Y311737D02*
G03*
X224061Y314537I-155194J56215D01*
G01*
D02*
G03*
X225072Y317591I-154558J52861D01*
G01*
X225072D02*
G03*
X226016Y320643I-153959J49292D01*
G01*
X226016D02*
G03*
X226963Y323946I-153316J45766D01*
G01*
D02*
G03*
X227897Y327499I-152651J42020D01*
G01*
D02*
G03*
X228799Y331300I-151966J38062D01*
G01*
D02*
G03*
X229649Y335346I-151265J33902D01*
G01*
D02*
G03*
X230428Y339634I-150549J29549D01*
G01*
Y339634D02*
G03*
X231148Y344411I-149780J25003D01*
G01*
D02*
G03*
X231785Y349919I-148933J20016D01*
G01*
X231785Y349919D02*
G03*
X232257Y356143I-148016J14358D01*
G01*
Y356143D02*
G03*
X232476Y363555I-146978J8053D01*
G01*
D02*
G03*
X232175Y373566I-145696J637D01*
G01*
X232175D02*
G03*
X224420Y411781I-143414J-9207D01*
G01*
X224420D02*
G03*
X208300Y444133I-136090J-47621D01*
G01*
D02*
G03*
X181544Y474239I-121302J-80863D01*
G01*
D02*
G03*
X153033Y493281I-95363J-111917D01*
G01*
X153033D02*
G03*
X138017Y499930I-67568J-132322D01*
G01*
X137105Y500271D02*
G03*
X131645Y502191I-57253J-154077D01*
G01*
X131645Y502191D02*
G03*
X107981Y508116I-51023J-153583D01*
G01*
X107981D02*
G03*
X98438Y509462I-27471J-160248D01*
G01*
D02*
G03*
X92283Y510028I-18123J-163320D01*
G01*
X92283Y510028D02*
G03*
X87267Y510318I-12095J-165598D01*
G01*
Y510318D02*
G03*
X82936Y510447I-7153J-167609D01*
G01*
Y510447D02*
G03*
X79064Y510468I-2851J-169452D01*
G01*
Y510468D02*
G03*
X75432Y510407I1031J-171198D01*
G01*
D02*
G03*
X72036Y510281I4710J-172882D01*
G01*
X72036D02*
G03*
X68663Y510090I8190J-174546D01*
G01*
D02*
G03*
X65522Y509854I11684J-176173D01*
G01*
D02*
G03*
X62403Y509563I14979J-177763D01*
G01*
X21440Y500698D02*
G03*
X17845Y499472I65294J-197418D01*
G01*
D02*
G03*
X13787Y498000I69593J-198197D01*
G01*
D02*
G03*
X-10059Y487370I75298J-200971D01*
G01*
X-10059D02*
G03*
X-13434Y485573I98074J-188285D01*
G01*
X-74240Y442558D02*
G03*
X-70126Y444739I-29602J60806D01*
G01*
X-176741Y424061D02*
G03*
X-178580Y423493I30874J-103296D01*
G01*
D02*
G03*
X-180595Y422829I32371J-101654D01*
G01*
Y422829D02*
G03*
X-182777Y422060I34033J-99954D01*
G01*
D02*
G03*
X-185503Y421021I35838J-98153D01*
G01*
D02*
G03*
X-201701Y412867I37754J-95161D01*
G01*
Y412867D02*
G03*
X-204839Y410842I54493J-87881D01*
G01*
D02*
G03*
X-207091Y409287I58230J-86751D01*
G01*
X-207091D02*
G03*
X-208981Y407913I61106J-86074D01*
G01*
Y407913D02*
G03*
X-210683Y406621I63664J-85598D01*
G01*
X-210683D02*
G03*
X-212203Y405421I66073J-85221D01*
G01*
X-280785Y256060D02*
G03*
X-283147Y235874I304201J-45816D01*
G01*
D02*
G03*
X-283558Y230361I304871J-25499D01*
G01*
X-284190Y211660D02*
G03*
X-284189Y210761I269781J-277D01*
G01*
X-274493Y162503D02*
G03*
X-274384Y162416I4827J5947D01*
G01*
Y162416D02*
G03*
X-274251Y162314I4667J5969D01*
G01*
D02*
G03*
X-273273Y161696I4437J5936D01*
G01*
X-260283Y159120D02*
G03*
X-260193Y159161I-2264J5082D01*
G01*
X-260193Y159161D02*
G03*
X-260104Y159203I-2327J4983D01*
G01*
D02*
G03*
X-260016Y159247I-2390J4888D01*
G01*
D02*
G03*
X-259912Y159302I-2452J4793D01*
G01*
X-259911Y159302D02*
G03*
X-259791Y159369I-2528J4685D01*
G01*
D02*
G03*
X-259655Y159450I-2620J4567D01*
G01*
D02*
G03*
X-258962Y159960I-2704J4403D01*
G01*
D02*
G03*
X-258795Y160111I-3423J3924D01*
G01*
Y160111D02*
G03*
X-258677Y160227I-3629J3814D01*
G01*
X-258677D02*
G03*
X-258591Y160317I-3787J3738D01*
G01*
D02*
G03*
X-258505Y160410I-3917J3688D01*
G01*
Y160410D02*
G03*
X-258435Y160489I-4048J3637D01*
G01*
D02*
G03*
X-258366Y160571I-4166J3599D01*
G01*
X-68880Y286548D02*
X-67803Y286372D01*
X-69901Y286636D02*
X-68880Y286548D01*
X-70600Y286550D02*
X-69901Y286636D01*
X-71272Y286346D02*
X-70600Y286550D01*
X-71892Y286015D02*
X-71272Y286346D01*
X-72742Y285273D02*
X-71892Y286015D01*
X-74109Y283971D02*
X-72742Y285273D01*
X-255638Y172654D02*
Y172660D01*
X-66259Y447130D02*
X-64115Y448597D01*
X-255109Y173189D02*
X-254901Y173171D01*
X-254692Y173154D01*
X-254482Y173139D01*
X-254272Y173126D01*
X-254061Y173114D01*
X-253919Y173107D01*
X-253778Y173101D01*
X-253636Y173095D01*
X-253493Y173090D01*
X-253351Y173085D01*
X-253208Y173082D01*
X-253064Y173079D01*
X-252921Y173076D01*
X-252777Y173074D01*
X-252632Y173073D01*
X-252487Y173073D01*
X-252342Y173073D01*
X-252197Y173074D01*
X-252051Y173075D01*
X-251905Y173077D01*
X-251759Y173080D01*
X-251612Y173083D01*
X-251465Y173088D01*
X-251318Y173092D01*
X-251170Y173098D01*
X-251022Y173103D01*
X-250874Y173110D01*
X-250725Y173117D01*
X-250576Y173125D01*
X-250427Y173133D01*
X-250277Y173142D01*
X-250127Y173152D01*
X-249977Y173162D01*
X-249827Y173173D01*
X-249676Y173185D01*
X-249524Y173197D01*
X-249373Y173210D01*
X-249221Y173223D01*
X-249069Y173237D01*
X-248917Y173251D01*
X-248764Y173266D01*
X-248611Y173282D01*
X-248458Y173298D01*
X-248304Y173315D01*
X-248150Y173333D01*
X-247996Y173351D01*
X-247842Y173369D01*
X-247687Y173389D01*
X-247532Y173408D01*
X-247377Y173429D01*
X-247221Y173450D01*
X-247065Y173471D01*
X-246909Y173493D01*
X-246752Y173516D01*
X-246596Y173539D01*
X-246439Y173563D01*
X-246281Y173587D01*
X-246124Y173612D01*
X-245966Y173638D01*
X-245808Y173664D01*
X-245649Y173690D01*
X-245490Y173717D01*
X-245331Y173745D01*
X-245172Y173773D01*
X-245013Y173802D01*
X-244853Y173831D01*
X-244693Y173861D01*
X-244532Y173892D01*
X-244372Y173923D01*
X-244211Y173954D01*
X-244050Y173986D01*
X-243888Y174018D01*
X-243727Y174051D01*
X-243565Y174085D01*
X-243403Y174119D01*
X-243240Y174154D01*
X-243078Y174189D01*
X-242915Y174224D01*
X-242752Y174260D01*
X-242588Y174297D01*
X-242425Y174334D01*
X-242261Y174372D01*
X-242096Y174410D01*
X-241932Y174449D01*
X-241768Y174488D01*
X-241603Y174528D01*
X-241438Y174568D01*
X-241272Y174608D01*
X-241107Y174650D01*
X-240941Y174691D01*
X-240775Y174733D01*
X-240608Y174776D01*
X-240442Y174819D01*
X-240275Y174862D01*
X-240108Y174906D01*
X-239941Y174951D01*
X-239773Y174996D01*
X-239606Y175041D01*
X-239438Y175087D01*
X-239270Y175134D01*
X-239101Y175180D01*
X-238933Y175228D01*
X-238764Y175276D01*
X-238595Y175324D01*
X-238426Y175372D01*
X-238256Y175422D01*
X-238087Y175471D01*
X-237917Y175521D01*
X-237747Y175572D01*
X-237576Y175622D01*
X-237406Y175674D01*
X-237235Y175726D01*
X-237064Y175778D01*
X-236893Y175830D01*
X-236722Y175884D01*
X-236550Y175937D01*
X-236379Y175991D01*
X-236207Y176046D01*
X-236035Y176100D01*
X-235862Y176155D01*
X-235690Y176211D01*
X-235517Y176267D01*
X-235344Y176324D01*
X-235171Y176381D01*
X-234998Y176438D01*
X-234824Y176496D01*
X-234651Y176554D01*
X-234477Y176612D01*
X-234303Y176671D01*
X-234129Y176730D01*
X-233954Y176790D01*
X-233780Y176850D01*
X-233605Y176911D01*
X-233430Y176972D01*
X-233255Y177033D01*
X-233080Y177094D01*
X-232904Y177157D01*
X-232729Y177219D01*
X-232553Y177282D01*
X-232377Y177345D01*
X-232201Y177409D01*
X-232025Y177472D01*
X-231848Y177537D01*
X-231672Y177602D01*
X-231495Y177666D01*
X-231318Y177732D01*
X-231141Y177798D01*
X-230964Y177864D01*
X-230786Y177930D01*
X-230609Y177997D01*
X-230431Y178064D01*
X-230253Y178132D01*
X-230075Y178200D01*
X-229897Y178268D01*
X-229719Y178337D01*
X-229540Y178405D01*
X-229362Y178475D01*
X-229183Y178544D01*
X-229004Y178614D01*
X-228825Y178684D01*
X-228646Y178755D01*
X-228466Y178826D01*
X-228287Y178897D01*
X-228107Y178969D01*
X-227927Y179041D01*
X-227748Y179113D01*
X-227568Y179185D01*
X-227387Y179258D01*
X-227207Y179331D01*
X-227027Y179405D01*
X-226846Y179479D01*
X-226666Y179553D01*
X-226485Y179627D01*
X-226304Y179702D01*
X-226123Y179777D01*
X-225942Y179852D01*
X-225761Y179928D01*
X-225579Y180004D01*
X-225398Y180080D01*
X-225216Y180156D01*
X-225034Y180233D01*
X-224852Y180310D01*
X-224671Y180387D01*
X-224488Y180465D01*
X-224306Y180543D01*
X-224124Y180621D01*
X-223942Y180699D01*
X-223759Y180778D01*
X-223577Y180857D01*
X-223394Y180936D01*
X-223211Y181016D01*
X-223028Y181095D01*
X-222845Y181175D01*
X-222662Y181256D01*
X-222479Y181336D01*
X-222296Y181417D01*
X-222112Y181498D01*
X-221929Y181579D01*
X-221745Y181661D01*
X-221562Y181742D01*
X-221378Y181824D01*
X-221194Y181907D01*
X-221010Y181989D01*
X-220826Y182072D01*
X-220642Y182155D01*
X-220458Y182238D01*
X-220274Y182321D01*
X-220090Y182405D01*
X-219905Y182489D01*
X-219721Y182573D01*
X-219536Y182657D01*
X-219352Y182742D01*
X-219167Y182826D01*
X-218982Y182911D01*
X-218798Y182996D01*
X-218613Y183082D01*
X-218428Y183168D01*
X-218243Y183253D01*
X-218058Y183339D01*
X-217873Y183425D01*
X-217687Y183512D01*
X-217502Y183598D01*
X-217317Y183685D01*
X-217131Y183772D01*
X-216946Y183859D01*
X-216761Y183947D01*
X-216575Y184034D01*
X-216390Y184122D01*
X-216204Y184210D01*
X-216018Y184298D01*
X-215833Y184386D01*
X-215647Y184474D01*
X-215461Y184563D01*
X-215275Y184652D01*
X-215089Y184740D01*
X-214903Y184829D01*
X-214717Y184919D01*
X-214531Y185008D01*
X-214345Y185098D01*
X-214159Y185187D01*
X-213973Y185277D01*
X-213787Y185367D01*
X-213601Y185457D01*
X-213415Y185548D01*
X-213228Y185638D01*
X-213042Y185729D01*
X-212856Y185819D01*
X-212670Y185910D01*
X-212483Y186001D01*
X-212297Y186092D01*
X-212110Y186184D01*
X-211924Y186275D01*
X-211738Y186367D01*
X-211551Y186458D01*
X-211365Y186550D01*
X-211178Y186642D01*
X-210992Y186734D01*
X-210806Y186826D01*
X-210619Y186918D01*
X-210433Y187011D01*
X-210246Y187103D01*
X-210059Y187196D01*
X-209873Y187288D01*
X-209686Y187381D01*
X-209500Y187474D01*
X-209314Y187567D01*
X-209127Y187660D01*
X-208941Y187753D01*
X-208754Y187847D01*
X-208568Y187940D01*
X-208381Y188033D01*
X-208195Y188127D01*
X-208008Y188221D01*
X-207822Y188314D01*
X-207635Y188408D01*
X-207449Y188502D01*
X-207262Y188596D01*
X-207076Y188690D01*
X-206983Y188737D01*
X-206890Y188784D01*
X-206796Y188831D01*
X-206703Y188878D01*
X-206610Y188925D01*
X-206517Y188972D01*
X-206424Y189019D01*
X-206330Y189066D01*
X-206237Y189113D01*
X-206144Y189161D01*
X-206051Y189208D01*
X-205958Y189255D01*
X-205865Y189302D01*
X-205772Y189349D01*
X-205679Y189397D01*
X-205586Y189444D01*
X-205492Y189491D01*
X-205399Y189538D01*
X-205306Y189585D01*
X-205213Y189633D01*
X-205120Y189680D01*
X-205027Y189727D01*
X-204934Y189775D01*
X-204841Y189822D01*
X-204748Y189869D01*
X-204655Y189917D01*
X-204562Y189964D01*
X-204469Y190012D01*
X-204376Y190059D01*
X-204283Y190106D01*
X-204190Y190154D01*
X-204097Y190201D01*
X-204004Y190249D01*
X-203911Y190296D01*
X-203818Y190343D01*
X-203725Y190391D01*
X-203632Y190438D01*
X-203539Y190486D01*
X-203446Y190533D01*
X-203353Y190581D01*
X-203260Y190628D01*
X-203168Y190676D01*
X-203075Y190723D01*
X-202982Y190771D01*
X-202889Y190818D01*
X-202796Y190866D01*
X-202703Y190913D01*
X-202611Y190961D01*
X-202518Y191008D01*
X-202425Y191056D01*
X-202332Y191103D01*
X-202240Y191151D01*
X-202147Y191198D01*
X-202054Y191246D01*
X-201961Y191293D01*
X-201869Y191341D01*
X-201776Y191388D01*
X-201683Y191436D01*
X-201591Y191483D01*
X-201498Y191531D01*
X-201406Y191579D01*
X-201313Y191626D01*
X-201220Y191674D01*
X-201128Y191721D01*
X-201035Y191769D01*
X-200943Y191816D01*
X-200850Y191864D01*
X-200758Y191911D01*
X-200665Y191959D01*
X-200573Y192007D01*
X-200480Y192054D01*
X-200388Y192102D01*
X-200295Y192149D01*
X-200203Y192197D01*
X-200110Y192244D01*
X-200018Y192292D01*
X-199926Y192339D01*
X-199833Y192387D01*
X-199741Y192434D01*
X-199649Y192482D01*
X-199556Y192529D01*
X-199464Y192577D01*
X-199372Y192624D01*
X-199279Y192672D01*
X-199187Y192719D01*
X-199095Y192767D01*
X-199003Y192814D01*
X-198911Y192861D01*
X-198819Y192909D01*
X-198726Y192956D01*
X-198634Y193004D01*
X-198542Y193051D01*
X-198450Y193099D01*
X-198358Y193146D01*
X-198266Y193193D01*
X-198174Y193241D01*
X-198082Y193288D01*
X-197990Y193336D01*
X-197898Y193383D01*
X-197806Y193430D01*
X-197714Y193478D01*
X-197623Y193525D01*
X-197531Y193572D01*
X-197439Y193620D01*
X-197347Y193667D01*
X-197255Y193714D01*
X-197163Y193762D01*
X-197072Y193809D01*
X-196980Y193856D01*
X-196888Y193903D01*
X-196797Y193950D01*
X-196705Y193998D01*
X-196613Y194045D01*
X-196522Y194092D01*
X-196430Y194139D01*
X-196338Y194186D01*
X-196247Y194234D01*
X-196155Y194281D01*
X-196064Y194328D01*
X-195972Y194375D01*
X-195881Y194422D01*
X-195790Y194469D01*
X-195698Y194516D01*
X-195607Y194563D01*
X-195515Y194610D01*
X-195424Y194657D01*
X-195333Y194704D01*
X-195241Y194751D01*
X-195150Y194798D01*
X-195059Y194845D01*
X-194968Y194892D01*
X-194877Y194939D01*
X-194785Y194986D01*
X-194694Y195032D01*
X-194603Y195079D01*
X-194512Y195126D01*
X-194421Y195173D01*
X-194330Y195220D01*
X-194239Y195266D01*
X-194148Y195313D01*
X-194057Y195360D01*
X-193966Y195406D01*
X-193876Y195453D01*
X-193785Y195500D01*
X-193694Y195546D01*
X-193603Y195593D01*
X-193512Y195640D01*
X-193422Y195686D01*
X-193331Y195732D01*
X-193240Y195779D01*
X-193150Y195826D01*
X-193059Y195872D01*
X-192969Y195918D01*
X-192878Y195965D01*
X-192788Y196011D01*
X-192697Y196057D01*
X-192607Y196104D01*
X-192516Y196150D01*
X-192426Y196196D01*
X-192335Y196243D01*
X-192245Y196289D01*
X-192155Y196335D01*
X-192064Y196381D01*
X-191974Y196427D01*
X-191884Y196473D01*
X-191794Y196519D01*
X-191704Y196565D01*
X-191614Y196611D01*
X-191524Y196658D01*
X-191434Y196704D01*
X-191344Y196749D01*
X-191254Y196795D01*
X-191164Y196841D01*
X-191074Y196887D01*
X-190984Y196933D01*
X-190894Y196979D01*
X-190804Y197024D01*
X-190715Y197070D01*
X-190625Y197116D01*
X-190535Y197161D01*
X-190445Y197207D01*
X-190356Y197253D01*
X-190266Y197298D01*
X-190177Y197344D01*
X-190087Y197389D01*
X-189997Y197434D01*
X-189908Y197480D01*
X-189819Y197525D01*
X-189729Y197571D01*
X-189640Y197616D01*
X-189551Y197661D01*
X-189461Y197706D01*
X-189372Y197752D01*
X-189283Y197797D01*
X-189194Y197842D01*
X-189105Y197887D01*
X-189015Y197932D01*
X-188926Y197977D01*
X-188837Y198022D01*
X-188749Y198067D01*
X-188660Y198112D01*
X-188571Y198157D01*
X-188482Y198202D01*
X-188393Y198247D01*
X-188304Y198291D01*
X-188215Y198336D01*
X-188127Y198381D01*
X-188038Y198425D01*
X-187949Y198470D01*
X-187861Y198514D01*
X-187772Y198559D01*
X-187684Y198603D01*
X-187595Y198648D01*
X-187507Y198692D01*
X-187418Y198737D01*
X-187330Y198781D01*
X-187242Y198825D01*
X-187153Y198869D01*
X-187065Y198913D01*
X-186977Y198958D01*
X-186801Y199046D01*
X-186625Y199134D01*
X-186449Y199221D01*
X-186273Y199309D01*
X-186098Y199396D01*
X-185922Y199484D01*
X-185747Y199571D01*
X-185572Y199657D01*
X-185397Y199744D01*
X-185222Y199831D01*
X-185048Y199917D01*
X-184873Y200003D01*
X-184699Y200089D01*
X-184525Y200174D01*
X-184352Y200260D01*
X-184178Y200345D01*
X-184004Y200430D01*
X-183831Y200515D01*
X-183658Y200600D01*
X-183485Y200684D01*
X-183313Y200768D01*
X-183140Y200852D01*
X-182968Y200936D01*
X-182796Y201019D01*
X-182624Y201103D01*
X-182452Y201186D01*
X-182281Y201268D01*
X-182110Y201351D01*
X-181939Y201433D01*
X-181768Y201516D01*
X-181597Y201597D01*
X-181427Y201679D01*
X-181256Y201760D01*
X-181086Y201841D01*
X-180916Y201922D01*
X-180747Y202003D01*
X-180577Y202083D01*
X-180408Y202163D01*
X-180239Y202243D01*
X-180070Y202323D01*
X-179902Y202402D01*
X-179734Y202481D01*
X-179566Y202560D01*
X-179398Y202639D01*
X-179230Y202717D01*
X-179063Y202795D01*
X-178895Y202872D01*
X-178728Y202950D01*
X-178562Y203027D01*
X-178395Y203104D01*
X-178229Y203181D01*
X-178063Y203257D01*
X-177897Y203333D01*
X-177732Y203408D01*
X-177566Y203484D01*
X-177401Y203559D01*
X-177236Y203634D01*
X-177072Y203708D01*
X-176907Y203783D01*
X-176743Y203856D01*
X-176579Y203930D01*
X-176416Y204003D01*
X-176252Y204076D01*
X-176089Y204149D01*
X-175926Y204221D01*
X-175764Y204293D01*
X-175601Y204365D01*
X-175439Y204436D01*
X-175277Y204507D01*
X-175116Y204578D01*
X-174954Y204649D01*
X-174794Y204719D01*
X-174633Y204788D01*
X-174472Y204858D01*
X-174312Y204927D01*
X-174152Y204996D01*
X-173992Y205064D01*
X-173833Y205132D01*
X-173673Y205200D01*
X-173514Y205267D01*
X-173356Y205334D01*
X-173197Y205401D01*
X-173039Y205467D01*
X-172881Y205533D01*
X-172724Y205598D01*
X-172567Y205664D01*
X-172409Y205728D01*
X-172253Y205793D01*
X-172096Y205857D01*
X-171940Y205921D01*
X-171784Y205984D01*
X-171629Y206047D01*
X-171474Y206110D01*
X-171318Y206172D01*
X-171164Y206234D01*
X-171009Y206295D01*
X-170855Y206356D01*
X-170702Y206417D01*
X-170548Y206477D01*
X-170395Y206537D01*
X-170242Y206596D01*
X-170089Y206656D01*
X-169937Y206714D01*
X-169785Y206772D01*
X-169633Y206830D01*
X-169406Y206916D01*
X-169330Y206945D01*
X-169254Y206974D01*
X-169178Y207004D01*
X-169102Y207033D01*
X-169025Y207064D01*
X-168948Y207094D01*
X-168870Y207125D01*
X-168792Y207156D01*
X-168714Y207188D01*
X-168636Y207220D01*
X-168558Y207252D01*
X-168479Y207285D01*
X-168400Y207318D01*
X-168320Y207351D01*
X-168241Y207385D01*
X-168161Y207419D01*
X-168080Y207454D01*
X-168000Y207489D01*
X-167919Y207524D01*
X-167838Y207559D01*
X-167757Y207595D01*
X-167675Y207631D01*
X-167593Y207668D01*
X-167511Y207705D01*
X-167429Y207742D01*
X-167346Y207780D01*
X-167263Y207818D01*
X-167180Y207856D01*
X-167096Y207895D01*
X-167013Y207934D01*
X-166929Y207973D01*
X-166844Y208013D01*
X-166760Y208053D01*
X-166675Y208093D01*
X-166590Y208134D01*
X-166505Y208175D01*
X-166419Y208216D01*
X-166333Y208258D01*
X-166247Y208300D01*
X-166161Y208343D01*
X-166074Y208385D01*
X-165987Y208428D01*
X-165900Y208472D01*
X-165812Y208516D01*
X-165725Y208560D01*
X-165637Y208604D01*
X-165549Y208649D01*
X-165460Y208694D01*
X-165371Y208739D01*
X-165282Y208785D01*
X-165193Y208831D01*
X-165104Y208877D01*
X-165014Y208924D01*
X-164924Y208971D01*
X-164834Y209018D01*
X-164743Y209066D01*
X-164653Y209114D01*
X-164562Y209162D01*
X-164470Y209211D01*
X-164379Y209260D01*
X-164287Y209309D01*
X-164195Y209359D01*
X-164103Y209409D01*
X-164011Y209459D01*
X-163918Y209509D01*
X-163825Y209560D01*
X-163732Y209612D01*
X-163638Y209663D01*
X-163545Y209715D01*
X-163451Y209767D01*
X-163357Y209819D01*
X-163262Y209872D01*
X-163168Y209925D01*
X-163073Y209979D01*
X-162978Y210032D01*
X-162883Y210086D01*
X-162787Y210140D01*
X-162691Y210195D01*
X-162595Y210250D01*
X-162499Y210305D01*
X-162403Y210361D01*
X-162306Y210416D01*
X-162209Y210472D01*
X-162112Y210529D01*
X-162015Y210586D01*
X-161917Y210643D01*
X-161819Y210700D01*
X-161721Y210757D01*
X-161623Y210815D01*
X-161524Y210874D01*
X-161426Y210932D01*
X-161327Y210991D01*
X-161227Y211050D01*
X-161128Y211109D01*
X-161028Y211169D01*
X-160929Y211229D01*
X-160828Y211289D01*
X-160728Y211350D01*
X-160628Y211411D01*
X-160527Y211472D01*
X-160426Y211533D01*
X-160325Y211595D01*
X-160224Y211657D01*
X-160122Y211719D01*
X-160020Y211782D01*
X-159918Y211844D01*
X-159816Y211908D01*
X-159714Y211971D01*
X-159611Y212035D01*
X-159508Y212099D01*
X-159405Y212163D01*
X-159302Y212227D01*
X-159198Y212292D01*
X-159095Y212357D01*
X-158991Y212422D01*
X-158887Y212488D01*
X-158783Y212554D01*
X-158678Y212620D01*
X-158469Y212753D01*
X-158258Y212888D01*
X-158047Y213023D01*
X-157835Y213159D01*
X-157622Y213297D01*
X-157409Y213435D01*
X-157194Y213575D01*
X-156979Y213716D01*
X-156763Y213857D01*
X-156547Y214000D01*
X-156329Y214144D01*
X-156111Y214289D01*
X-155893Y214434D01*
X-155673Y214581D01*
X-155453Y214729D01*
X-155231Y214878D01*
X-155010Y215028D01*
X-154787Y215178D01*
X-154564Y215330D01*
X-154340Y215483D01*
X-154115Y215637D01*
X-153890Y215791D01*
X-153664Y215947D01*
X-153438Y216104D01*
X-153210Y216261D01*
X-152982Y216420D01*
X-152754Y216579D01*
X-152524Y216739D01*
X-152295Y216900D01*
X-152064Y217063D01*
X-151833Y217226D01*
X-151601Y217390D01*
X-151368Y217554D01*
X-151135Y217720D01*
X-150901Y217887D01*
X-150667Y218054D01*
X-150432Y218223D01*
X-150197Y218392D01*
X-149961Y218562D01*
X-149724Y218733D01*
X-149487Y218905D01*
X-149249Y219077D01*
X-149010Y219250D01*
X-148771Y219425D01*
X-148532Y219600D01*
X-148292Y219776D01*
X-148051Y219952D01*
X-147810Y220130D01*
X-147568Y220308D01*
X-147326Y220487D01*
X-147083Y220667D01*
X-146840Y220847D01*
X-146596Y221029D01*
X-146352Y221211D01*
X-146107Y221394D01*
X-145862Y221577D01*
X-145616Y221762D01*
X-145370Y221947D01*
X-145123Y222132D01*
X-144876Y222319D01*
X-144629Y222506D01*
X-144380Y222694D01*
X-144132Y222883D01*
X-143883Y223072D01*
X-143634Y223262D01*
X-143384Y223453D01*
X-143133Y223644D01*
X-142883Y223836D01*
X-142632Y224029D01*
X-142380Y224222D01*
X-142128Y224416D01*
X-141876Y224611D01*
X-141623Y224806D01*
X-141370Y225003D01*
X-141117Y225199D01*
X-140863Y225396D01*
X-140609Y225594D01*
X-140354Y225793D01*
X-140099Y225992D01*
X-139844Y226191D01*
X-139588Y226391D01*
X-139332Y226592D01*
X-139076Y226793D01*
X-138819Y226995D01*
X-138562Y227198D01*
X-138305Y227401D01*
X-138047Y227605D01*
X-137789Y227809D01*
X-137531Y228013D01*
X-137273Y228219D01*
X-137014Y228424D01*
X-136755Y228630D01*
X-136496Y228837D01*
X-136236Y229045D01*
X-135976Y229252D01*
X-135716Y229461D01*
X-135456Y229669D01*
X-135195Y229878D01*
X-134934Y230088D01*
X-134673Y230298D01*
X-134412Y230509D01*
X-134150Y230720D01*
X-133757Y231037D01*
X-133364Y231356D01*
X-132971Y231675D01*
X-132577Y231996D01*
X-132182Y232317D01*
X-131787Y232639D01*
X-131392Y232962D01*
X-130996Y233286D01*
X-130601Y233611D01*
X-130204Y233937D01*
X-129808Y234263D01*
X-129411Y234590D01*
X-129014Y234918D01*
X-128617Y235247D01*
X-128219Y235576D01*
X-127822Y235906D01*
X-127424Y236237D01*
X-127026Y236568D01*
X-126627Y236900D01*
X-126229Y237233D01*
X-125831Y237566D01*
X-125432Y237900D01*
X-125034Y238234D01*
X-124635Y238569D01*
X-124237Y238904D01*
X-123838Y239240D01*
X-123440Y239576D01*
X-123041Y239913D01*
X-122643Y240250D01*
X-122245Y240587D01*
X-121846Y240925D01*
X-121448Y241263D01*
X-121050Y241602D01*
X-120653Y241941D01*
X-120255Y242280D01*
X-119858Y242619D01*
X-119460Y242959D01*
X-119063Y243299D01*
X-118667Y243639D01*
X-118270Y243979D01*
X-117874Y244319D01*
X-117347Y244773D01*
X-116820Y245228D01*
X-116293Y245682D01*
X-115768Y246136D01*
X-115243Y246591D01*
X-114719Y247045D01*
X-114195Y247499D01*
X-113673Y247954D01*
X-113152Y248408D01*
X-112631Y248862D01*
X-112112Y249315D01*
X-111593Y249769D01*
X-111076Y250222D01*
X-110560Y250674D01*
X-110045Y251126D01*
X-109532Y251578D01*
X-109019Y252029D01*
X-108509Y252479D01*
X-107872Y253041D01*
X-107238Y253602D01*
X-106606Y254162D01*
X-105976Y254720D01*
X-105350Y255276D01*
X-104725Y255832D01*
X-104104Y256385D01*
X-103485Y256937D01*
X-102869Y257487D01*
X-102135Y258145D01*
X-101404Y258799D01*
X-100679Y259451D01*
X-99958Y260099D01*
X-99242Y260743D01*
X-98413Y261491D01*
X-97592Y262233D01*
X-96777Y262969D01*
X-95857Y263804D01*
X-94833Y264734D01*
X-93824Y265653D01*
X-92719Y266661D01*
X-91417Y267851D01*
X-89830Y269307D01*
X-84604Y274131D01*
X-82542Y276048D01*
X-81437Y277079D01*
X-80617Y277845D01*
X-79982Y278440D01*
X-79440Y278947D01*
X-78913Y279442D01*
X-78472Y279856D01*
X-78042Y280260D01*
X-77692Y280589D01*
X-77349Y280911D01*
X-77015Y281227D01*
X-76753Y281474D01*
X-76495Y281716D01*
X-76243Y281954D01*
X-75996Y282188D01*
X-75754Y282416D01*
X-75577Y282584D01*
X-75402Y282750D01*
X-75230Y282912D01*
X-75061Y283072D01*
X-74895Y283229D01*
X-74732Y283383D01*
X-74572Y283535D01*
X-74415Y283684D01*
X-74261Y283829D01*
X-74111Y283972D01*
X-67803Y286372D02*
X-67721Y286355D01*
X-67598Y286329D01*
X-67472Y286303D01*
X-67344Y286276D01*
X-67213Y286249D01*
X-67081Y286222D01*
X-66946Y286194D01*
X-66808Y286166D01*
X-66669Y286138D01*
X-66528Y286109D01*
X-66384Y286080D01*
X-66238Y286051D01*
X-66090Y286022D01*
X-65939Y285992D01*
X-65787Y285962D01*
X-65632Y285932D01*
X-65475Y285902D01*
X-65263Y285861D01*
X-65046Y285819D01*
X-64826Y285778D01*
X-64602Y285736D01*
X-64375Y285693D01*
X-64143Y285650D01*
X-63908Y285607D01*
X-63669Y285564D01*
X-63427Y285520D01*
X-63180Y285476D01*
X-62867Y285421D01*
X-62549Y285365D01*
X-62224Y285309D01*
X-61894Y285253D01*
X-61559Y285196D01*
X-61218Y285139D01*
X-60801Y285070D01*
X-60377Y285002D01*
X-59944Y284933D01*
X-59504Y284863D01*
X-58981Y284783D01*
X-58448Y284702D01*
X-57904Y284621D01*
X-57270Y284529D01*
X-56622Y284437D01*
X-55878Y284334D01*
X-55118Y284232D01*
X-54254Y284120D01*
X-53281Y283998D01*
X-52193Y283868D01*
X-50888Y283719D01*
X-49353Y283554D01*
X-47569Y283378D01*
X-45101Y283159D01*
X-20366Y282540D02*
X-16828Y282686D01*
X-13637Y282870D01*
X-10675Y283085D01*
X-7813Y283334D01*
X-5060Y283612D01*
X-2422Y283915D01*
X243Y284257D01*
X2783Y284618D01*
X5345Y285017D01*
X7926Y285454D01*
X10373Y285903D01*
X12836Y286389D01*
X15313Y286913D01*
X17804Y287475D01*
X20307Y288078D01*
X22821Y288721D01*
X25345Y289406D01*
X28037Y290181D01*
X30897Y291057D01*
X32473Y291555D01*
X33866Y291998D01*
X35083Y292387D01*
X36133Y292724D01*
X37022Y293010D01*
X37754Y293246D01*
X38479Y293480D01*
X39054Y293667D01*
X39625Y293852D01*
X40190Y294036D01*
X40751Y294219D01*
X41169Y294355D01*
X41585Y294491D01*
X41997Y294626D01*
X42408Y294760D01*
X42815Y294894D01*
X43221Y295027D01*
X43623Y295159D01*
X43890Y295247D01*
X44156Y295334D01*
X44421Y295422D01*
X44685Y295509D01*
X44948Y295595D01*
X45209Y295682D01*
X45470Y295768D01*
X45729Y295853D01*
X45988Y295939D01*
X46245Y296024D01*
X46501Y296109D01*
X46756Y296193D01*
X47010Y296277D01*
X47263Y296361D01*
X47515Y296445D01*
X47765Y296528D01*
X48015Y296611D01*
X48140Y296653D01*
X48264Y296694D01*
X48388Y296735D01*
X48511Y296776D01*
X48635Y296817D01*
X48758Y296858D01*
X48881Y296899D01*
X49003Y296940D01*
X49125Y296981D01*
X49248Y297022D01*
X49369Y297062D01*
X49491Y297103D01*
X49612Y297143D01*
X49733Y297183D01*
X49854Y297224D01*
X49974Y297264D01*
X50094Y297304D01*
X50214Y297344D01*
X50334Y297384D01*
X50454Y297424D01*
X50573Y297464D01*
X50692Y297503D01*
X50810Y297543D01*
X50929Y297583D01*
X51047Y297622D01*
X51165Y297661D01*
X51282Y297701D01*
X51400Y297740D01*
X51517Y297779D01*
X51634Y297818D01*
X51750Y297857D01*
X51867Y297896D01*
X51982Y297935D01*
X52098Y297974D01*
X52214Y298013D01*
X52329Y298051D01*
X52444Y298090D01*
X52559Y298128D01*
X52674Y298167D01*
X52788Y298205D01*
X52902Y298243D01*
X53016Y298281D01*
X53129Y298319D01*
X53242Y298357D01*
X53355Y298395D01*
X53468Y298433D01*
X53581Y298471D01*
X53693Y298508D01*
X53805Y298546D01*
X53917Y298583D01*
X54028Y298621D01*
X54139Y298658D01*
X54250Y298695D01*
X54361Y298732D01*
X54471Y298769D01*
X54582Y298806D01*
X54692Y298843D01*
X54801Y298880D01*
X54911Y298917D01*
X55020Y298954D01*
X55129Y298990D01*
X55238Y299027D01*
X55346Y299063D01*
X55455Y299099D01*
X55563Y299136D01*
X55670Y299172D01*
X55778Y299208D01*
X55885Y299244D01*
X55992Y299280D01*
X56099Y299316D01*
X56205Y299351D01*
X56312Y299387D01*
X56418Y299423D01*
X56524Y299458D01*
X56629Y299493D01*
X56734Y299529D01*
X56839Y299564D01*
X56944Y299599D01*
X57049Y299634D01*
X57153Y299669D01*
X57257Y299704D01*
X57361Y299739D01*
X57465Y299774D01*
X57568Y299808D01*
X57671Y299843D01*
X57774Y299877D01*
X57877Y299912D01*
X57979Y299946D01*
X58081Y299980D01*
X58183Y300014D01*
X58285Y300049D01*
X58386Y300083D01*
X58487Y300116D01*
X58588Y300150D01*
X58689Y300184D01*
X58790Y300218D01*
X58890Y300251D01*
X58990Y300285D01*
X59090Y300318D01*
X59189Y300351D01*
X59288Y300384D01*
X59387Y300418D01*
X59486Y300451D01*
X59585Y300484D01*
X59683Y300517D01*
X59781Y300549D01*
X59879Y300582D01*
X59977Y300615D01*
X60074Y300647D01*
X60172Y300680D01*
X60269Y300712D01*
X60365Y300744D01*
X60462Y300776D01*
X60558Y300809D01*
X60654Y300840D01*
X60750Y300872D01*
X60845Y300904D01*
X60941Y300936D01*
X61036Y300968D01*
X61131Y300999D01*
X61225Y301031D01*
X61320Y301062D01*
X61414Y301093D01*
X61508Y301125D01*
X61602Y301156D01*
X61695Y301187D01*
X61788Y301218D01*
X61882Y301249D01*
X61974Y301279D01*
X62067Y301310D01*
X62159Y301341D01*
X62251Y301371D01*
X62343Y301402D01*
X62435Y301432D01*
X62527Y301462D01*
X62618Y301492D01*
X62709Y301522D01*
X62800Y301552D01*
X62890Y301582D01*
X62980Y301612D01*
X63070Y301642D01*
X63160Y301672D01*
X63250Y301701D01*
X63340Y301730D01*
X63429Y301760D01*
X63518Y301789D01*
X63607Y301818D01*
X63695Y301847D01*
X63783Y301876D01*
X63872Y301905D01*
X63959Y301934D01*
X64047Y301963D01*
X64135Y301992D01*
X64222Y302020D01*
X64309Y302048D01*
X64396Y302077D01*
X64482Y302105D01*
X64569Y302133D01*
X64655Y302162D01*
X64741Y302189D01*
X64826Y302217D01*
X64912Y302245D01*
X64997Y302273D01*
X65082Y302301D01*
X65167Y302328D01*
X65251Y302356D01*
X65336Y302383D01*
X65420Y302410D01*
X65504Y302438D01*
X65588Y302465D01*
X65671Y302492D01*
X65755Y302519D01*
X65838Y302545D01*
X65921Y302572D01*
X66004Y302599D01*
X66086Y302625D01*
X66168Y302652D01*
X66250Y302678D01*
X66332Y302705D01*
X66414Y302731D01*
X66495Y302757D01*
X66576Y302783D01*
X66657Y302809D01*
X66738Y302835D01*
X66819Y302860D01*
X66899Y302886D01*
X66979Y302911D01*
X67059Y302937D01*
X67139Y302962D01*
X67218Y302988D01*
X67298Y303013D01*
X67377Y303038D01*
X67456Y303063D01*
X67535Y303088D01*
X67613Y303112D01*
X67691Y303137D01*
X67769Y303162D01*
X67847Y303186D01*
X67925Y303211D01*
X68002Y303235D01*
X68080Y303259D01*
X68157Y303283D01*
X68233Y303308D01*
X68310Y303331D01*
X68387Y303355D01*
X68463Y303379D01*
X68539Y303403D01*
X68615Y303426D01*
X68690Y303450D01*
X68766Y303473D01*
X68841Y303497D01*
X68916Y303520D01*
X68991Y303543D01*
X69065Y303566D01*
X69140Y303589D01*
X69214Y303611D01*
X69288Y303634D01*
X69362Y303657D01*
X69435Y303679D01*
X69509Y303702D01*
X69582Y303724D01*
X69655Y303747D01*
X69728Y303769D01*
X69800Y303791D01*
X69873Y303813D01*
X69945Y303835D01*
X70017Y303856D01*
X70089Y303878D01*
X70161Y303900D01*
X70232Y303921D01*
X70303Y303942D01*
X70374Y303964D01*
X70445Y303985D01*
X70516Y304006D01*
X70586Y304027D01*
X70657Y304048D01*
X70727Y304069D01*
X70796Y304089D01*
X70866Y304110D01*
X70936Y304131D01*
X71005Y304151D01*
X71074Y304171D01*
X71143Y304191D01*
X71212Y304212D01*
X71280Y304232D01*
X71349Y304252D01*
X71417Y304272D01*
X71485Y304291D01*
X71552Y304311D01*
X71620Y304330D01*
X71687Y304350D01*
X71754Y304369D01*
X71821Y304388D01*
X71888Y304408D01*
X71955Y304427D01*
X72021Y304446D01*
X72088Y304465D01*
X72154Y304483D01*
X72220Y304502D01*
X72285Y304520D01*
X72351Y304539D01*
X72416Y304557D01*
X72481Y304575D01*
X72546Y304594D01*
X72611Y304612D01*
X72676Y304630D01*
X72740Y304648D01*
X72804Y304665D01*
X72868Y304683D01*
X72932Y304701D01*
X72996Y304718D01*
X73059Y304735D01*
X73122Y304753D01*
X73185Y304770D01*
X73248Y304787D01*
X73311Y304804D01*
X73374Y304821D01*
X73436Y304838D01*
X73498Y304854D01*
X73560Y304871D01*
X73622Y304887D01*
X73684Y304904D01*
X73745Y304920D01*
X73807Y304936D01*
X73868Y304952D01*
X73929Y304968D01*
X73989Y304984D01*
X74050Y305000D01*
X74110Y305015D01*
X74171Y305031D01*
X74231Y305047D01*
X74291Y305062D01*
X74350Y305077D01*
X74410Y305092D01*
X74469Y305107D01*
X74528Y305122D01*
X74587Y305137D01*
X74646Y305152D01*
X74705Y305167D01*
X74763Y305181D01*
X74821Y305196D01*
X74879Y305210D01*
X74937Y305224D01*
X74995Y305239D01*
X75053Y305253D01*
X75110Y305266D01*
X75167Y305280D01*
X75225Y305294D01*
X75281Y305308D01*
X75338Y305321D01*
X75395Y305335D01*
X75451Y305348D01*
X75507Y305361D01*
X75563Y305374D01*
X75619Y305387D01*
X75675Y305400D01*
X75731Y305413D01*
X75786Y305426D01*
X75841Y305438D01*
X75896Y305451D01*
X75951Y305463D01*
X76006Y305476D01*
X76060Y305488D01*
X76114Y305500D01*
X76169Y305512D01*
X76223Y305524D01*
X76277Y305536D01*
X76330Y305547D01*
X76384Y305559D01*
X76437Y305570D01*
X76490Y305581D01*
X76543Y305593D01*
X76596Y305604D01*
X76649Y305615D01*
X76701Y305626D01*
X76754Y305637D01*
X76806Y305647D01*
X76858Y305658D01*
X76910Y305669D01*
X76962Y305679D01*
X77013Y305689D01*
X77065Y305700D01*
X77116Y305710D01*
X77167Y305720D01*
X77218Y305730D01*
X77269Y305739D01*
X77319Y305749D01*
X77370Y305759D01*
X77420Y305768D01*
X77470Y305778D01*
X77520Y305787D01*
X77570Y305796D01*
X77620Y305805D01*
X77669Y305814D01*
X77718Y305823D01*
X77768Y305831D01*
X77817Y305840D01*
X77865Y305849D01*
X77914Y305857D01*
X77963Y305865D01*
X78011Y305873D01*
X78059Y305882D01*
X78107Y305890D01*
X78155Y305897D01*
X78203Y305905D01*
X78251Y305913D01*
X78298Y305920D01*
X78346Y305928D01*
X78393Y305935D01*
X78440Y305942D01*
X78487Y305949D01*
X78533Y305957D01*
X78580Y305963D01*
X78626Y305970D01*
X78672Y305977D01*
X78718Y305983D01*
X78764Y305990D01*
X78810Y305996D01*
X78856Y306003D01*
X78901Y306009D01*
X78947Y306015D01*
X78992Y306021D01*
X79037Y306027D01*
X79082Y306032D01*
X79126Y306038D01*
X79171Y306043D01*
X79216Y306049D01*
X79260Y306054D01*
X79304Y306059D01*
X79348Y306064D01*
X79392Y306069D01*
X79435Y306074D01*
X79479Y306079D01*
X79523Y306083D01*
X79566Y306088D01*
X79609Y306092D01*
X79652Y306097D01*
X79695Y306101D01*
X79737Y306105D01*
X79780Y306109D01*
X79822Y306113D01*
X79865Y306117D01*
X79907Y306120D01*
X79949Y306124D01*
X79991Y306127D01*
X80032Y306130D01*
X80074Y306134D01*
X80115Y306137D01*
X80156Y306140D01*
X80198Y306142D01*
X80239Y306145D01*
X80279Y306148D01*
X80320Y306151D01*
X80361Y306153D01*
X80401Y306155D01*
X80441Y306157D01*
X80482Y306159D01*
X80522Y306161D01*
X80562Y306163D01*
X80601Y306165D01*
X80641Y306167D01*
X80680Y306168D01*
X80720Y306170D01*
X80759Y306171D01*
X80798Y306172D01*
X80837Y306173D01*
X80875Y306174D01*
X80914Y306175D01*
X80953Y306176D01*
X80991Y306176D01*
X81029Y306177D01*
X81067Y306177D01*
X81105Y306178D01*
X81143Y306178D01*
X81181Y306178D01*
X81218Y306178D01*
X81256Y306178D01*
X81293Y306177D01*
X81330Y306177D01*
X81367Y306177D01*
X81404Y306176D01*
X81441Y306175D01*
X81478Y306174D01*
X81514Y306173D01*
X81551Y306172D01*
X81587Y306171D01*
X81623Y306170D01*
X81659Y306169D01*
X81695Y306167D01*
X81731Y306166D01*
X81766Y306164D01*
X81802Y306162D01*
X81837Y306160D01*
X81872Y306158D01*
X81908Y306156D01*
X81943Y306153D01*
X81977Y306151D01*
X82012Y306148D01*
X82047Y306146D01*
X82081Y306143D01*
X82116Y306140D01*
X82150Y306137D01*
X82184Y306134D01*
X82218Y306131D01*
X82252Y306127D01*
X82286Y306124D01*
X82319Y306120D01*
X82386Y306113D01*
X82452Y306105D01*
X82518Y306096D01*
X82584Y306087D01*
X82649Y306078D01*
X82713Y306068D01*
X82777Y306058D01*
X82841Y306047D01*
X82904Y306036D01*
X82966Y306024D01*
X83028Y306012D01*
X83090Y306000D01*
X83151Y305986D01*
X83212Y305973D01*
X83272Y305959D01*
X83332Y305944D01*
X83391Y305929D01*
X83450Y305914D01*
X83508Y305898D01*
X83566Y305882D01*
X83624Y305865D01*
X83681Y305847D01*
X83738Y305830D01*
X83794Y305811D01*
X83850Y305792D01*
X83905Y305773D01*
X83960Y305753D01*
X84014Y305733D01*
X84069Y305713D01*
X84122Y305692D01*
X84176Y305670D01*
X84255Y305636D01*
X84333Y305602D01*
X84410Y305566D01*
X84487Y305530D01*
X85674Y304719D02*
X85735Y304662D01*
X85796Y304604D01*
X85856Y304545D01*
X85915Y304484D01*
X85953Y304443D01*
X85992Y304402D01*
X86030Y304360D01*
X86068Y304317D01*
X86106Y304275D01*
X86143Y304231D01*
X86180Y304187D01*
X86217Y304143D01*
X86253Y304098D01*
X86290Y304052D01*
X86326Y304006D01*
X86361Y303960D01*
X86396Y303912D01*
X86431Y303865D01*
X86466Y303817D01*
X86500Y303768D01*
X86534Y303719D01*
X86568Y303670D01*
X86602Y303619D01*
X86635Y303569D01*
X86668Y303518D01*
X86701Y303466D01*
X86733Y303414D01*
X86765Y303361D01*
X86797Y303308D01*
X86829Y303254D01*
X86860Y303200D01*
X86892Y303145D01*
X86923Y303089D01*
X86938Y303062D01*
X86953Y303033D01*
X86968Y303005D01*
X86984Y302977D01*
X86999Y302949D01*
X87014Y302920D01*
X87029Y302891D01*
X87044Y302863D01*
X87059Y302834D01*
X87073Y302805D01*
X87088Y302776D01*
X87103Y302746D01*
X87117Y302717D01*
X87132Y302687D01*
X87147Y302657D01*
X87161Y302627D01*
X87175Y302597D01*
X87190Y302567D01*
X87204Y302537D01*
X87218Y302507D01*
X87233Y302476D01*
X87247Y302446D01*
X87261Y302415D01*
X87275Y302384D01*
X87289Y302353D01*
X87303Y302322D01*
X87316Y302290D01*
X87330Y302259D01*
X87344Y302227D01*
X87358Y302196D01*
X87371Y302164D01*
X87385Y302132D01*
X87398Y302100D01*
X87412Y302067D01*
X87425Y302035D01*
X87439Y302003D01*
X87452Y301970D01*
X87465Y301937D01*
X87479Y301904D01*
X87492Y301871D01*
X87505Y301838D01*
X87518Y301804D01*
X87531Y301771D01*
X87544Y301737D01*
X87557Y301704D01*
X87570Y301670D01*
X87582Y301636D01*
X87595Y301602D01*
X87608Y301567D01*
X87621Y301533D01*
X87633Y301499D01*
X87646Y301464D01*
X87658Y301429D01*
X87671Y301394D01*
X87683Y301359D01*
X87696Y301324D01*
X87708Y301288D01*
X87720Y301253D01*
X87733Y301217D01*
X87745Y301182D01*
X87757Y301146D01*
X87769Y301110D01*
X87781Y301073D01*
X87793Y301037D01*
X87805Y301001D01*
X87817Y300964D01*
X87829Y300927D01*
X87841Y300890D01*
X87853Y300853D01*
X87865Y300816D01*
X87877Y300779D01*
X87888Y300742D01*
X87900Y300704D01*
X87912Y300666D01*
X87923Y300629D01*
X87935Y300591D01*
X87946Y300553D01*
X87958Y300514D01*
X87969Y300476D01*
X87981Y300437D01*
X87992Y300399D01*
X88003Y300360D01*
X88015Y300321D01*
X88026Y300282D01*
X88037Y300243D01*
X88048Y300203D01*
X88060Y300164D01*
X88071Y300125D01*
X88082Y300085D01*
X88093Y300045D01*
X88104Y300005D01*
X88115Y299965D01*
X88126Y299924D01*
X88137Y299884D01*
X88147Y299843D01*
X88158Y299803D01*
X88169Y299762D01*
X88180Y299721D01*
X88191Y299680D01*
X88201Y299638D01*
X88212Y299597D01*
X88223Y299555D01*
X88233Y299514D01*
X88244Y299472D01*
X88254Y299430D01*
X88265Y299388D01*
X88275Y299345D01*
X88286Y299303D01*
X88296Y299261D01*
X88307Y299218D01*
X88317Y299175D01*
X88327Y299132D01*
X88338Y299089D01*
X88348Y299046D01*
X88358Y299002D01*
X88369Y298959D01*
X88379Y298915D01*
X88389Y298871D01*
X88399Y298828D01*
X88409Y298783D01*
X88419Y298739D01*
X88429Y298695D01*
X88440Y298650D01*
X88450Y298606D01*
X88460Y298561D01*
X88470Y298516D01*
X88480Y298471D01*
X88490Y298426D01*
X88499Y298380D01*
X88509Y298335D01*
X88519Y298289D01*
X88529Y298243D01*
X88539Y298198D01*
X88549Y298151D01*
X88559Y298105D01*
X88568Y298059D01*
X88578Y298012D01*
X88588Y297966D01*
X88598Y297919D01*
X88607Y297872D01*
X88617Y297825D01*
X88626Y297778D01*
X88636Y297731D01*
X88646Y297683D01*
X88655Y297635D01*
X88665Y297588D01*
X88674Y297540D01*
X88684Y297492D01*
X88694Y297444D01*
X88703Y297395D01*
X88713Y297347D01*
X88722Y297298D01*
X88731Y297249D01*
X88741Y297200D01*
X88750Y297151D01*
X88760Y297102D01*
X88769Y297053D01*
X88779Y297003D01*
X88788Y296954D01*
X88797Y296904D01*
X88807Y296854D01*
X88816Y296804D01*
X88825Y296754D01*
X88835Y296703D01*
X88844Y296653D01*
X88853Y296602D01*
X88863Y296551D01*
X88872Y296500D01*
X88881Y296449D01*
X88890Y296398D01*
X88900Y296347D01*
X88909Y296295D01*
X88918Y296244D01*
X88927Y296192D01*
X88936Y296140D01*
X88946Y296088D01*
X88955Y296035D01*
X88964Y295983D01*
X88973Y295931D01*
X88982Y295878D01*
X88991Y295825D01*
X89001Y295772D01*
X89010Y295719D01*
X89019Y295666D01*
X89028Y295612D01*
X89037Y295559D01*
X89046Y295505D01*
X89055Y295451D01*
X89065Y295397D01*
X89074Y295343D01*
X89083Y295289D01*
X89092Y295234D01*
X89101Y295180D01*
X89110Y295125D01*
X89119Y295070D01*
X89128Y295015D01*
X89137Y294960D01*
X89146Y294904D01*
X89155Y294849D01*
X89165Y294793D01*
X89174Y294738D01*
X89183Y294682D01*
X89192Y294626D01*
X89201Y294569D01*
X89210Y294513D01*
X89219Y294457D01*
X89228Y294400D01*
X89237Y294343D01*
X89246Y294286D01*
X89255Y294229D01*
X89264Y294172D01*
X89274Y294114D01*
X89283Y294057D01*
X89292Y293999D01*
X89310Y293883D01*
X89319Y293825D01*
X89327Y293766D01*
X89335Y293706D01*
X89343Y293646D01*
X89350Y293586D01*
X89356Y293524D01*
X89362Y293462D01*
X89368Y293400D01*
X89373Y293337D01*
X89378Y293273D01*
X89382Y293209D01*
X89386Y293144D01*
X89389Y293079D01*
X89392Y293013D01*
X89395Y292946D01*
X89397Y292879D01*
X89398Y292811D01*
X89399Y292743D01*
X89400Y292674D01*
X89400Y292604D01*
X89400Y292534D02*
X89400Y292604D01*
X89399Y292463D02*
X89400Y292534D01*
X89398Y292392D02*
X89399Y292463D01*
X89397Y292320D02*
X89398Y292392D01*
X89395Y292248D02*
X89397Y292320D01*
X89392Y292175D02*
X89395Y292248D01*
X89389Y292101D02*
X89392Y292175D01*
X89386Y292027D02*
X89389Y292101D01*
X89382Y291952D02*
X89386Y292027D01*
X89378Y291877D02*
X89382Y291952D01*
X89373Y291801D02*
X89378Y291877D01*
X89368Y291725D02*
X89373Y291801D01*
X89363Y291648D02*
X89368Y291725D01*
X89357Y291570D02*
X89363Y291648D01*
X89351Y291492D02*
X89357Y291570D01*
X89344Y291413D02*
X89351Y291492D01*
X89337Y291334D02*
X89344Y291413D01*
X89329Y291254D02*
X89337Y291334D01*
X89321Y291174D02*
X89329Y291254D01*
X89312Y291092D02*
X89321Y291174D01*
X89303Y291011D02*
X89312Y291092D01*
X89294Y290929D02*
X89303Y291011D01*
X89284Y290846D02*
X89294Y290929D01*
X89274Y290763D02*
X89284Y290846D01*
X89263Y290679D02*
X89274Y290763D01*
X89252Y290594D02*
X89263Y290679D01*
X89240Y290509D02*
X89252Y290594D01*
X89228Y290424D02*
X89240Y290509D01*
X89216Y290338D02*
X89228Y290424D01*
X89203Y290251D02*
X89216Y290338D01*
X89190Y290164D02*
X89203Y290251D01*
X89176Y290076D02*
X89190Y290164D01*
X89162Y289987D02*
X89176Y290076D01*
X89148Y289899D02*
X89162Y289987D01*
X89133Y289809D02*
X89148Y289899D01*
X89118Y289719D02*
X89133Y289809D01*
X89102Y289629D02*
X89118Y289719D01*
X89086Y289537D02*
X89102Y289629D01*
X89069Y289446D02*
X89086Y289537D01*
X89053Y289353D02*
X89069Y289446D01*
X89035Y289260D02*
X89053Y289353D01*
X89017Y289167D02*
X89035Y289260D01*
X88999Y289073D02*
X89017Y289167D01*
X88981Y288979D02*
X88999Y289073D01*
X88962Y288884D02*
X88981Y288979D01*
X88942Y288788D02*
X88962Y288884D01*
X88923Y288692D02*
X88942Y288788D01*
X88902Y288595D02*
X88923Y288692D01*
X88882Y288498D02*
X88902Y288595D01*
X88861Y288400D02*
X88882Y288498D01*
X88839Y288302D02*
X88861Y288400D01*
X88818Y288203D02*
X88839Y288302D01*
X88795Y288103D02*
X88818Y288203D01*
X88773Y288003D02*
X88795Y288103D01*
X88750Y287903D02*
X88773Y288003D01*
X88726Y287802D02*
X88750Y287903D01*
X88702Y287700D02*
X88726Y287802D01*
X88678Y287598D02*
X88702Y287700D01*
X88654Y287495D02*
X88678Y287598D01*
X88629Y287392D02*
X88654Y287495D01*
X88603Y287288D02*
X88629Y287392D01*
X88578Y287184D02*
X88603Y287288D01*
X88551Y287079D02*
X88578Y287184D01*
X88525Y286974D02*
X88551Y287079D01*
X88498Y286867D02*
X88525Y286974D01*
X88471Y286761D02*
X88498Y286867D01*
X88443Y286654D02*
X88471Y286761D01*
X88415Y286546D02*
X88443Y286654D01*
X88386Y286438D02*
X88415Y286546D01*
X88357Y286330D02*
X88386Y286438D01*
X88328Y286220D02*
X88357Y286330D01*
X88298Y286111D02*
X88328Y286220D01*
X88268Y286000D02*
X88298Y286111D01*
X88238Y285890D02*
X88268Y286000D01*
X88207Y285778D02*
X88238Y285890D01*
X88176Y285666D02*
X88207Y285778D01*
X88145Y285554D02*
X88176Y285666D01*
X88113Y285441D02*
X88145Y285554D01*
X88080Y285328D02*
X88113Y285441D01*
X88048Y285214D02*
X88080Y285328D01*
X88015Y285099D02*
X88048Y285214D01*
X87981Y284984D02*
X88015Y285099D01*
X87947Y284869D02*
X87981Y284984D01*
X87913Y284752D02*
X87947Y284869D01*
X87879Y284636D02*
X87913Y284752D01*
X87844Y284519D02*
X87879Y284636D01*
X87809Y284401D02*
X87844Y284519D01*
X87773Y284283D02*
X87809Y284401D01*
X87737Y284164D02*
X87773Y284283D01*
X87701Y284045D02*
X87737Y284164D01*
X87664Y283925D02*
X87701Y284045D01*
X87627Y283805D02*
X87664Y283925D01*
X87589Y283684D02*
X87627Y283805D01*
X87551Y283562D02*
X87589Y283684D01*
X87513Y283441D02*
X87551Y283562D01*
X87475Y283318D02*
X87513Y283441D01*
X87436Y283195D02*
X87475Y283318D01*
X87397Y283072D02*
X87436Y283195D01*
X87357Y282948D02*
X87397Y283072D01*
X87317Y282823D02*
X87357Y282948D01*
X87277Y282698D02*
X87317Y282823D01*
X87236Y282573D02*
X87277Y282698D01*
X87195Y282447D02*
X87236Y282573D01*
X87153Y282320D02*
X87195Y282447D01*
X87112Y282193D02*
X87153Y282320D01*
X87069Y282066D02*
X87112Y282193D01*
X87027Y281938D02*
X87069Y282066D01*
X86984Y281809D02*
X87027Y281938D01*
X86941Y281680D02*
X86984Y281809D01*
X86897Y281551D02*
X86941Y281680D01*
X86854Y281420D02*
X86897Y281551D01*
X86809Y281290D02*
X86854Y281420D01*
X86765Y281159D02*
X86809Y281290D01*
X86720Y281027D02*
X86765Y281159D01*
X86675Y280895D02*
X86720Y281027D01*
X86629Y280762D02*
X86675Y280895D01*
X86583Y280629D02*
X86629Y280762D01*
X86537Y280496D02*
X86583Y280629D01*
X86490Y280361D02*
X86537Y280496D01*
X86443Y280227D02*
X86490Y280361D01*
X86396Y280092D02*
X86443Y280227D01*
X86348Y279956D02*
X86396Y280092D01*
X86300Y279820D02*
X86348Y279956D01*
X86252Y279683D02*
X86300Y279820D01*
X86204Y279546D02*
X86252Y279683D01*
X86155Y279408D02*
X86204Y279546D01*
X86105Y279270D02*
X86155Y279408D01*
X86056Y279131D02*
X86105Y279270D01*
X86006Y278992D02*
X86056Y279131D01*
X85955Y278852D02*
X86006Y278992D01*
X85905Y278712D02*
X85955Y278852D01*
X85854Y278572D02*
X85905Y278712D01*
X85803Y278431D02*
X85854Y278572D01*
X85751Y278289D02*
X85803Y278431D01*
X85699Y278147D02*
X85751Y278289D01*
X85647Y278004D02*
X85699Y278147D01*
X85594Y277861D02*
X85647Y278004D01*
X85541Y277717D02*
X85594Y277861D01*
X85488Y277573D02*
X85541Y277717D01*
X85435Y277429D02*
X85488Y277573D01*
X85381Y277283D02*
X85435Y277429D01*
X85326Y277138D02*
X85381Y277283D01*
X85272Y276992D02*
X85326Y277138D01*
X85217Y276845D02*
X85272Y276992D01*
X85162Y276698D02*
X85217Y276845D01*
X85106Y276551D02*
X85162Y276698D01*
X85051Y276402D02*
X85106Y276551D01*
X84995Y276254D02*
X85051Y276402D01*
X84938Y276105D02*
X84995Y276254D01*
X84882Y275955D02*
X84938Y276105D01*
X84825Y275805D02*
X84882Y275955D01*
X84767Y275655D02*
X84825Y275805D01*
X84710Y275504D02*
X84767Y275655D01*
X84651Y275353D02*
X84710Y275504D01*
X84593Y275201D02*
X84651Y275353D01*
X84535Y275048D02*
X84593Y275201D01*
X84476Y274895D02*
X84535Y275048D01*
X84417Y274742D02*
X84476Y274895D01*
X84357Y274588D02*
X84417Y274742D01*
X84297Y274434D02*
X84357Y274588D01*
X84237Y274279D02*
X84297Y274434D01*
X84177Y274124D02*
X84237Y274279D01*
X84116Y273968D02*
X84177Y274124D01*
X84055Y273812D02*
X84116Y273968D01*
X83994Y273655D02*
X84055Y273812D01*
X83932Y273498D02*
X83994Y273655D01*
X83870Y273341D02*
X83932Y273498D01*
X83808Y273182D02*
X83870Y273341D01*
X83746Y273024D02*
X83808Y273182D01*
X83683Y272865D02*
X83746Y273024D01*
X83620Y272705D02*
X83683Y272865D01*
X83556Y272545D02*
X83620Y272705D01*
X83493Y272385D02*
X83556Y272545D01*
X83429Y272224D02*
X83493Y272385D01*
X83365Y272062D02*
X83429Y272224D01*
X83300Y271901D02*
X83365Y272062D01*
X83235Y271738D02*
X83300Y271901D01*
X83170Y271575D02*
X83235Y271738D01*
X83105Y271412D02*
X83170Y271575D01*
X83039Y271248D02*
X83105Y271412D01*
X82973Y271084D02*
X83039Y271248D01*
X82907Y270919D02*
X82973Y271084D01*
X82840Y270754D02*
X82907Y270919D01*
X82774Y270589D02*
X82840Y270754D01*
X82706Y270423D02*
X82774Y270589D01*
X82639Y270256D02*
X82706Y270423D01*
X82572Y270089D02*
X82639Y270256D01*
X82503Y269922D02*
X82572Y270089D01*
X82435Y269754D02*
X82503Y269922D01*
X82367Y269585D02*
X82435Y269754D01*
X82298Y269417D02*
X82367Y269585D01*
X82229Y269247D02*
X82298Y269417D01*
X82160Y269078D02*
X82229Y269247D01*
X82090Y268907D02*
X82160Y269078D01*
X82020Y268737D02*
X82090Y268907D01*
X81950Y268566D02*
X82020Y268737D01*
X81880Y268394D02*
X81950Y268566D01*
X81809Y268222D02*
X81880Y268394D01*
X81738Y268050D02*
X81809Y268222D01*
X81667Y267877D02*
X81738Y268050D01*
X81596Y267704D02*
X81667Y267877D01*
X81524Y267530D02*
X81596Y267704D01*
X81452Y267355D02*
X81524Y267530D01*
X81380Y267181D02*
X81452Y267355D01*
X81307Y267005D02*
X81380Y267181D01*
X81234Y266830D02*
X81307Y267005D01*
X81161Y266654D02*
X81234Y266830D01*
X81088Y266477D02*
X81161Y266654D01*
X81014Y266300D02*
X81088Y266477D01*
X80941Y266123D02*
X81014Y266300D01*
X80866Y265945D02*
X80941Y266123D01*
X80792Y265767D02*
X80866Y265945D01*
X80718Y265588D02*
X80792Y265767D01*
X80643Y265409D02*
X80718Y265588D01*
X80568Y265229D02*
X80643Y265409D01*
X80492Y265049D02*
X80568Y265229D01*
X80417Y264869D02*
X80492Y265049D01*
X80341Y264688D02*
X80417Y264869D01*
X80265Y264507D02*
X80341Y264688D01*
X80188Y264325D02*
X80265Y264507D01*
X80112Y264142D02*
X80188Y264325D01*
X80035Y263960D02*
X80112Y264142D01*
X79958Y263776D02*
X80035Y263960D01*
X79880Y263593D02*
X79958Y263776D01*
X79803Y263409D02*
X79880Y263593D01*
X79725Y263225D02*
X79803Y263409D01*
X79647Y263040D02*
X79725Y263225D01*
X79569Y262854D02*
X79647Y263040D01*
X79490Y262669D02*
X79569Y262854D01*
X79411Y262482D02*
X79490Y262669D01*
X79332Y262296D02*
X79411Y262482D01*
X79253Y262109D02*
X79332Y262296D01*
X79173Y261921D02*
X79253Y262109D01*
X79094Y261733D02*
X79173Y261921D01*
X79014Y261545D02*
X79094Y261733D01*
X78934Y261356D02*
X79014Y261545D01*
X78853Y261167D02*
X78934Y261356D01*
X78772Y260977D02*
X78853Y261167D01*
X78691Y260787D02*
X78772Y260977D01*
X78610Y260597D02*
X78691Y260787D01*
X78529Y260406D02*
X78610Y260597D01*
X78447Y260215D02*
X78529Y260406D01*
X78365Y260023D02*
X78447Y260215D01*
X78283Y259831D02*
X78365Y260023D01*
X78201Y259638D02*
X78283Y259831D01*
X78118Y259445D02*
X78201Y259638D01*
X78036Y259252D02*
X78118Y259445D01*
X77953Y259058D02*
X78036Y259252D01*
X77870Y258863D02*
X77953Y259058D01*
X77786Y258669D02*
X77870Y258863D01*
X77702Y258474D02*
X77786Y258669D01*
X77619Y258278D02*
X77702Y258474D01*
X77535Y258082D02*
X77619Y258278D01*
X77450Y257886D02*
X77535Y258082D01*
X77366Y257689D02*
X77450Y257886D01*
X77281Y257492D02*
X77366Y257689D01*
X77196Y257294D02*
X77281Y257492D01*
X77111Y257096D02*
X77196Y257294D01*
X77026Y256898D02*
X77111Y257096D01*
X76940Y256699D02*
X77026Y256898D01*
X76854Y256500D02*
X76940Y256699D01*
X76768Y256300D02*
X76854Y256500D01*
X76682Y256100D02*
X76768Y256300D01*
X76595Y255899D02*
X76682Y256100D01*
X76509Y255698D02*
X76595Y255899D01*
X76422Y255497D02*
X76509Y255698D01*
X76335Y255295D02*
X76422Y255497D01*
X76248Y255093D02*
X76335Y255295D01*
X76160Y254890D02*
X76248Y255093D01*
X76072Y254687D02*
X76160Y254890D01*
X75985Y254484D02*
X76072Y254687D01*
X75896Y254280D02*
X75985Y254484D01*
X75808Y254076D02*
X75896Y254280D01*
X75720Y253871D02*
X75808Y254076D01*
X75631Y253666D02*
X75720Y253871D01*
X75542Y253461D02*
X75631Y253666D01*
X75453Y253255D02*
X75542Y253461D01*
X75364Y253049D02*
X75453Y253255D01*
X75274Y252842D02*
X75364Y253049D01*
X75185Y252636D02*
X75274Y252842D01*
X75095Y252428D02*
X75185Y252636D01*
X75005Y252220D02*
X75095Y252428D01*
X74914Y252012D02*
X75005Y252220D01*
X74824Y251803D02*
X74914Y252012D01*
X74733Y251594D02*
X74824Y251803D01*
X74642Y251385D02*
X74733Y251594D01*
X74551Y251175D02*
X74642Y251385D01*
X74460Y250965D02*
X74551Y251175D01*
X74369Y250754D02*
X74460Y250965D01*
X74277Y250543D02*
X74369Y250754D01*
X74185Y250332D02*
X74277Y250543D01*
X74094Y250120D02*
X74185Y250332D01*
X74001Y249908D02*
X74094Y250120D01*
X73909Y249696D02*
X74001Y249908D01*
X73817Y249483D02*
X73909Y249696D01*
X73724Y249269D02*
X73817Y249483D01*
X73631Y249056D02*
X73724Y249269D01*
X73538Y248842D02*
X73631Y249056D01*
X73445Y248627D02*
X73538Y248842D01*
X73351Y248412D02*
X73445Y248627D01*
X73258Y248197D02*
X73351Y248412D01*
X73164Y247981D02*
X73258Y248197D01*
X73070Y247765D02*
X73164Y247981D01*
X72976Y247549D02*
X73070Y247765D01*
X72882Y247332D02*
X72976Y247549D01*
X72787Y247115D02*
X72882Y247332D01*
X72693Y246897D02*
X72787Y247115D01*
X72598Y246679D02*
X72693Y246897D01*
X72503Y246461D02*
X72598Y246679D01*
X72408Y246242D02*
X72503Y246461D01*
X72312Y246023D02*
X72408Y246242D01*
X72217Y245804D02*
X72312Y246023D01*
X72121Y245584D02*
X72217Y245804D01*
X72026Y245363D02*
X72121Y245584D01*
X71930Y245143D02*
X72026Y245363D01*
X71833Y244922D02*
X71930Y245143D01*
X71737Y244701D02*
X71833Y244922D01*
X71641Y244479D02*
X71737Y244701D01*
X71544Y244257D02*
X71641Y244479D01*
X71447Y244034D02*
X71544Y244257D01*
X71351Y243811D02*
X71447Y244034D01*
X71253Y243588D02*
X71351Y243811D01*
X71156Y243364D02*
X71253Y243588D01*
X71059Y243140D02*
X71156Y243364D01*
X70961Y242916D02*
X71059Y243140D01*
X70864Y242691D02*
X70961Y242916D01*
X70766Y242466D02*
X70864Y242691D01*
X70668Y242241D02*
X70766Y242466D01*
X70570Y242015D02*
X70668Y242241D01*
X70471Y241789D02*
X70570Y242015D01*
X70373Y241562D02*
X70471Y241789D01*
X70274Y241335D02*
X70373Y241562D01*
X70175Y241108D02*
X70274Y241335D01*
X70077Y240880D02*
X70175Y241108D01*
X69977Y240652D02*
X70077Y240880D01*
X69878Y240424D02*
X69977Y240652D01*
X69779Y240195D02*
X69878Y240424D01*
X69679Y239966D02*
X69779Y240195D01*
X69580Y239736D02*
X69679Y239966D01*
X69480Y239506D02*
X69580Y239736D01*
X69380Y239276D02*
X69480Y239506D01*
X69280Y239046D02*
X69380Y239276D01*
X69180Y238815D02*
X69280Y239046D01*
X69080Y238583D02*
X69180Y238815D01*
X68979Y238352D02*
X69080Y238583D01*
X68879Y238120D02*
X68979Y238352D01*
X68778Y237887D02*
X68879Y238120D01*
X68677Y237655D02*
X68778Y237887D01*
X68576Y237421D02*
X68677Y237655D01*
X68475Y237188D02*
X68576Y237421D01*
X68374Y236954D02*
X68475Y237188D01*
X68272Y236720D02*
X68374Y236954D01*
X68171Y236486D02*
X68272Y236720D01*
X68069Y236251D02*
X68171Y236486D01*
X67967Y236016D02*
X68069Y236251D01*
X67866Y235780D02*
X67967Y236016D01*
X67764Y235544D02*
X67866Y235780D01*
X67661Y235308D02*
X67764Y235544D01*
X67559Y235071D02*
X67661Y235308D01*
X67457Y234834D02*
X67559Y235071D01*
X67354Y234597D02*
X67457Y234834D01*
X67251Y234359D02*
X67354Y234597D01*
X67149Y234121D02*
X67251Y234359D01*
X67046Y233883D02*
X67149Y234121D01*
X66943Y233644D02*
X67046Y233883D01*
X66840Y233405D02*
X66943Y233644D01*
X66737Y233166D02*
X66840Y233405D01*
X66633Y232926D02*
X66737Y233166D01*
X66530Y232686D02*
X66633Y232926D01*
X66426Y232446D02*
X66530Y232686D01*
X66322Y232205D02*
X66426Y232446D01*
X66219Y231964D02*
X66322Y232205D01*
X66115Y231722D02*
X66219Y231964D01*
X66011Y231481D02*
X66115Y231722D01*
X65907Y231239D02*
X66011Y231481D01*
X65802Y230996D02*
X65907Y231239D01*
X65698Y230753D02*
X65802Y230996D01*
X65593Y230510D02*
X65698Y230753D01*
X65489Y230267D02*
X65593Y230510D01*
X65384Y230023D02*
X65489Y230267D01*
X65279Y229779D02*
X65384Y230023D01*
X65175Y229534D02*
X65279Y229779D01*
X65070Y229290D02*
X65175Y229534D01*
X64964Y229044D02*
X65070Y229290D01*
X64859Y228799D02*
X64964Y229044D01*
X64754Y228553D02*
X64859Y228799D01*
X64648Y228307D02*
X64754Y228553D01*
X64543Y228061D02*
X64648Y228307D01*
X64437Y227814D02*
X64543Y228061D01*
X64226Y227319D02*
X64437Y227814D01*
X64014Y226823D02*
X64226Y227319D01*
X63802Y226326D02*
X64014Y226823D01*
X63589Y225828D02*
X63802Y226326D01*
X63376Y225328D02*
X63589Y225828D01*
X63163Y224827D02*
X63376Y225328D01*
X62950Y224324D02*
X63163Y224827D01*
X62735Y223821D02*
X62950Y224324D01*
X62521Y223316D02*
X62735Y223821D01*
X62307Y222810D02*
X62521Y223316D01*
X62092Y222302D02*
X62307Y222810D01*
X61876Y221793D02*
X62092Y222302D01*
X61661Y221283D02*
X61876Y221793D01*
X61445Y220772D02*
X61661Y221283D01*
X61229Y220260D02*
X61445Y220772D01*
X61013Y219746D02*
X61229Y220260D01*
X60796Y219231D02*
X61013Y219746D01*
X60579Y218715D02*
X60796Y219231D01*
X60362Y218197D02*
X60579Y218715D01*
X60144Y217679D02*
X60362Y218197D01*
X59927Y217159D02*
X60144Y217679D01*
X59709Y216638D02*
X59927Y217159D01*
X59491Y216116D02*
X59709Y216638D01*
X59272Y215592D02*
X59491Y216116D01*
X59054Y215068D02*
X59272Y215592D01*
X58835Y214542D02*
X59054Y215068D01*
X58616Y214015D02*
X58835Y214542D01*
X58397Y213487D02*
X58616Y214015D01*
X58178Y212957D02*
X58397Y213487D01*
X57958Y212427D02*
X58178Y212957D01*
X57738Y211895D02*
X57958Y212427D01*
X57409Y211095D02*
X57738Y211895D01*
X57078Y210293D02*
X57409Y211095D01*
X56748Y209488D02*
X57078Y210293D01*
X56417Y208681D02*
X56748Y209488D01*
X56086Y207871D02*
X56417Y208681D01*
X55755Y207059D02*
X56086Y207871D01*
X55423Y206244D02*
X55755Y207059D01*
X55092Y205426D02*
X55423Y206244D01*
X54760Y204606D02*
X55092Y205426D01*
X54428Y203784D02*
X54760Y204606D01*
X54096Y202959D02*
X54428Y203784D01*
X53763Y202132D02*
X54096Y202959D01*
X53431Y201303D02*
X53763Y202132D01*
X53098Y200471D02*
X53431Y201303D01*
X52766Y199636D02*
X53098Y200471D01*
X52434Y198800D02*
X52766Y199636D01*
X52101Y197961D02*
X52434Y198800D01*
X51769Y197120D02*
X52101Y197961D01*
X51437Y196276D02*
X51769Y197120D01*
X51105Y195430D02*
X51437Y196276D01*
X50773Y194582D02*
X51105Y195430D01*
X50441Y193732D02*
X50773Y194582D01*
X50109Y192879D02*
X50441Y193732D01*
X49777Y192025D02*
X50109Y192879D01*
X49336Y190882D02*
X49777Y192025D01*
X48894Y189735D02*
X49336Y190882D01*
X48454Y188584D02*
X48894Y189735D01*
X48013Y187430D02*
X48454Y188584D01*
X47574Y186272D02*
X48013Y187430D01*
X47135Y185110D02*
X47574Y186272D01*
X46697Y183944D02*
X47135Y185110D01*
X46259Y182775D02*
X46697Y183944D01*
X45823Y181603D02*
X46259Y182775D01*
X45387Y180427D02*
X45823Y181603D01*
X44953Y179247D02*
X45387Y180427D01*
X44519Y178064D02*
X44953Y179247D01*
X44086Y176878D02*
X44519Y178064D01*
X43655Y175688D02*
X44086Y176878D01*
X43225Y174495D02*
X43655Y175688D01*
X42796Y173299D02*
X43225Y174495D01*
X42368Y172099D02*
X42796Y173299D01*
X41942Y170897D02*
X42368Y172099D01*
X41517Y169691D02*
X41942Y170897D01*
X41094Y168482D02*
X41517Y169691D01*
X40672Y167270D02*
X41094Y168482D01*
X40251Y166055D02*
X40672Y167270D01*
X39833Y164837D02*
X40251Y166055D01*
X39416Y163617D02*
X39833Y164837D01*
X39001Y162393D02*
X39416Y163617D01*
X38587Y161166D02*
X39001Y162393D01*
X38176Y159937D02*
X38587Y161166D01*
X37767Y158705D02*
X38176Y159937D01*
X37359Y157470D02*
X37767Y158705D01*
X36954Y156232D02*
X37359Y157470D01*
X36550Y154992D02*
X36954Y156232D01*
X36149Y153750D02*
X36550Y154992D01*
X35750Y152504D02*
X36149Y153750D01*
X35354Y151256D02*
X35750Y152504D01*
X34959Y150006D02*
X35354Y151256D01*
X34567Y148753D02*
X34959Y150006D01*
X34178Y147498D02*
X34567Y148753D01*
X33791Y146241D02*
X34178Y147498D01*
X33407Y144981D02*
X33791Y146241D01*
X33025Y143719D02*
X33407Y144981D01*
X32646Y142455D02*
X33025Y143719D01*
X32270Y141188D02*
X32646Y142455D01*
X31897Y139920D02*
X32270Y141188D01*
X31526Y138649D02*
X31897Y139920D01*
X31159Y137376D02*
X31526Y138649D01*
X30794Y136102D02*
X31159Y137376D01*
X30432Y134825D02*
X30794Y136102D01*
X30074Y133546D02*
X30432Y134825D01*
X29718Y132266D02*
X30074Y133546D01*
X29366Y130983D02*
X29718Y132266D01*
X29017Y129699D02*
X29366Y130983D01*
X28672Y128413D02*
X29017Y129699D01*
X28330Y127126D02*
X28672Y128413D01*
X27991Y125836D02*
X28330Y127126D01*
X27656Y124545D02*
X27991Y125836D01*
X27324Y123253D02*
X27656Y124545D01*
X26996Y121959D02*
X27324Y123253D01*
X26671Y120663D02*
X26996Y121959D01*
X26351Y119366D02*
X26671Y120663D01*
X26034Y118067D02*
X26351Y119366D01*
X25721Y116767D02*
X26034Y118067D01*
X25412Y115466D02*
X25721Y116767D01*
X25106Y114163D02*
X25412Y115466D01*
X24805Y112859D02*
X25106Y114163D01*
X24508Y111554D02*
X24805Y112859D01*
X24215Y110248D02*
X24508Y111554D01*
X23927Y108941D02*
X24215Y110248D01*
X23642Y107632D02*
X23927Y108941D01*
X23362Y106322D02*
X23642Y107632D01*
X23086Y105012D02*
X23362Y106322D01*
X22815Y103700D02*
X23086Y105012D01*
X22548Y102388D02*
X22815Y103700D01*
X22285Y101074D02*
X22548Y102388D01*
X22027Y99760D02*
X22285Y101074D01*
X21774Y98445D02*
X22027Y99760D01*
X21526Y97129D02*
X21774Y98445D01*
X21282Y95812D02*
X21526Y97129D01*
X21043Y94495D02*
X21282Y95812D01*
X20809Y93177D02*
X21043Y94495D01*
X20580Y91859D02*
X20809Y93177D01*
X20356Y90539D02*
X20580Y91859D01*
X20137Y89220D02*
X20356Y90539D01*
X19923Y87900D02*
X20137Y89220D01*
X19714Y86579D02*
X19923Y87900D01*
X19511Y85258D02*
X19714Y86579D01*
X19313Y83937D02*
X19511Y85258D01*
X19120Y82615D02*
X19313Y83937D01*
X18932Y81293D02*
X19120Y82615D01*
X18750Y79971D02*
X18932Y81293D01*
X18574Y78649D02*
X18750Y79971D01*
X18403Y77327D02*
X18574Y78649D01*
X18238Y76004D02*
X18403Y77327D01*
X18078Y74681D02*
X18238Y76004D01*
X17924Y73359D02*
X18078Y74681D01*
X17776Y72036D02*
X17924Y73359D01*
X17634Y70713D02*
X17776Y72036D01*
X17498Y69391D02*
X17634Y70713D01*
X17367Y68069D02*
X17498Y69391D01*
X17243Y66746D02*
X17367Y68069D01*
X17125Y65425D02*
X17243Y66746D01*
X17013Y64103D02*
X17125Y65425D01*
X16907Y62781D02*
X17013Y64103D01*
X16807Y61460D02*
X16907Y62781D01*
X16714Y60140D02*
X16807Y61460D01*
X16627Y58820D02*
X16714Y60140D01*
X16547Y57500D02*
X16627Y58820D01*
X16473Y56181D02*
X16547Y57500D01*
X16406Y54862D02*
X16473Y56181D01*
X16345Y53544D02*
X16406Y54862D01*
X16291Y52227D02*
X16345Y53544D01*
X16243Y50910D02*
X16291Y52227D01*
X16203Y49594D02*
X16243Y50910D01*
X16169Y48279D02*
X16203Y49594D01*
X16137Y46636D02*
X16169Y48279D01*
X16132Y46308D02*
X16137Y46636D01*
X16123Y45327D02*
X16132Y46308D01*
X16122Y44351D02*
X16135Y43059D01*
X16163Y41776D01*
X16206Y40504D01*
X16263Y39241D01*
X16335Y37987D01*
X16422Y36744D01*
X16523Y35510D01*
X16639Y34286D01*
X16769Y33071D01*
X16912Y31866D01*
X17070Y30671D01*
X17241Y29486D01*
X17425Y28311D01*
X17675Y26855D01*
X17946Y25414D01*
X18237Y23989D01*
X18549Y22579D01*
X18880Y21184D01*
X90481Y-40966D02*
X91773Y-41076D01*
X93062Y-41162D01*
X94347Y-41227D01*
X95628Y-41269D02*
X96692Y-41286D01*
X97752Y-41288D01*
X98809Y-41274D01*
X99861Y-41245D01*
X100909Y-41199D01*
X101953Y-41138D01*
X102992Y-41061D01*
X103819Y-40989D01*
X104643Y-40906D01*
X105463Y-40813D01*
X106280Y-40710D01*
X107093Y-40597D01*
X107902Y-40473D01*
X108707Y-40340D01*
X109508Y-40197D01*
X110304Y-40043D01*
X111096Y-39880D01*
X111883Y-39706D01*
X112666Y-39522D01*
X113443Y-39328D01*
X114216Y-39125D01*
X114983Y-38910D01*
X115746Y-38686D01*
X116502Y-38452D01*
X117254Y-38207D01*
X117999Y-37953D01*
X118739Y-37688D01*
X119473Y-37413D01*
X120201Y-37128D01*
X120923Y-36833D01*
X121638Y-36528D01*
X122347Y-36212D01*
X123049Y-35887D01*
X123744Y-35551D01*
X124433Y-35205D01*
X125114Y-34849D01*
X125788Y-34483D01*
X126456Y-34107D01*
X127115Y-33720D01*
X127767Y-33324D01*
X128412Y-32917D01*
X146007Y-9499D02*
X146183Y-8892D01*
X146353Y-8279D01*
X146514Y-7661D01*
X146669Y-7036D01*
X146816Y-6406D01*
X146955Y-5771D01*
X147087Y-5129D01*
X147211Y-4482D01*
X147327Y-3828D01*
X147435Y-3170D01*
X147536Y-2505D01*
X147629Y-1834D01*
X147713Y-1158D01*
X147790Y-476D01*
X147837Y-18D01*
X147880Y443D01*
X147919Y906D01*
X147955Y1371D01*
X147987Y1840D01*
X148015Y2310D01*
X148040Y2784D01*
X148061Y3260D01*
X148078Y3739D01*
X148092Y4220D01*
X148101Y4703D01*
X148107Y5190D01*
X148110Y5678D01*
X148108Y6170D02*
X148110Y5678D01*
X148102Y6664D02*
X148108Y6170D01*
X148093Y7161D02*
X148102Y6664D01*
X148080Y7660D02*
X148093Y7161D01*
X148063Y8162D02*
X148080Y7660D01*
X148042Y8666D02*
X148063Y8162D01*
X148017Y9173D02*
X148042Y8666D01*
X147988Y9682D02*
X148017Y9173D01*
X147956Y10194D02*
X147988Y9682D01*
X147919Y10709D02*
X147956Y10194D01*
X147878Y11226D02*
X147919Y10709D01*
X147834Y11746D02*
X147878Y11226D01*
X147785Y12269D02*
X147834Y11746D01*
X147732Y12794D02*
X147785Y12269D01*
X147676Y13321D02*
X147732Y12794D01*
X147615Y13852D02*
X147676Y13321D01*
X147550Y14384D02*
X147615Y13852D01*
X147481Y14920D02*
X147550Y14384D01*
X147408Y15458D02*
X147481Y14920D01*
X147331Y15998D02*
X147408Y15458D01*
X147249Y16541D02*
X147331Y15998D01*
X147164Y17087D02*
X147249Y16541D01*
X147074Y17635D02*
X147164Y17087D01*
X146980Y18186D02*
X147074Y17635D01*
X146882Y18740D02*
X146980Y18186D01*
X146780Y19296D02*
X146882Y18740D01*
X146673Y19854D02*
X146780Y19296D01*
X146562Y20415D02*
X146673Y19854D01*
X146447Y20979D02*
X146562Y20415D01*
X146328Y21546D02*
X146447Y20979D01*
X146204Y22115D02*
X146328Y21546D01*
X146076Y22686D02*
X146204Y22115D01*
X145943Y23260D02*
X146076Y22686D01*
X145807Y23837D02*
X145943Y23260D01*
X145665Y24417D02*
X145807Y23837D01*
X145520Y24999D02*
X145665Y24417D01*
X145370Y25583D02*
X145520Y24999D01*
X145215Y26170D02*
X145370Y25583D01*
X145057Y26760D02*
X145215Y26170D01*
X144893Y27352D02*
X145057Y26760D01*
X144640Y28246D02*
X144893Y27352D01*
X144600Y28386D02*
X144640Y28246D01*
X144560Y28527D02*
X144600Y28386D01*
X144520Y28669D02*
X144560Y28527D01*
X144481Y28811D02*
X144520Y28669D01*
X144442Y28954D02*
X144481Y28811D01*
X144404Y29097D02*
X144442Y28954D01*
X144366Y29241D02*
X144404Y29097D01*
X144328Y29386D02*
X144366Y29241D01*
X144291Y29531D02*
X144328Y29386D01*
X144254Y29676D02*
X144291Y29531D01*
X144217Y29822D02*
X144254Y29676D01*
X144181Y29969D02*
X144217Y29822D01*
X144145Y30116D02*
X144181Y29969D01*
X144110Y30264D02*
X144145Y30116D01*
X144075Y30412D02*
X144110Y30264D01*
X144040Y30561D02*
X144075Y30412D01*
X144006Y30710D02*
X144040Y30561D01*
X143972Y30860D02*
X144006Y30710D01*
X143938Y31010D02*
X143972Y30860D01*
X143905Y31161D02*
X143938Y31010D01*
X143872Y31313D02*
X143905Y31161D01*
X143839Y31465D02*
X143872Y31313D01*
X143807Y31617D02*
X143839Y31465D01*
X143775Y31771D02*
X143807Y31617D01*
X143744Y31924D02*
X143775Y31771D01*
X143682Y32233D02*
X143744Y31924D01*
X143622Y32544D02*
X143682Y32233D01*
X143563Y32857D02*
X143622Y32544D01*
X143505Y33173D02*
X143563Y32857D01*
X143449Y33490D02*
X143505Y33173D01*
X143394Y33810D02*
X143449Y33490D01*
X143341Y34131D02*
X143394Y33810D01*
X143289Y34455D02*
X143341Y34131D01*
X143239Y34781D02*
X143289Y34455D01*
X143190Y35109D02*
X143239Y34781D01*
X143142Y35439D02*
X143190Y35109D01*
X143096Y35771D02*
X143142Y35439D01*
X143051Y36105D02*
X143096Y35771D01*
X143008Y36441D02*
X143051Y36105D01*
X142966Y36779D02*
X143008Y36441D01*
X142925Y37119D02*
X142966Y36779D01*
X142886Y37461D02*
X142925Y37119D01*
X142849Y37806D02*
X142886Y37461D01*
X142812Y38152D02*
X142849Y37806D01*
X142777Y38500D02*
X142812Y38152D01*
X142743Y38851D02*
X142777Y38500D01*
X142711Y39203D02*
X142743Y38851D01*
X142680Y39557D02*
X142711Y39203D01*
X142651Y39913D02*
X142680Y39557D01*
X142622Y40271D02*
X142651Y39913D01*
X142596Y40632D02*
X142622Y40271D01*
X142570Y40994D02*
X142596Y40632D01*
X142546Y41358D02*
X142570Y40994D01*
X142523Y41724D02*
X142546Y41358D01*
X142502Y42092D02*
X142523Y41724D01*
X142482Y42462D02*
X142502Y42092D01*
X142463Y42834D02*
X142482Y42462D01*
X142446Y43207D02*
X142463Y42834D01*
X142429Y43583D02*
X142446Y43207D01*
X142415Y43960D02*
X142429Y43583D01*
X142401Y44340D02*
X142415Y43960D01*
X142389Y44721D02*
X142401Y44340D01*
X142378Y45104D02*
X142389Y44721D01*
X142369Y45489D02*
X142378Y45104D01*
X142361Y45876D02*
X142369Y45489D01*
X142354Y46265D02*
X142361Y45876D01*
X142348Y46656D02*
X142354Y46265D01*
X142344Y47048D02*
X142348Y46656D01*
X142341Y47443D02*
X142344Y47048D01*
X142339Y47839D02*
X142341Y47443D01*
X142339Y48237D02*
X142340Y48637D01*
X142342Y49038D01*
X142345Y49442D01*
X142350Y49847D01*
X142356Y50254D01*
X142363Y50662D01*
X142372Y51073D01*
X142382Y51485D01*
X142393Y51899D01*
X142405Y52315D01*
X142419Y52733D01*
X142434Y53152D01*
X142450Y53573D01*
X142467Y53996D01*
X142485Y54420D01*
X142505Y54847D01*
X142526Y55274D01*
X142549Y55704D01*
X142572Y56135D01*
X142597Y56568D01*
X142622Y57003D01*
X142650Y57439D01*
X142678Y57877D01*
X142707Y58317D01*
X142738Y58758D01*
X142770Y59201D01*
X142803Y59645D01*
X142838Y60092D01*
X142873Y60539D01*
X142910Y60989D01*
X142948Y61440D01*
X142987Y61892D01*
X143027Y62346D01*
X143068Y62802D01*
X143111Y63259D01*
X143155Y63718D01*
X143199Y64179D01*
X143245Y64641D01*
X143293Y65104D01*
X143341Y65569D01*
X143391Y66036D01*
X143441Y66504D01*
X143493Y66974D01*
X143546Y67445D01*
X143600Y67917D01*
X143655Y68392D01*
X143711Y68867D01*
X143769Y69344D01*
X143827Y69823D01*
X143887Y70303D01*
X143948Y70785D01*
X144010Y71268D01*
X144073Y71752D01*
X144137Y72238D01*
X144202Y72725D01*
X144268Y73214D01*
X144336Y73704D01*
X144404Y74196D01*
X144474Y74689D01*
X144544Y75183D01*
X144616Y75679D01*
X144689Y76176D01*
X144763Y76674D01*
X144838Y77174D01*
X144914Y77675D01*
X144991Y78178D01*
X145069Y78682D01*
X145148Y79187D01*
X145228Y79694D01*
X145310Y80202D01*
X145392Y80711D01*
X145475Y81222D01*
X145560Y81734D01*
X145645Y82247D01*
X145731Y82761D01*
X145819Y83277D01*
X145907Y83794D01*
X145997Y84312D01*
X146088Y84832D01*
X146179Y85353D01*
X146272Y85875D01*
X146365Y86398D01*
X146460Y86923D01*
X146555Y87448D01*
X146652Y87975D01*
X146749Y88503D01*
X146848Y89033D01*
X146948Y89564D01*
X147048Y90095D01*
X147149Y90628D01*
X147252Y91163D01*
X147355Y91698D01*
X147460Y92234D01*
X147565Y92772D01*
X147725Y93581D01*
X147887Y94392D01*
X148051Y95205D01*
X148217Y96022D01*
X148386Y96840D01*
X148556Y97662D01*
X148729Y98485D01*
X148903Y99311D01*
X149080Y100140D01*
X149259Y100970D01*
X149440Y101804D01*
X149622Y102639D01*
X149807Y103477D01*
X149994Y104317D01*
X150183Y105159D01*
X150374Y106003D01*
X150566Y106850D01*
X150761Y107699D01*
X150958Y108550D01*
X151157Y109403D01*
X151357Y110259D01*
X151560Y111116D01*
X151764Y111975D01*
X151971Y112837D01*
X152179Y113700D01*
X152389Y114566D01*
X152601Y115433D01*
X152814Y116302D01*
X153030Y117174D01*
X153247Y118047D01*
X153467Y118922D01*
X153688Y119799D01*
X153910Y120677D01*
X154135Y121558D01*
X154361Y122440D01*
X154589Y123324D01*
X154819Y124210D01*
X155051Y125097D01*
X155284Y125986D01*
X155519Y126877D01*
X155756Y127769D01*
X155994Y128663D01*
X156234Y129559D01*
X156476Y130456D01*
X156719Y131354D01*
X156964Y132255D01*
X157211Y133156D01*
X157459Y134059D01*
X157709Y134964D01*
X158044Y136172D01*
X158383Y137382D01*
X158724Y138595D01*
X159068Y139811D01*
X159414Y141028D01*
X159763Y142248D01*
X160115Y143470D01*
X160470Y144695D01*
X160827Y145921D01*
X161187Y147149D01*
X161549Y148379D01*
X161914Y149611D01*
X162281Y150845D01*
X162651Y152081D01*
X163023Y153318D01*
X163397Y154557D01*
X163774Y155798D01*
X164154Y157040D01*
X164535Y158283D01*
X164919Y159528D01*
X165305Y160775D01*
X165791Y162335D01*
X166280Y163896D01*
X166773Y165460D01*
X167269Y167025D01*
X167769Y168592D01*
X168271Y170161D01*
X168777Y171731D01*
X169286Y173302D01*
X169798Y174874D01*
X170312Y176448D01*
X170934Y178337D01*
X171560Y180227D01*
X172190Y182119D01*
X172825Y184011D01*
X173462Y185904D01*
X174104Y187797D01*
X174858Y190006D01*
X175616Y192215D01*
X176379Y194424D01*
X177257Y196947D01*
X178140Y199469D01*
X179140Y202305D01*
X180148Y205137D01*
X181274Y208280D01*
X182522Y211732D01*
X184008Y215801D01*
X185735Y220481D01*
X196084Y247448D02*
X198468Y253420D01*
X200140Y257558D01*
X201573Y261075D01*
X202768Y263983D01*
X203843Y266582D01*
X204798Y268877D01*
X205752Y271158D01*
X206586Y273141D01*
X207419Y275112D01*
X208132Y276792D01*
X208845Y278462D01*
X209556Y280124D01*
X210266Y281776D01*
X210858Y283145D01*
X211448Y284507D01*
X212037Y285862D01*
X212626Y287210D01*
X213213Y288551D01*
X213799Y289885D01*
X214268Y290947D01*
X214735Y292004D01*
X215202Y293056D01*
X215668Y294103D01*
X216133Y295145D01*
X216597Y296182D01*
X217061Y297214D01*
X217523Y298240D01*
X218100Y299517D01*
X218782Y301044D01*
X219881Y303589D01*
X220932Y306135D01*
X137105Y500271D02*
X138017Y499930D01*
X59512Y509245D02*
X62403Y509563D01*
X56641Y508882D02*
X59512Y509245D01*
X53790Y508476D02*
X56641Y508882D01*
X50962Y508029D02*
X53790Y508476D01*
X48155Y507540D02*
X50962Y508029D01*
X45371Y507012D02*
X48155Y507540D01*
X42610Y506446D02*
X45371Y507012D01*
X39679Y505799D02*
X42610Y506446D01*
X36776Y505111D02*
X39679Y505799D01*
X33902Y504384D02*
X36776Y505111D01*
X30869Y503567D02*
X33902Y504384D01*
X27872Y502708D02*
X30869Y503567D01*
X24726Y501754D02*
X27872Y502708D01*
X21440Y500698D02*
X24726Y501754D01*
X-15862Y484231D02*
X-13434Y485573D01*
X-17818Y483120D02*
X-15862Y484231D01*
X-19463Y482163D02*
X-17818Y483120D01*
X-20944Y481284D02*
X-19463Y482163D01*
X-22269Y480483D02*
X-20944Y481284D01*
X-23443Y479761D02*
X-22269Y480483D01*
X-24473Y479119D02*
X-23443Y479761D01*
X-25488Y478477D02*
X-24473Y479119D01*
X-26365Y477915D02*
X-25488Y478477D01*
X-27231Y477354D02*
X-26365Y477915D01*
X-28087Y476793D02*
X-27231Y477354D01*
X-28812Y476313D02*
X-28087Y476793D01*
X-29528Y475833D02*
X-28812Y476313D01*
X-30237Y475354D02*
X-29528Y475833D01*
X-30937Y474875D02*
X-30237Y475354D01*
X-31515Y474477D02*
X-30937Y474875D01*
X-32086Y474080D02*
X-31515Y474477D01*
X-32652Y473683D02*
X-32086Y474080D01*
X-33213Y473287D02*
X-32652Y473683D01*
X-33767Y472891D02*
X-33213Y473287D01*
X-34315Y472497D02*
X-33767Y472891D01*
X-34750Y472182D02*
X-34315Y472497D01*
X-35181Y471868D02*
X-34750Y472182D01*
X-35608Y471554D02*
X-35181Y471868D01*
X-36031Y471241D02*
X-35608Y471554D01*
X-36450Y470929D02*
X-36031Y471241D01*
X-36866Y470617D02*
X-36450Y470929D01*
X-37278Y470307D02*
X-36866Y470617D01*
X-37686Y469997D02*
X-37278Y470307D01*
X-38090Y469688D02*
X-37686Y469997D01*
X-38490Y469379D02*
X-38090Y469688D01*
X-38886Y469072D02*
X-38490Y469379D01*
X-39181Y468842D02*
X-38886Y469072D01*
X-39473Y468612D02*
X-39181Y468842D01*
X-39763Y468383D02*
X-39473Y468612D01*
X-40051Y468155D02*
X-39763Y468383D01*
X-40337Y467927D02*
X-40051Y468155D01*
X-40620Y467700D02*
X-40337Y467927D01*
X-40902Y467473D02*
X-40620Y467700D01*
X-41273Y467172D02*
X-40902Y467473D01*
X-41550Y466947D02*
X-41273Y467172D01*
X-41824Y466723D02*
X-41550Y466947D01*
X-42006Y466574D02*
X-41824Y466723D01*
X-42188Y466426D02*
X-42006Y466574D01*
X-42368Y466278D02*
X-42188Y466426D01*
X-42548Y466130D02*
X-42368Y466278D01*
X-42728Y465983D02*
X-42548Y466130D01*
X-42906Y465836D02*
X-42728Y465983D01*
X-43084Y465690D02*
X-42906Y465836D01*
X-43261Y465544D02*
X-43084Y465690D01*
X-43438Y465398D02*
X-43261Y465544D01*
X-43614Y465253D02*
X-43438Y465398D01*
X-43789Y465108D02*
X-43614Y465253D01*
X-43963Y464964D02*
X-43789Y465108D01*
X-44137Y464820D02*
X-43963Y464964D01*
X-44310Y464677D02*
X-44137Y464820D01*
X-44482Y464534D02*
X-44310Y464677D01*
X-44654Y464391D02*
X-44482Y464534D01*
X-44826Y464249D02*
X-44654Y464391D01*
X-44911Y464178D02*
X-44826Y464249D01*
X-44996Y464108D02*
X-44911Y464178D01*
X-45081Y464037D02*
X-44996Y464108D01*
X-45166Y463966D02*
X-45081Y464037D01*
X-45251Y463896D02*
X-45166Y463966D01*
X-45335Y463825D02*
X-45251Y463896D01*
X-45419Y463755D02*
X-45335Y463825D01*
X-45504Y463685D02*
X-45419Y463755D01*
X-45588Y463615D02*
X-45504Y463685D01*
X-45672Y463545D02*
X-45588Y463615D01*
X-45755Y463475D02*
X-45672Y463545D01*
X-45839Y463405D02*
X-45755Y463475D01*
X-45923Y463335D02*
X-45839Y463405D01*
X-46006Y463266D02*
X-45923Y463335D01*
X-46089Y463196D02*
X-46006Y463266D01*
X-46172Y463127D02*
X-46089Y463196D01*
X-46255Y463057D02*
X-46172Y463127D01*
X-46338Y462988D02*
X-46255Y463057D01*
X-46420Y462919D02*
X-46338Y462988D01*
X-46503Y462850D02*
X-46420Y462919D01*
X-46585Y462781D02*
X-46503Y462850D01*
X-46667Y462712D02*
X-46585Y462781D01*
X-46749Y462644D02*
X-46667Y462712D01*
X-46831Y462575D02*
X-46749Y462644D01*
X-46913Y462506D02*
X-46831Y462575D01*
X-46994Y462438D02*
X-46913Y462506D01*
X-47076Y462370D02*
X-46994Y462438D01*
X-47157Y462302D02*
X-47076Y462370D01*
X-47238Y462233D02*
X-47157Y462302D01*
X-47319Y462165D02*
X-47238Y462233D01*
X-47400Y462098D02*
X-47319Y462165D01*
X-47480Y462030D02*
X-47400Y462098D01*
X-47561Y461962D02*
X-47480Y462030D01*
X-47642Y461895D02*
X-47561Y461962D01*
X-47722Y461827D02*
X-47642Y461895D01*
X-47802Y461760D02*
X-47722Y461827D01*
X-47882Y461692D02*
X-47802Y461760D01*
X-47962Y461625D02*
X-47882Y461692D01*
X-48042Y461558D02*
X-47962Y461625D01*
X-48121Y461491D02*
X-48042Y461558D01*
X-48201Y461424D02*
X-48121Y461491D01*
X-48280Y461357D02*
X-48201Y461424D01*
X-48359Y461291D02*
X-48280Y461357D01*
X-48438Y461224D02*
X-48359Y461291D01*
X-48517Y461158D02*
X-48438Y461224D01*
X-48596Y461091D02*
X-48517Y461158D01*
X-48675Y461025D02*
X-48596Y461091D01*
X-48753Y460959D02*
X-48675Y461025D01*
X-48832Y460893D02*
X-48753Y460959D01*
X-48910Y460826D02*
X-48832Y460893D01*
X-48988Y460761D02*
X-48910Y460826D01*
X-49066Y460695D02*
X-48988Y460761D01*
X-49144Y460629D02*
X-49066Y460695D01*
X-49222Y460564D02*
X-49144Y460629D01*
X-49300Y460498D02*
X-49222Y460564D01*
X-49377Y460432D02*
X-49300Y460498D01*
X-49455Y460367D02*
X-49377Y460432D01*
X-49532Y460302D02*
X-49455Y460367D01*
X-49609Y460237D02*
X-49532Y460302D01*
X-49686Y460172D02*
X-49609Y460237D01*
X-49763Y460107D02*
X-49686Y460172D01*
X-49840Y460042D02*
X-49763Y460107D01*
X-49917Y459977D02*
X-49840Y460042D01*
X-49993Y459913D02*
X-49917Y459977D01*
X-50070Y459848D02*
X-49993Y459913D01*
X-50146Y459784D02*
X-50070Y459848D01*
X-50222Y459719D02*
X-50146Y459784D01*
X-50299Y459655D02*
X-50222Y459719D01*
X-50375Y459591D02*
X-50299Y459655D01*
X-50450Y459527D02*
X-50375Y459591D01*
X-50526Y459463D02*
X-50450Y459527D01*
X-50602Y459399D02*
X-50526Y459463D01*
X-50678Y459335D02*
X-50602Y459399D01*
X-50753Y459271D02*
X-50678Y459335D01*
X-50828Y459208D02*
X-50753Y459271D01*
X-50903Y459144D02*
X-50828Y459208D01*
X-50979Y459081D02*
X-50903Y459144D01*
X-51054Y459018D02*
X-50979Y459081D01*
X-51129Y458954D02*
X-51054Y459018D01*
X-51203Y458891D02*
X-51129Y458954D01*
X-51278Y458828D02*
X-51203Y458891D01*
X-51353Y458765D02*
X-51278Y458828D01*
X-51427Y458702D02*
X-51353Y458765D01*
X-51502Y458640D02*
X-51427Y458702D01*
X-51576Y458577D02*
X-51502Y458640D01*
X-51650Y458514D02*
X-51576Y458577D01*
X-51724Y458452D02*
X-51650Y458514D01*
X-51798Y458390D02*
X-51724Y458452D01*
X-51872Y458327D02*
X-51798Y458390D01*
X-51946Y458265D02*
X-51872Y458327D01*
X-52019Y458203D02*
X-51946Y458265D01*
X-52093Y458141D02*
X-52019Y458203D01*
X-52166Y458079D02*
X-52093Y458141D01*
X-52240Y458017D02*
X-52166Y458079D01*
X-52313Y457956D02*
X-52240Y458017D01*
X-52386Y457894D02*
X-52313Y457956D01*
X-52459Y457832D02*
X-52386Y457894D01*
X-52532Y457771D02*
X-52459Y457832D01*
X-52605Y457710D02*
X-52532Y457771D01*
X-52678Y457649D02*
X-52605Y457710D01*
X-52750Y457587D02*
X-52678Y457649D01*
X-52823Y457526D02*
X-52750Y457587D01*
X-52896Y457465D02*
X-52823Y457526D01*
X-52968Y457405D02*
X-52896Y457465D01*
X-53040Y457344D02*
X-52968Y457405D01*
X-53113Y457283D02*
X-53040Y457344D01*
X-53185Y457222D02*
X-53113Y457283D01*
X-53257Y457162D02*
X-53185Y457222D01*
X-53329Y457101D02*
X-53257Y457162D01*
X-53401Y457041D02*
X-53329Y457101D01*
X-53473Y456981D02*
X-53401Y457041D01*
X-53544Y456921D02*
X-53473Y456981D01*
X-53616Y456861D02*
X-53544Y456921D01*
X-53687Y456801D02*
X-53616Y456861D01*
X-53759Y456741D02*
X-53687Y456801D01*
X-53830Y456681D02*
X-53759Y456741D01*
X-53902Y456622D02*
X-53830Y456681D01*
X-53973Y456562D02*
X-53902Y456622D01*
X-54044Y456502D02*
X-53973Y456562D01*
X-54115Y456443D02*
X-54044Y456502D01*
X-54186Y456384D02*
X-54115Y456443D01*
X-54257Y456324D02*
X-54186Y456384D01*
X-54328Y456265D02*
X-54257Y456324D01*
X-54398Y456206D02*
X-54328Y456265D01*
X-54469Y456147D02*
X-54398Y456206D01*
X-54540Y456088D02*
X-54469Y456147D01*
X-54610Y456030D02*
X-54540Y456088D01*
X-54681Y455971D02*
X-54610Y456030D01*
X-54751Y455912D02*
X-54681Y455971D01*
X-54821Y455854D02*
X-54751Y455912D01*
X-54892Y455795D02*
X-54821Y455854D01*
X-54962Y455737D02*
X-54892Y455795D01*
X-55032Y455679D02*
X-54962Y455737D01*
X-55102Y455621D02*
X-55032Y455679D01*
X-55172Y455563D02*
X-55102Y455621D01*
X-55242Y455505D02*
X-55172Y455563D01*
X-55311Y455447D02*
X-55242Y455505D01*
X-55381Y455389D02*
X-55311Y455447D01*
X-55451Y455331D02*
X-55381Y455389D01*
X-55520Y455274D02*
X-55451Y455331D01*
X-55590Y455216D02*
X-55520Y455274D01*
X-55659Y455159D02*
X-55590Y455216D01*
X-55729Y455101D02*
X-55659Y455159D01*
X-55798Y455044D02*
X-55729Y455101D01*
X-55867Y454987D02*
X-55798Y455044D01*
X-55936Y454930D02*
X-55867Y454987D01*
X-56006Y454873D02*
X-55936Y454930D01*
X-56075Y454816D02*
X-56006Y454873D01*
X-56144Y454759D02*
X-56075Y454816D01*
X-56213Y454703D02*
X-56144Y454759D01*
X-56282Y454646D02*
X-56213Y454703D01*
X-56350Y454589D02*
X-56282Y454646D01*
X-56419Y454533D02*
X-56350Y454589D01*
X-56488Y454476D02*
X-56419Y454533D01*
X-56557Y454420D02*
X-56488Y454476D01*
X-56625Y454364D02*
X-56557Y454420D01*
X-56694Y454308D02*
X-56625Y454364D01*
X-56762Y454252D02*
X-56694Y454308D01*
X-56831Y454196D02*
X-56762Y454252D01*
X-56899Y454140D02*
X-56831Y454196D01*
X-56967Y454084D02*
X-56899Y454140D01*
X-57036Y454029D02*
X-56967Y454084D01*
X-57104Y453973D02*
X-57036Y454029D01*
X-57172Y453918D02*
X-57104Y453973D01*
X-57240Y453862D02*
X-57172Y453918D01*
X-57308Y453807D02*
X-57240Y453862D01*
X-57376Y453752D02*
X-57308Y453807D01*
X-57444Y453696D02*
X-57376Y453752D01*
X-57512Y453641D02*
X-57444Y453696D01*
X-57580Y453586D02*
X-57512Y453641D01*
X-57648Y453531D02*
X-57580Y453586D01*
X-57716Y453476D02*
X-57648Y453531D01*
X-57784Y453422D02*
X-57716Y453476D01*
X-57851Y453367D02*
X-57784Y453422D01*
X-57919Y453313D02*
X-57851Y453367D01*
X-57987Y453258D02*
X-57919Y453313D01*
X-58054Y453204D02*
X-57987Y453258D01*
X-58122Y453149D02*
X-58054Y453204D01*
X-58189Y453095D02*
X-58122Y453149D01*
X-58257Y453041D02*
X-58189Y453095D01*
X-58324Y452987D02*
X-58257Y453041D01*
X-58391Y452933D02*
X-58324Y452987D01*
X-58459Y452879D02*
X-58391Y452933D01*
X-58526Y452825D02*
X-58459Y452879D01*
X-58593Y452772D02*
X-58526Y452825D01*
X-58661Y452718D02*
X-58593Y452772D01*
X-58728Y452664D02*
X-58661Y452718D01*
X-58795Y452611D02*
X-58728Y452664D01*
X-58862Y452558D02*
X-58795Y452611D01*
X-58929Y452504D02*
X-58862Y452558D01*
X-58996Y452451D02*
X-58929Y452504D01*
X-59063Y452398D02*
X-58996Y452451D01*
X-59197Y452292D02*
X-59063Y452398D01*
X-59331Y452186D02*
X-59197Y452292D01*
X-59465Y452081D02*
X-59331Y452186D01*
X-59599Y451976D02*
X-59465Y452081D01*
X-59732Y451871D02*
X-59599Y451976D01*
X-59865Y451767D02*
X-59732Y451871D01*
X-59999Y451663D02*
X-59865Y451767D01*
X-60132Y451559D02*
X-59999Y451663D01*
X-60265Y451456D02*
X-60132Y451559D01*
X-60398Y451353D02*
X-60265Y451456D01*
X-60531Y451250D02*
X-60398Y451353D01*
X-60664Y451148D02*
X-60531Y451250D01*
X-60797Y451046D02*
X-60664Y451148D01*
X-60930Y450944D02*
X-60797Y451046D01*
X-61063Y450842D02*
X-60930Y450944D01*
X-61195Y450741D02*
X-61063Y450842D01*
X-61328Y450640D02*
X-61195Y450741D01*
X-61461Y450540D02*
X-61328Y450640D01*
X-61594Y450440D02*
X-61461Y450540D01*
X-61726Y450340D02*
X-61594Y450440D01*
X-61859Y450241D02*
X-61726Y450340D01*
X-61991Y450141D02*
X-61859Y450241D01*
X-62124Y450042D02*
X-61991Y450141D01*
X-62256Y449944D02*
X-62124Y450042D01*
X-62389Y449846D02*
X-62256Y449944D01*
X-62522Y449748D02*
X-62389Y449846D01*
X-62654Y449650D02*
X-62522Y449748D01*
X-62787Y449553D02*
X-62654Y449650D01*
X-62919Y449456D02*
X-62787Y449553D01*
X-63052Y449359D02*
X-62919Y449456D01*
X-63185Y449263D02*
X-63052Y449359D01*
X-63318Y449167D02*
X-63185Y449263D01*
X-63450Y449071D02*
X-63318Y449167D01*
X-63583Y448976D02*
X-63450Y449071D01*
X-63716Y448880D02*
X-63583Y448976D01*
X-63849Y448786D02*
X-63716Y448880D01*
X-63982Y448691D02*
X-63849Y448786D01*
X-64115Y448597D02*
X-63982Y448691D01*
X-66462Y446996D02*
X-66259Y447130D01*
X-66665Y446863D02*
X-66462Y446996D01*
X-66937Y446687D02*
X-66665Y446863D01*
X-67209Y446512D02*
X-66937Y446687D01*
X-67482Y446338D02*
X-67209Y446512D01*
X-67756Y446165D02*
X-67482Y446338D01*
X-68031Y445993D02*
X-67756Y446165D01*
X-68376Y445780D02*
X-68031Y445993D01*
X-68723Y445568D02*
X-68376Y445780D01*
X-69141Y445317D02*
X-68723Y445568D01*
X-69561Y445068D02*
X-69141Y445317D01*
X-70126Y444739D02*
X-69561Y445068D01*
X-75009Y442190D02*
X-74240Y442558D01*
X-75634Y441899D02*
X-75009Y442190D01*
X-76187Y441648D02*
X-75634Y441899D01*
X-76666Y441435D02*
X-76187Y441648D01*
X-77151Y441224D02*
X-76666Y441435D01*
X-77558Y441049D02*
X-77151Y441224D01*
X-77969Y440877D02*
X-77558Y441049D01*
X-78384Y440705D02*
X-77969Y440877D01*
X-78719Y440569D02*
X-78384Y440705D01*
X-79056Y440434D02*
X-78719Y440569D01*
X-79395Y440300D02*
X-79056Y440434D01*
X-79737Y440166D02*
X-79395Y440300D01*
X-80082Y440034D02*
X-79737Y440166D01*
X-80429Y439902D02*
X-80082Y440034D01*
X-80779Y439771D02*
X-80429Y439902D01*
X-81132Y439641D02*
X-80779Y439771D01*
X-81398Y439544D02*
X-81132Y439641D01*
X-81666Y439447D02*
X-81398Y439544D01*
X-81935Y439352D02*
X-81666Y439447D01*
X-82206Y439256D02*
X-81935Y439352D01*
X-82479Y439161D02*
X-82206Y439256D01*
X-82753Y439066D02*
X-82479Y439161D01*
X-83029Y438972D02*
X-82753Y439066D01*
X-83307Y438878D02*
X-83029Y438972D01*
X-83587Y438785D02*
X-83307Y438878D01*
X-83868Y438692D02*
X-83587Y438785D01*
X-84150Y438600D02*
X-83868Y438692D01*
X-84435Y438508D02*
X-84150Y438600D01*
X-84722Y438416D02*
X-84435Y438508D01*
X-85010Y438325D02*
X-84722Y438416D01*
X-85300Y438235D02*
X-85010Y438325D01*
X-85592Y438144D02*
X-85300Y438235D01*
X-85885Y438055D02*
X-85592Y438144D01*
X-86181Y437965D02*
X-85885Y438055D01*
X-86478Y437877D02*
X-86181Y437965D01*
X-86778Y437788D02*
X-86478Y437877D01*
X-87079Y437700D02*
X-86778Y437788D01*
X-87382Y437612D02*
X-87079Y437700D01*
X-87687Y437525D02*
X-87382Y437612D01*
X-87994Y437438D02*
X-87687Y437525D01*
X-88303Y437352D02*
X-87994Y437438D01*
X-88614Y437266D02*
X-88303Y437352D01*
X-88927Y437180D02*
X-88614Y437266D01*
X-89137Y437123D02*
X-88927Y437180D01*
X-89348Y437067D02*
X-89137Y437123D01*
X-89560Y437010D02*
X-89348Y437067D01*
X-89772Y436954D02*
X-89560Y437010D01*
X-89986Y436898D02*
X-89772Y436954D01*
X-90200Y436842D02*
X-89986Y436898D01*
X-90416Y436786D02*
X-90200Y436842D01*
X-90632Y436730D02*
X-90416Y436786D01*
X-90850Y436675D02*
X-90632Y436730D01*
X-91068Y436620D02*
X-90850Y436675D01*
X-91287Y436564D02*
X-91068Y436620D01*
X-91507Y436509D02*
X-91287Y436564D01*
X-91729Y436455D02*
X-91507Y436509D01*
X-91951Y436400D02*
X-91729Y436455D01*
X-92174Y436346D02*
X-91951Y436400D01*
X-92398Y436291D02*
X-92174Y436346D01*
X-92623Y436237D02*
X-92398Y436291D01*
X-92849Y436183D02*
X-92623Y436237D01*
X-93076Y436129D02*
X-92849Y436183D01*
X-93305Y436076D02*
X-93076Y436129D01*
X-93534Y436022D02*
X-93305Y436076D01*
X-93764Y435969D02*
X-93534Y436022D01*
X-93995Y435916D02*
X-93764Y435969D01*
X-94227Y435863D02*
X-93995Y435916D01*
X-94461Y435810D02*
X-94227Y435863D01*
X-94695Y435757D02*
X-94461Y435810D01*
X-94931Y435705D02*
X-94695Y435757D01*
X-95167Y435652D02*
X-94931Y435705D01*
X-95404Y435600D02*
X-95167Y435652D01*
X-95643Y435548D02*
X-95404Y435600D01*
X-95883Y435496D02*
X-95643Y435548D01*
X-96123Y435445D02*
X-95883Y435496D01*
X-96365Y435393D02*
X-96123Y435445D01*
X-96608Y435342D02*
X-96365Y435393D01*
X-96852Y435290D02*
X-96608Y435342D01*
X-97097Y435239D02*
X-96852Y435290D01*
X-97343Y435188D02*
X-97097Y435239D01*
X-97591Y435137D02*
X-97343Y435188D01*
X-97839Y435087D02*
X-97591Y435137D01*
X-98089Y435036D02*
X-97839Y435087D01*
X-98339Y434986D02*
X-98089Y435036D01*
X-98591Y434935D02*
X-98339Y434986D01*
X-98844Y434885D02*
X-98591Y434935D01*
X-99098Y434835D02*
X-98844Y434885D01*
X-99353Y434785D02*
X-99098Y434835D01*
X-99609Y434736D02*
X-99353Y434785D01*
X-99867Y434686D02*
X-99609Y434736D01*
X-100125Y434637D02*
X-99867Y434686D01*
X-100385Y434587D02*
X-100125Y434637D01*
X-100646Y434538D02*
X-100385Y434587D01*
X-100908Y434489D02*
X-100646Y434538D01*
X-101172Y434441D02*
X-100908Y434489D01*
X-101436Y434392D02*
X-101172Y434441D01*
X-101702Y434343D02*
X-101436Y434392D01*
X-101969Y434295D02*
X-101702Y434343D01*
X-102237Y434246D02*
X-101969Y434295D01*
X-102506Y434198D02*
X-102237Y434246D01*
X-102777Y434150D02*
X-102506Y434198D01*
X-103049Y434102D02*
X-102777Y434150D01*
X-103322Y434054D02*
X-103049Y434102D01*
X-103596Y434007D02*
X-103322Y434054D01*
X-103871Y433959D02*
X-103596Y434007D01*
X-104148Y433912D02*
X-103871Y433959D01*
X-104426Y433864D02*
X-104148Y433912D01*
X-104705Y433817D02*
X-104426Y433864D01*
X-104986Y433770D02*
X-104705Y433817D01*
X-105268Y433723D02*
X-104986Y433770D01*
X-105551Y433676D02*
X-105268Y433723D01*
X-105835Y433630D02*
X-105551Y433676D01*
X-106120Y433583D02*
X-105835Y433630D01*
X-106407Y433537D02*
X-106120Y433583D01*
X-106695Y433491D02*
X-106407Y433537D01*
X-106985Y433444D02*
X-106695Y433491D01*
X-107275Y433398D02*
X-106985Y433444D01*
X-107568Y433352D02*
X-107275Y433398D01*
X-107861Y433307D02*
X-107568Y433352D01*
X-108156Y433261D02*
X-107861Y433307D01*
X-108451Y433215D02*
X-108156Y433261D01*
X-108749Y433170D02*
X-108451Y433215D01*
X-109047Y433124D02*
X-108749Y433170D01*
X-109347Y433079D02*
X-109047Y433124D01*
X-109649Y433034D02*
X-109347Y433079D01*
X-109951Y432989D02*
X-109649Y433034D01*
X-110255Y432944D02*
X-109951Y432989D01*
X-110561Y432899D02*
X-110255Y432944D01*
X-110868Y432854D02*
X-110561Y432899D01*
X-111176Y432810D02*
X-110868Y432854D01*
X-111485Y432765D02*
X-111176Y432810D01*
X-111796Y432721D02*
X-111485Y432765D01*
X-112108Y432677D02*
X-111796Y432721D01*
X-112422Y432632D02*
X-112108Y432677D01*
X-112737Y432588D02*
X-112422Y432632D01*
X-113054Y432544D02*
X-112737Y432588D01*
X-113371Y432500D02*
X-113054Y432544D01*
X-113691Y432457D02*
X-113371Y432500D01*
X-114011Y432413D02*
X-113691Y432457D01*
X-114333Y432369D02*
X-114011Y432413D01*
X-114657Y432326D02*
X-114333Y432369D01*
X-114982Y432283D02*
X-114657Y432326D01*
X-115308Y432239D02*
X-114982Y432283D01*
X-115636Y432196D02*
X-115308Y432239D01*
X-115966Y432153D02*
X-115636Y432196D01*
X-116297Y432110D02*
X-115966Y432153D01*
X-116629Y432067D02*
X-116297Y432110D01*
X-116963Y432024D02*
X-116629Y432067D01*
X-117298Y431982D02*
X-116963Y432024D01*
X-117634Y431939D02*
X-117298Y431982D01*
X-117973Y431896D02*
X-117634Y431939D01*
X-118312Y431854D02*
X-117973Y431896D01*
X-118653Y431812D02*
X-118312Y431854D01*
X-118996Y431769D02*
X-118653Y431812D01*
X-119340Y431727D02*
X-118996Y431769D01*
X-119686Y431685D02*
X-119340Y431727D01*
X-120033Y431643D02*
X-119686Y431685D01*
X-120382Y431601D02*
X-120033Y431643D01*
X-120732Y431559D02*
X-120382Y431601D01*
X-121083Y431518D02*
X-120732Y431559D01*
X-121437Y431476D02*
X-121083Y431518D01*
X-121792Y431434D02*
X-121437Y431476D01*
X-122148Y431393D02*
X-121792Y431434D01*
X-122506Y431352D02*
X-122148Y431393D01*
X-122865Y431310D02*
X-122506Y431352D01*
X-123226Y431269D02*
X-122865Y431310D01*
X-123589Y431228D02*
X-123226Y431269D01*
X-123953Y431187D02*
X-123589Y431228D01*
X-124319Y431146D02*
X-123953Y431187D01*
X-124686Y431105D02*
X-124319Y431146D01*
X-125055Y431064D02*
X-124686Y431105D01*
X-125426Y431023D02*
X-125055Y431064D01*
X-125798Y430982D02*
X-125426Y431023D01*
X-126172Y430941D02*
X-125798Y430982D01*
X-126547Y430901D02*
X-126172Y430941D01*
X-126924Y430860D02*
X-126547Y430901D01*
X-127303Y430820D02*
X-126924Y430860D01*
X-127683Y430780D02*
X-127303Y430820D01*
X-128065Y430739D02*
X-127683Y430780D01*
X-128448Y430699D02*
X-128065Y430739D01*
X-128834Y430659D02*
X-128448Y430699D01*
X-129220Y430619D02*
X-128834Y430659D01*
X-129609Y430579D02*
X-129220Y430619D01*
X-129999Y430539D02*
X-129609Y430579D01*
X-130391Y430499D02*
X-129999Y430539D01*
X-130784Y430459D02*
X-130391Y430499D01*
X-131179Y430419D02*
X-130784Y430459D01*
X-131576Y430379D02*
X-131179Y430419D01*
X-131975Y430340D02*
X-131576Y430379D01*
X-132375Y430300D02*
X-131975Y430340D01*
X-132777Y430261D02*
X-132375Y430300D01*
X-133180Y430221D02*
X-132777Y430261D01*
X-133586Y430182D02*
X-133180Y430221D01*
X-133993Y430142D02*
X-133586Y430182D01*
X-134402Y430103D02*
X-133993Y430142D01*
X-134812Y430064D02*
X-134402Y430103D01*
X-135224Y430024D02*
X-134812Y430064D01*
X-135638Y429985D02*
X-135224Y430024D01*
X-136054Y429946D02*
X-135638Y429985D01*
X-136471Y429907D02*
X-136054Y429946D01*
X-136890Y429868D02*
X-136471Y429907D01*
X-137311Y429829D02*
X-136890Y429868D01*
X-137734Y429790D02*
X-137311Y429829D01*
X-138159Y429751D02*
X-137734Y429790D01*
X-138585Y429712D02*
X-138159Y429751D01*
X-139013Y429674D02*
X-138585Y429712D01*
X-139443Y429635D02*
X-139013Y429674D01*
X-139874Y429596D02*
X-139443Y429635D01*
X-140308Y429558D02*
X-139874Y429596D01*
X-140743Y429519D02*
X-140308Y429558D01*
X-141180Y429480D02*
X-140743Y429519D01*
X-141619Y429442D02*
X-141180Y429480D01*
X-142059Y429403D02*
X-141619Y429442D01*
X-142502Y429365D02*
X-142059Y429403D01*
X-142946Y429326D02*
X-142502Y429365D01*
X-143392Y429288D02*
X-142946Y429326D01*
X-143840Y429250D02*
X-143392Y429288D01*
X-144290Y429212D02*
X-143840Y429250D01*
X-144742Y429173D02*
X-144290Y429212D01*
X-145195Y429135D02*
X-144742Y429173D01*
X-145650Y429097D02*
X-145195Y429135D01*
X-146108Y429059D02*
X-145650Y429097D01*
X-146567Y429021D02*
X-146108Y429059D01*
X-147028Y428982D02*
X-146567Y429021D01*
X-147491Y428944D02*
X-147028Y428982D01*
X-147955Y428906D02*
X-147491Y428944D01*
X-148422Y428868D02*
X-147955Y428906D01*
X-148890Y428830D02*
X-148422Y428868D01*
X-149361Y428792D02*
X-148890Y428830D01*
X-149833Y428755D02*
X-149361Y428792D01*
X-150307Y428717D02*
X-149833Y428755D01*
X-150784Y428679D02*
X-150307Y428717D01*
X-151262Y428641D02*
X-150784Y428679D01*
X-151982Y428584D02*
X-151262Y428641D01*
X-152944Y428505D02*
X-151982Y428584D01*
X-154138Y428398D02*
X-152944Y428505D01*
X-155324Y428279D02*
X-154138Y428398D01*
X-156501Y428151D02*
X-155324Y428279D01*
X-157670Y428013D02*
X-156501Y428151D01*
X-158832Y427864D02*
X-157670Y428013D01*
X-159985Y427706D02*
X-158832Y427864D01*
X-161130Y427538D02*
X-159985Y427706D01*
X-162267Y427360D02*
X-161130Y427538D01*
X-163620Y427133D02*
X-162267Y427360D01*
X-164963Y426893D02*
X-163620Y427133D01*
X-166293Y426639D02*
X-164963Y426893D01*
X-167613Y426371D02*
X-166293Y426639D01*
X-168921Y426089D02*
X-167613Y426371D01*
X-170433Y425744D02*
X-168921Y426089D01*
X-171930Y425380D02*
X-170433Y425744D01*
X-173411Y424999D02*
X-171930Y425380D01*
X-175086Y424541D02*
X-173411Y424999D01*
X-176741Y424061D02*
X-175086Y424541D01*
X-213549Y404319D02*
X-212203Y405421D01*
X-214730Y403324D02*
X-213549Y404319D01*
X-215895Y402313D02*
X-214730Y403324D01*
X-217045Y401288D02*
X-215895Y402313D01*
X-218039Y400379D02*
X-217045Y401288D01*
X-219021Y399459D02*
X-218039Y400379D01*
X-219992Y398529D02*
X-219021Y399459D01*
X-220951Y397587D02*
X-219992Y398529D01*
X-221764Y396773D02*
X-220951Y397587D01*
X-222569Y395950D02*
X-221764Y396773D01*
X-223366Y395120D02*
X-222569Y395950D01*
X-224155Y394283D02*
X-223366Y395120D01*
X-224936Y393439D02*
X-224155Y394283D01*
X-225708Y392588D02*
X-224936Y393439D01*
X-226473Y391729D02*
X-225708Y392588D01*
X-227230Y390864D02*
X-226473Y391729D01*
X-227979Y389993D02*
X-227230Y390864D01*
X-228598Y389261D02*
X-227979Y389993D01*
X-229211Y388526D02*
X-228598Y389261D01*
X-229819Y387785D02*
X-229211Y388526D01*
X-230421Y387041D02*
X-229819Y387785D01*
X-231018Y386292D02*
X-230421Y387041D01*
X-231610Y385539D02*
X-231018Y386292D01*
X-232197Y384782D02*
X-231610Y385539D01*
X-232779Y384020D02*
X-232197Y384782D01*
X-233356Y383255D02*
X-232779Y384020D01*
X-233927Y382486D02*
X-233356Y383255D01*
X-234494Y381712D02*
X-233927Y382486D01*
X-235056Y380936D02*
X-234494Y381712D01*
X-235612Y380155D02*
X-235056Y380936D01*
X-236164Y379370D02*
X-235612Y380155D01*
X-236711Y378583D02*
X-236164Y379370D01*
X-237253Y377791D02*
X-236711Y378583D01*
X-237790Y376996D02*
X-237253Y377791D01*
X-238322Y376198D02*
X-237790Y376996D01*
X-238850Y375396D02*
X-238322Y376198D01*
X-239373Y374591D02*
X-238850Y375396D01*
X-239891Y373783D02*
X-239373Y374591D01*
X-240405Y372972D02*
X-239891Y373783D01*
X-240914Y372158D02*
X-240405Y372972D01*
X-241418Y371340D02*
X-240914Y372158D01*
X-241818Y370685D02*
X-241418Y371340D01*
X-242216Y370027D02*
X-241818Y370685D01*
X-242610Y369367D02*
X-242216Y370027D01*
X-243002Y368706D02*
X-242610Y369367D01*
X-243391Y368043D02*
X-243002Y368706D01*
X-243777Y367378D02*
X-243391Y368043D01*
X-244160Y366712D02*
X-243777Y367378D01*
X-244541Y366044D02*
X-244160Y366712D01*
X-244918Y365374D02*
X-244541Y366044D01*
X-245293Y364703D02*
X-244918Y365374D01*
X-245665Y364030D02*
X-245293Y364703D01*
X-246035Y363356D02*
X-245665Y364030D01*
X-246402Y362681D02*
X-246035Y363356D01*
X-246766Y362004D02*
X-246402Y362681D01*
X-247127Y361325D02*
X-246766Y362004D01*
X-247486Y360645D02*
X-247127Y361325D01*
X-247842Y359964D02*
X-247486Y360645D01*
X-248196Y359282D02*
X-247842Y359964D01*
X-248547Y358598D02*
X-248196Y359282D01*
X-248895Y357914D02*
X-248547Y358598D01*
X-249241Y357228D02*
X-248895Y357914D01*
X-249585Y356541D02*
X-249241Y357228D01*
X-249925Y355852D02*
X-249585Y356541D01*
X-250264Y355163D02*
X-249925Y355852D01*
X-250600Y354473D02*
X-250264Y355163D01*
X-250933Y353782D02*
X-250600Y354473D01*
X-251264Y353089D02*
X-250933Y353782D01*
X-251592Y352396D02*
X-251264Y353089D01*
X-251919Y351702D02*
X-251592Y352396D01*
X-252242Y351007D02*
X-251919Y351702D01*
X-252564Y350311D02*
X-252242Y351007D01*
X-252883Y349615D02*
X-252564Y350311D01*
X-253199Y348918D02*
X-252883Y349615D01*
X-253514Y348220D02*
X-253199Y348918D01*
X-253826Y347521D02*
X-253514Y348220D01*
X-254136Y346822D02*
X-253826Y347521D01*
X-254443Y346122D02*
X-254136Y346822D01*
X-254748Y345421D02*
X-254443Y346122D01*
X-255051Y344720D02*
X-254748Y345421D01*
X-255352Y344018D02*
X-255051Y344720D01*
X-255651Y343316D02*
X-255352Y344018D01*
X-255947Y342614D02*
X-255651Y343316D01*
X-256242Y341911D02*
X-255947Y342614D01*
X-256534Y341208D02*
X-256242Y341911D01*
X-256824Y340504D02*
X-256534Y341208D01*
X-257112Y339800D02*
X-256824Y340504D01*
X-257398Y339096D02*
X-257112Y339800D01*
X-257681Y338392D02*
X-257398Y339096D01*
X-257963Y337687D02*
X-257681Y338392D01*
X-258243Y336982D02*
X-257963Y337687D01*
X-258521Y336277D02*
X-258243Y336982D01*
X-258796Y335572D02*
X-258521Y336277D01*
X-259070Y334867D02*
X-258796Y335572D01*
X-259342Y334162D02*
X-259070Y334867D01*
X-259544Y333633D02*
X-259342Y334162D01*
X-259746Y333105D02*
X-259544Y333633D01*
X-259946Y332576D02*
X-259746Y333105D01*
X-260145Y332047D02*
X-259946Y332576D01*
X-260343Y331519D02*
X-260145Y332047D01*
X-260541Y330990D02*
X-260343Y331519D01*
X-260737Y330462D02*
X-260541Y330990D01*
X-260932Y329933D02*
X-260737Y330462D01*
X-261126Y329405D02*
X-260932Y329933D01*
X-261319Y328877D02*
X-261126Y329405D01*
X-261511Y328349D02*
X-261319Y328877D01*
X-261702Y327821D02*
X-261511Y328349D01*
X-261892Y327294D02*
X-261702Y327821D01*
X-262081Y326766D02*
X-261892Y327294D01*
X-262269Y326239D02*
X-262081Y326766D01*
X-262456Y325712D02*
X-262269Y326239D01*
X-262642Y325186D02*
X-262456Y325712D01*
X-262827Y324659D02*
X-262642Y325186D01*
X-263011Y324133D02*
X-262827Y324659D01*
X-263194Y323607D02*
X-263011Y324133D01*
X-263376Y323082D02*
X-263194Y323607D01*
X-263558Y322557D02*
X-263376Y323082D01*
X-263738Y322032D02*
X-263558Y322557D01*
X-263917Y321507D02*
X-263738Y322032D01*
X-264096Y320983D02*
X-263917Y321507D01*
X-264273Y320459D02*
X-264096Y320983D01*
X-264450Y319936D02*
X-264273Y320459D01*
X-264626Y319413D02*
X-264450Y319936D01*
X-264801Y318890D02*
X-264626Y319413D01*
X-264975Y318368D02*
X-264801Y318890D01*
X-265148Y317846D02*
X-264975Y318368D01*
X-265320Y317325D02*
X-265148Y317846D01*
X-265492Y316804D02*
X-265320Y317325D01*
X-265662Y316284D02*
X-265492Y316804D01*
X-265832Y315764D02*
X-265662Y316284D01*
X-266001Y315245D02*
X-265832Y315764D01*
X-266169Y314726D02*
X-266001Y315245D01*
X-266281Y314380D02*
X-266169Y314726D01*
X-266392Y314035D02*
X-266281Y314380D01*
X-266503Y313690D02*
X-266392Y314035D01*
X-266614Y313345D02*
X-266503Y313690D01*
X-266724Y313001D02*
X-266614Y313345D01*
X-266834Y312656D02*
X-266724Y313001D01*
X-266943Y312313D02*
X-266834Y312656D01*
X-267052Y311969D02*
X-266943Y312313D01*
X-267161Y311625D02*
X-267052Y311969D01*
X-267270Y311282D02*
X-267161Y311625D01*
X-267378Y310940D02*
X-267270Y311282D01*
X-267485Y310597D02*
X-267378Y310940D01*
X-267593Y310255D02*
X-267485Y310597D01*
X-267700Y309913D02*
X-267593Y310255D01*
X-267807Y309571D02*
X-267700Y309913D01*
X-267913Y309230D02*
X-267807Y309571D01*
X-268019Y308889D02*
X-267913Y309230D01*
X-268125Y308548D02*
X-268019Y308889D01*
X-268231Y308208D02*
X-268125Y308548D01*
X-268336Y307868D02*
X-268231Y308208D01*
X-268441Y307528D02*
X-268336Y307868D01*
X-268545Y307189D02*
X-268441Y307528D01*
X-268649Y306850D02*
X-268545Y307189D01*
X-268753Y306511D02*
X-268649Y306850D01*
X-268857Y306172D02*
X-268753Y306511D01*
X-268960Y305835D02*
X-268857Y306172D01*
X-269063Y305497D02*
X-268960Y305835D01*
X-269166Y305160D02*
X-269063Y305497D01*
X-269268Y304823D02*
X-269166Y305160D01*
X-269370Y304486D02*
X-269268Y304823D01*
X-269472Y304150D02*
X-269370Y304486D01*
X-269573Y303814D02*
X-269472Y304150D01*
X-269674Y303479D02*
X-269573Y303814D01*
X-269775Y303144D02*
X-269674Y303479D01*
X-269876Y302809D02*
X-269775Y303144D01*
X-269976Y302475D02*
X-269876Y302809D01*
X-270076Y302141D02*
X-269976Y302475D01*
X-270176Y301808D02*
X-270076Y302141D01*
X-270276Y301475D02*
X-270176Y301808D01*
X-270375Y301142D02*
X-270276Y301475D01*
X-270474Y300810D02*
X-270375Y301142D01*
X-270523Y300644D02*
X-270474Y300810D01*
X-270572Y300478D02*
X-270523Y300644D01*
X-270622Y300313D02*
X-270572Y300478D01*
X-270671Y300147D02*
X-270622Y300313D01*
X-270720Y299982D02*
X-270671Y300147D01*
X-270769Y299816D02*
X-270720Y299982D01*
X-270818Y299651D02*
X-270769Y299816D01*
X-270867Y299486D02*
X-270818Y299651D01*
X-270916Y299321D02*
X-270867Y299486D01*
X-270964Y299156D02*
X-270916Y299321D01*
X-271013Y298991D02*
X-270964Y299156D01*
X-271062Y298826D02*
X-271013Y298991D01*
X-271110Y298662D02*
X-271062Y298826D01*
X-271159Y298497D02*
X-271110Y298662D01*
X-271207Y298333D02*
X-271159Y298497D01*
X-271256Y298168D02*
X-271207Y298333D01*
X-271304Y298004D02*
X-271256Y298168D01*
X-271352Y297840D02*
X-271304Y298004D01*
X-271400Y297676D02*
X-271352Y297840D01*
X-271448Y297513D02*
X-271400Y297676D01*
X-271497Y297349D02*
X-271448Y297513D01*
X-271545Y297185D02*
X-271497Y297349D01*
X-271592Y297022D02*
X-271545Y297185D01*
X-271640Y296859D02*
X-271592Y297022D01*
X-271688Y296695D02*
X-271640Y296859D01*
X-271736Y296532D02*
X-271688Y296695D01*
X-271784Y296369D02*
X-271736Y296532D01*
X-271831Y296206D02*
X-271784Y296369D01*
X-271879Y296044D02*
X-271831Y296206D01*
X-271926Y295881D02*
X-271879Y296044D01*
X-271974Y295719D02*
X-271926Y295881D01*
X-272021Y295556D02*
X-271974Y295719D01*
X-272069Y295394D02*
X-272021Y295556D01*
X-272116Y295232D02*
X-272069Y295394D01*
X-272163Y295070D02*
X-272116Y295232D01*
X-272210Y294908D02*
X-272163Y295070D01*
X-272257Y294746D02*
X-272210Y294908D01*
X-272304Y294584D02*
X-272257Y294746D01*
X-272351Y294423D02*
X-272304Y294584D01*
X-272398Y294262D02*
X-272351Y294423D01*
X-272445Y294100D02*
X-272398Y294262D01*
X-272492Y293939D02*
X-272445Y294100D01*
X-272539Y293778D02*
X-272492Y293939D01*
X-272632Y293457D02*
X-272539Y293778D01*
X-273138Y291691D02*
X-272632Y293457D01*
X-273849Y289128D02*
X-273138Y291691D01*
X-274532Y286573D02*
X-273849Y289128D01*
X-275227Y283868D02*
X-274532Y286573D01*
X-275890Y281173D02*
X-275227Y283868D01*
X-276559Y278331D02*
X-275890Y281173D01*
X-277230Y275348D02*
X-276559Y278331D01*
X-277895Y272225D02*
X-277230Y275348D01*
X-278582Y268814D02*
X-277895Y272225D01*
X-279278Y265125D02*
X-278582Y268814D01*
X-279997Y261016D02*
X-279278Y265125D01*
X-280786Y256060D02*
X-279997Y261016D01*
X-283761Y226960D02*
X-283558Y230361D01*
X-283889Y224398D02*
X-283761Y226960D01*
X-283979Y222258D02*
X-283889Y224398D01*
X-284044Y220399D02*
X-283979Y222258D01*
X-284091Y218811D02*
X-284044Y220399D01*
X-284125Y217365D02*
X-284091Y218811D01*
X-284150Y216056D02*
X-284125Y217365D01*
X-284168Y214880D02*
X-284150Y216056D01*
X-284180Y213718D02*
X-284168Y214880D01*
X-284187Y212683D02*
X-284180Y213718D01*
X-284190Y211660D02*
X-284187Y212683D01*
X-284189Y210761D02*
X-284186Y209871D01*
X-284180Y209099D01*
X-284173Y208335D01*
X-284163Y207578D01*
X-284151Y206828D01*
X-284139Y206192D01*
X-284126Y205561D01*
X-284111Y204935D01*
X-284095Y204315D01*
X-284077Y203701D01*
X-284061Y203193D01*
X-284045Y202690D01*
X-284027Y202190D01*
X-284008Y201694D01*
X-283989Y201203D01*
X-283969Y200715D01*
X-283947Y200232D01*
X-283930Y199848D01*
X-283912Y199467D01*
X-283893Y199088D01*
X-283874Y198712D01*
X-283854Y198339D01*
X-283834Y197969D01*
X-283813Y197601D01*
X-283792Y197236D01*
X-283770Y196874D01*
X-283748Y196514D01*
X-283725Y196158D01*
X-283702Y195804D01*
X-283678Y195453D01*
X-283660Y195191D01*
X-283642Y194931D01*
X-283623Y194673D01*
X-283605Y194416D01*
X-283586Y194161D01*
X-283566Y193907D01*
X-283547Y193656D01*
X-283527Y193405D01*
X-283507Y193157D01*
X-283487Y192910D01*
X-283467Y192664D01*
X-283446Y192420D01*
X-283425Y192178D01*
X-283404Y191938D01*
X-283383Y191699D01*
X-283361Y191462D01*
X-283340Y191226D01*
X-283318Y190993D01*
X-283296Y190761D01*
X-283274Y190530D01*
X-283251Y190301D01*
X-283228Y190074D01*
X-283206Y189849D01*
X-283190Y189700D01*
X-283175Y189551D01*
X-283159Y189403D01*
X-283144Y189256D01*
X-283128Y189110D01*
X-283113Y188965D01*
X-283097Y188820D01*
X-283081Y188676D01*
X-283065Y188533D01*
X-283049Y188391D01*
X-283033Y188249D01*
X-283017Y188108D01*
X-283001Y187968D01*
X-282984Y187829D01*
X-282968Y187690D01*
X-282951Y187553D01*
X-282935Y187416D01*
X-282919Y187280D01*
X-282902Y187144D01*
X-282885Y187010D01*
X-282869Y186876D01*
X-282852Y186743D01*
X-282835Y186611D01*
X-282818Y186479D01*
X-282801Y186349D01*
X-282784Y186219D01*
X-282767Y186090D01*
X-282750Y185962D01*
X-282733Y185835D01*
X-282715Y185708D01*
X-282698Y185582D01*
X-282681Y185457D01*
X-282663Y185333D01*
X-282646Y185210D01*
X-282628Y185088D01*
X-282611Y184966D01*
X-282593Y184845D01*
X-282575Y184725D01*
X-282558Y184606D01*
X-282540Y184487D01*
X-282522Y184370D01*
X-282504Y184253D01*
X-282487Y184137D01*
X-282469Y184022D01*
X-282451Y183908D01*
X-282433Y183794D01*
X-282415Y183682D01*
X-282397Y183570D01*
X-282379Y183459D01*
X-282361Y183349D01*
X-282342Y183240D01*
X-282324Y183132D01*
X-282306Y183024D01*
X-282288Y182917D01*
X-282270Y182811D01*
X-282251Y182706D01*
X-282233Y182602D01*
X-282224Y182551D01*
X-282214Y182499D01*
X-282205Y182448D01*
X-282196Y182397D01*
X-282187Y182346D01*
X-282178Y182295D01*
X-282168Y182245D01*
X-282159Y182194D01*
X-282150Y182144D01*
X-282141Y182094D01*
X-282132Y182045D01*
X-282122Y181995D01*
X-282113Y181946D01*
X-282104Y181897D01*
X-282095Y181849D01*
X-282085Y181800D01*
X-282076Y181752D01*
X-282067Y181704D01*
X-282057Y181656D01*
X-282048Y181608D01*
X-282039Y181561D01*
X-282030Y181514D01*
X-282020Y181466D01*
X-282011Y181420D01*
X-282002Y181373D01*
X-281992Y181327D01*
X-281983Y181281D01*
X-281974Y181235D01*
X-281964Y181189D01*
X-281955Y181144D01*
X-281946Y181098D01*
X-281936Y181053D01*
X-281927Y181008D01*
X-281918Y180964D01*
X-281908Y180920D01*
X-281899Y180875D01*
X-281890Y180831D01*
X-281880Y180788D01*
X-281871Y180744D01*
X-281862Y180701D01*
X-281852Y180658D01*
X-281843Y180615D01*
X-281834Y180572D01*
X-281824Y180530D01*
X-281815Y180488D01*
X-281806Y180446D01*
X-281796Y180404D01*
X-281787Y180363D01*
X-281778Y180322D01*
X-281768Y180280D01*
X-281759Y180240D01*
X-281749Y180199D01*
X-281740Y180159D01*
X-281731Y180119D01*
X-281721Y180079D01*
X-281712Y180039D01*
X-281702Y179999D01*
X-281693Y179960D01*
X-281684Y179921D01*
X-281674Y179882D01*
X-281665Y179844D01*
X-281656Y179805D01*
X-281646Y179767D01*
X-281637Y179729D01*
X-281628Y179692D01*
X-281618Y179654D01*
X-281609Y179617D01*
X-281599Y179580D01*
X-281590Y179543D01*
X-281581Y179507D01*
X-281571Y179471D01*
X-281562Y179434D01*
X-281553Y179399D01*
X-281543Y179363D01*
X-281534Y179328D01*
X-281525Y179292D01*
X-281515Y179258D01*
X-281506Y179223D01*
X-281497Y179188D01*
X-281487Y179154D01*
X-281469Y179086D01*
X-281461Y179058D01*
X-281453Y179030D01*
X-281445Y179001D01*
X-281437Y178973D01*
X-281429Y178945D01*
X-281422Y178916D01*
X-281414Y178888D01*
X-281406Y178860D01*
X-281398Y178832D01*
X-281390Y178804D01*
X-281382Y178775D01*
X-281375Y178747D01*
X-281367Y178719D01*
X-281359Y178691D01*
X-281351Y178663D01*
X-281344Y178635D01*
X-281336Y178607D01*
X-281328Y178579D01*
X-281321Y178551D01*
X-281313Y178523D01*
X-281305Y178495D01*
X-281297Y178467D01*
X-281290Y178439D01*
X-281282Y178412D01*
X-281274Y178384D01*
X-281266Y178356D01*
X-281259Y178328D01*
X-281251Y178300D01*
X-281243Y178273D01*
X-281236Y178245D01*
X-281228Y178217D01*
X-281221Y178190D01*
X-281213Y178162D01*
X-281205Y178134D01*
X-281198Y178107D01*
X-281190Y178079D01*
X-281182Y178051D01*
X-281175Y178024D01*
X-281167Y177996D01*
X-281159Y177969D01*
X-281152Y177941D01*
X-281144Y177914D01*
X-281137Y177886D01*
X-281129Y177859D01*
X-281122Y177832D01*
X-281114Y177804D01*
X-281106Y177777D01*
X-281099Y177750D01*
X-281091Y177722D01*
X-281084Y177695D01*
X-281076Y177668D01*
X-281069Y177641D01*
X-281061Y177613D01*
X-281054Y177586D01*
X-281046Y177559D01*
X-281039Y177532D01*
X-281031Y177505D01*
X-281024Y177478D01*
X-281016Y177451D01*
X-281009Y177424D01*
X-281001Y177397D01*
X-280994Y177369D01*
X-280986Y177342D01*
X-280979Y177316D01*
X-280972Y177289D01*
X-280964Y177262D01*
X-280957Y177235D01*
X-280949Y177208D01*
X-280942Y177181D01*
X-280934Y177154D01*
X-280927Y177127D01*
X-280920Y177101D01*
X-280912Y177074D01*
X-280905Y177047D01*
X-280897Y177020D01*
X-280890Y176994D01*
X-280883Y176967D01*
X-280875Y176940D01*
X-280868Y176914D01*
X-280860Y176887D01*
X-280853Y176860D01*
X-280846Y176834D01*
X-280838Y176807D01*
X-280831Y176781D01*
X-280824Y176754D01*
X-280816Y176728D01*
X-280809Y176701D01*
X-280802Y176675D01*
X-280794Y176649D01*
X-280787Y176622D01*
X-280780Y176596D01*
X-280772Y176569D01*
X-280765Y176543D01*
X-280758Y176517D01*
X-280750Y176491D01*
X-280743Y176464D01*
X-280736Y176438D01*
X-280729Y176412D01*
X-280721Y176386D01*
X-280714Y176360D01*
X-280707Y176333D01*
X-280699Y176307D01*
X-280692Y176281D01*
X-280685Y176255D01*
X-280678Y176229D01*
X-280670Y176203D01*
X-280663Y176177D01*
X-280656Y176151D01*
X-280649Y176125D01*
X-280642Y176099D01*
X-280634Y176073D01*
X-280627Y176047D01*
X-280620Y176022D01*
X-280613Y175996D01*
X-280606Y175970D01*
X-280598Y175944D01*
X-280591Y175918D01*
X-280584Y175892D01*
X-280577Y175867D01*
X-280570Y175841D01*
X-280562Y175815D01*
X-280555Y175790D01*
X-280548Y175764D01*
X-280541Y175738D01*
X-280534Y175713D01*
X-280527Y175687D01*
X-280520Y175662D01*
X-280512Y175636D01*
X-280505Y175610D01*
X-280498Y175585D01*
X-280491Y175559D01*
X-280484Y175534D01*
X-280477Y175509D01*
X-280470Y175483D01*
X-280462Y175458D01*
X-280455Y175432D01*
X-280448Y175407D01*
X-280441Y175382D01*
X-280434Y175356D01*
X-280427Y175331D01*
X-280420Y175306D01*
X-280413Y175281D01*
X-280406Y175255D01*
X-280399Y175230D01*
X-280392Y175205D01*
X-280384Y175180D01*
X-280377Y175155D01*
X-280370Y175130D01*
X-280363Y175105D01*
X-280356Y175080D01*
X-280349Y175055D01*
X-280342Y175030D01*
X-280335Y175004D01*
X-280328Y174980D01*
X-280321Y174955D01*
X-280314Y174930D01*
X-280307Y174905D01*
X-280300Y174880D01*
X-280293Y174855D01*
X-280286Y174830D01*
X-280279Y174805D01*
X-280272Y174781D01*
X-280265Y174756D01*
X-280258Y174731D01*
X-280251Y174706D01*
X-280244Y174682D01*
X-280237Y174657D01*
X-280230Y174632D01*
X-280216Y174583D01*
X-280202Y174534D01*
X-280188Y174485D01*
X-280174Y174436D01*
X-280160Y174387D01*
X-280146Y174338D01*
X-280132Y174289D01*
X-280118Y174241D01*
X-280104Y174192D01*
X-280090Y174144D01*
X-280077Y174095D01*
X-280063Y174047D01*
X-280049Y173999D01*
X-280035Y173951D01*
X-280021Y173903D01*
X-280007Y173855D01*
X-279994Y173807D01*
X-279980Y173759D01*
X-279966Y173712D01*
X-279952Y173664D01*
X-279939Y173617D01*
X-279925Y173569D01*
X-279911Y173522D01*
X-279897Y173475D01*
X-279884Y173428D01*
X-279870Y173381D01*
X-279856Y173334D01*
X-279842Y173287D01*
X-279829Y173240D01*
X-279815Y173193D01*
X-279801Y173147D01*
X-279788Y173100D01*
X-279774Y173054D01*
X-279760Y173008D01*
X-279747Y172961D01*
X-279733Y172915D01*
X-279719Y172869D01*
X-279706Y172823D01*
X-279692Y172777D01*
X-279678Y172731D01*
X-279665Y172686D01*
X-279651Y172640D01*
X-279638Y172594D01*
X-279624Y172549D01*
X-279610Y172504D01*
X-279597Y172458D01*
X-279583Y172413D01*
X-279570Y172368D01*
X-279556Y172323D01*
X-279542Y172278D01*
X-279529Y172233D01*
X-279515Y172189D01*
X-279502Y172144D01*
X-279488Y172099D01*
X-279474Y172055D01*
X-279461Y172011D01*
X-279447Y171966D01*
X-279434Y171922D01*
X-279420Y171878D01*
X-279407Y171834D01*
X-279393Y171790D01*
X-279380Y171746D01*
X-279366Y171702D01*
X-279352Y171659D01*
X-279339Y171615D01*
X-279325Y171571D01*
X-279312Y171528D01*
X-279298Y171485D01*
X-279285Y171441D01*
X-279271Y171398D01*
X-279258Y171355D01*
X-279244Y171312D01*
X-279230Y171269D01*
X-279217Y171227D01*
X-279203Y171184D01*
X-279190Y171141D01*
X-279176Y171099D01*
X-279163Y171056D01*
X-279149Y171014D01*
X-279136Y170972D01*
X-279122Y170929D01*
X-279109Y170887D01*
X-279095Y170845D01*
X-279081Y170803D01*
X-279068Y170761D01*
X-279054Y170720D01*
X-279041Y170678D01*
X-279027Y170636D01*
X-279013Y170595D01*
X-279000Y170554D01*
X-278986Y170512D01*
X-278973Y170471D01*
X-278959Y170430D01*
X-278945Y170389D01*
X-278932Y170348D01*
X-278918Y170307D01*
X-278905Y170266D01*
X-278891Y170226D01*
X-278877Y170185D01*
X-278864Y170144D01*
X-278850Y170104D01*
X-278836Y170064D01*
X-278823Y170023D01*
X-278809Y169983D01*
X-278795Y169943D01*
X-278782Y169903D01*
X-278768Y169863D01*
X-278754Y169823D01*
X-278741Y169784D01*
X-278727Y169744D01*
X-278713Y169704D01*
X-278699Y169665D01*
X-278686Y169626D01*
X-278672Y169586D01*
X-278658Y169547D01*
X-278644Y169508D01*
X-278631Y169469D01*
X-278617Y169430D01*
X-278603Y169391D01*
X-278589Y169352D01*
X-278576Y169314D01*
X-278562Y169275D01*
X-278548Y169237D01*
X-278534Y169198D01*
X-278520Y169160D01*
X-278506Y169122D01*
X-278493Y169083D01*
X-278479Y169045D01*
X-278465Y169007D01*
X-278444Y168951D01*
X-278423Y168894D01*
X-278402Y168838D01*
X-278381Y168781D01*
X-278360Y168725D01*
X-278339Y168670D01*
X-278318Y168614D01*
X-278297Y168559D01*
X-278276Y168503D01*
X-278255Y168448D01*
X-278234Y168393D01*
X-278213Y168339D01*
X-278191Y168284D01*
X-278170Y168230D01*
X-278149Y168176D01*
X-278128Y168122D01*
X-278106Y168069D01*
X-278085Y168015D01*
X-278064Y167962D01*
X-278042Y167909D01*
X-278021Y167856D01*
X-277999Y167803D01*
X-277977Y167751D01*
X-277956Y167699D01*
X-277934Y167646D01*
X-277912Y167595D01*
X-277891Y167543D01*
X-277869Y167491D01*
X-277847Y167440D01*
X-277825Y167389D01*
X-277803Y167338D01*
X-277782Y167287D01*
X-277760Y167237D01*
X-277737Y167186D01*
X-277715Y167136D01*
X-277693Y167086D01*
X-277671Y167037D01*
X-277649Y166987D01*
X-277626Y166938D01*
X-277604Y166889D01*
X-277582Y166840D01*
X-277559Y166791D01*
X-277537Y166742D01*
X-277514Y166694D01*
X-277492Y166646D01*
X-277469Y166598D01*
X-277446Y166550D01*
X-277424Y166503D01*
X-277401Y166455D01*
X-277378Y166408D01*
X-277355Y166361D01*
X-277332Y166314D01*
X-277309Y166268D01*
X-277286Y166221D01*
X-277263Y166175D01*
X-277239Y166129D01*
X-277216Y166083D01*
X-277193Y166038D01*
X-277169Y165992D01*
X-277146Y165947D01*
X-277122Y165902D01*
X-277099Y165857D01*
X-277075Y165813D01*
X-277051Y165768D01*
X-277028Y165724D01*
X-277004Y165680D01*
X-276980Y165636D01*
X-276956Y165592D01*
X-276932Y165549D01*
X-276907Y165506D01*
X-276883Y165462D01*
X-276859Y165419D01*
X-276835Y165377D01*
X-276810Y165334D01*
X-276786Y165292D01*
X-276761Y165250D01*
X-276737Y165208D01*
X-276712Y165166D01*
X-276687Y165125D01*
X-276662Y165084D01*
X-276637Y165042D01*
X-276612Y165001D01*
X-276587Y164961D01*
X-276562Y164920D01*
X-276537Y164880D01*
X-276511Y164840D01*
X-276486Y164800D01*
X-276461Y164760D01*
X-276435Y164720D01*
X-276409Y164681D01*
X-276384Y164642D01*
X-276358Y164603D01*
X-276332Y164564D01*
X-276306Y164525D01*
X-276280Y164487D01*
X-276254Y164449D01*
X-276219Y164398D01*
X-276184Y164348D01*
X-276148Y164298D01*
X-276113Y164248D01*
X-276077Y164199D01*
X-276041Y164150D01*
X-276005Y164102D01*
X-275969Y164053D01*
X-275933Y164006D01*
X-275896Y163958D01*
X-275860Y163911D01*
X-275823Y163864D01*
X-275786Y163818D01*
X-275749Y163771D01*
X-275712Y163726D01*
X-275674Y163680D01*
X-275637Y163635D01*
X-275599Y163590D01*
X-275561Y163546D01*
X-275522Y163502D01*
X-275484Y163458D01*
X-275436Y163404D01*
X-275387Y163350D01*
X-275338Y163297D01*
X-275289Y163244D01*
X-275240Y163192D01*
X-275190Y163141D01*
X-275140Y163090D01*
X-275080Y163030D01*
X-275019Y162970D01*
X-274957Y162911D01*
X-274896Y162853D01*
X-274823Y162786D01*
X-274749Y162720D01*
X-274675Y162656D01*
X-274590Y162583D01*
X-274493Y162503D01*
X-273273Y161696D02*
X-273211Y161663D01*
X-273134Y161623D01*
X-273056Y161582D01*
X-272962Y161533D01*
X-272867Y161484D01*
X-272769Y161434D01*
X-272655Y161376D01*
X-272538Y161317D01*
X-272419Y161257D01*
X-272297Y161197D01*
X-272173Y161135D01*
X-272046Y161074D01*
X-271934Y161019D01*
X-271819Y160964D01*
X-271703Y160909D01*
X-271585Y160853D01*
X-271466Y160797D01*
X-271362Y160749D01*
X-271258Y160701D01*
X-271152Y160653D01*
X-271045Y160605D01*
X-270937Y160556D01*
X-270828Y160508D01*
X-270718Y160459D01*
X-270625Y160419D01*
X-270532Y160379D01*
X-270438Y160338D01*
X-270343Y160298D01*
X-270248Y160258D01*
X-270153Y160218D01*
X-270056Y160178D01*
X-269959Y160138D01*
X-269862Y160099D01*
X-269764Y160059D01*
X-269665Y160020D01*
X-269566Y159980D01*
X-269486Y159949D01*
X-269406Y159918D01*
X-269326Y159887D01*
X-269245Y159857D01*
X-269164Y159826D01*
X-269083Y159796D01*
X-269001Y159766D01*
X-268919Y159735D01*
X-268837Y159706D01*
X-268755Y159676D01*
X-268672Y159646D01*
X-268589Y159617D01*
X-268506Y159588D01*
X-268423Y159560D01*
X-268339Y159531D01*
X-268255Y159503D01*
X-268171Y159475D01*
X-268087Y159447D01*
X-268002Y159419D01*
X-267917Y159392D01*
X-267833Y159365D01*
X-267747Y159339D01*
X-267662Y159312D01*
X-267577Y159286D01*
X-267513Y159267D01*
X-267448Y159248D01*
X-267384Y159229D01*
X-267320Y159210D01*
X-267255Y159192D01*
X-267191Y159173D01*
X-267126Y159155D01*
X-267061Y159137D01*
X-266996Y159119D01*
X-266932Y159102D01*
X-266867Y159084D01*
X-266802Y159067D01*
X-266737Y159050D01*
X-266671Y159034D01*
X-266606Y159017D01*
X-266541Y159001D01*
X-266476Y158985D01*
X-266411Y158969D01*
X-266346Y158954D01*
X-266280Y158939D01*
X-266215Y158923D01*
X-266149Y158909D01*
X-266084Y158894D01*
X-266019Y158880D01*
X-265953Y158866D01*
X-265888Y158852D01*
X-265822Y158839D01*
X-265757Y158826D01*
X-265691Y158812D01*
X-265626Y158800D01*
X-265560Y158787D01*
X-265495Y158775D01*
X-265429Y158764D01*
X-265364Y158752D01*
X-265299Y158741D01*
X-265233Y158730D01*
X-265168Y158719D01*
X-265102Y158709D01*
X-265037Y158699D01*
X-264972Y158689D01*
X-264906Y158680D01*
X-264841Y158670D01*
X-264776Y158662D01*
X-264710Y158653D01*
X-264645Y158645D01*
X-264580Y158637D01*
X-264515Y158630D01*
X-264450Y158623D01*
X-264385Y158616D01*
X-264320Y158609D01*
X-264255Y158603D01*
X-264191Y158597D01*
X-264126Y158592D01*
X-264061Y158587D01*
X-263997Y158582D01*
X-263932Y158578D01*
X-263868Y158574D01*
X-263804Y158570D01*
X-263739Y158567D01*
X-263675Y158564D01*
X-263611Y158562D01*
X-263547Y158560D01*
X-263484Y158558D01*
X-263420Y158556D01*
X-263356Y158555D01*
X-263293Y158555D01*
X-263229Y158555D01*
X-263166Y158555D01*
X-263103Y158556D01*
X-263039Y158557D01*
X-262977Y158558D01*
X-262914Y158560D01*
X-262851Y158562D01*
X-262788Y158565D01*
X-262726Y158568D01*
X-262664Y158572D01*
X-262601Y158576D01*
X-262539Y158580D01*
X-262478Y158585D01*
X-262416Y158590D01*
X-262354Y158596D01*
X-262293Y158602D01*
X-262232Y158609D01*
X-262171Y158616D01*
X-262110Y158624D01*
X-262049Y158632D01*
X-261988Y158640D01*
X-261928Y158649D01*
X-261867Y158659D01*
X-261807Y158669D01*
X-261748Y158679D01*
X-261688Y158690D01*
X-261628Y158701D01*
X-261569Y158713D01*
X-261510Y158726D01*
X-261451Y158738D01*
X-261392Y158752D01*
X-261334Y158765D01*
X-261276Y158780D01*
X-261217Y158795D01*
X-261159Y158810D01*
X-261102Y158826D01*
X-261044Y158842D01*
X-260987Y158859D01*
X-260930Y158877D01*
X-260874Y158895D01*
X-260798Y158919D01*
X-260723Y158945D01*
X-260649Y158972D01*
X-260575Y158999D01*
X-260501Y159028D01*
X-260428Y159057D01*
X-260355Y159088D01*
X-260283Y159120D01*
X-258366Y160571D02*
X-258312Y160637D01*
X-258259Y160705D01*
X-258206Y160774D01*
X-258153Y160844D01*
X-258102Y160915D01*
X-258064Y160970D01*
X-258026Y161025D01*
X-257989Y161081D01*
X-257952Y161137D01*
X-257915Y161195D01*
X-257879Y161253D01*
X-257843Y161312D01*
X-257808Y161371D01*
X-257773Y161432D01*
X-257739Y161493D01*
X-257705Y161555D01*
X-257672Y161617D01*
X-257639Y161681D01*
X-257606Y161745D01*
X-257574Y161810D01*
X-257542Y161875D01*
X-257521Y161919D01*
X-257501Y161964D01*
X-257480Y162009D01*
X-257460Y162054D01*
X-257440Y162100D01*
X-257420Y162146D01*
X-257400Y162192D01*
X-257381Y162239D01*
X-257362Y162286D01*
X-257343Y162333D01*
X-257324Y162381D01*
X-257305Y162429D01*
X-257287Y162477D01*
X-257269Y162526D01*
X-257251Y162575D01*
X-257233Y162625D01*
X-257215Y162674D01*
X-257198Y162725D01*
X-257181Y162775D01*
X-257164Y162826D01*
X-257148Y162877D01*
X-257131Y162929D01*
X-257115Y162981D01*
X-257099Y163033D01*
X-257083Y163086D01*
X-257068Y163139D01*
X-257052Y163193D01*
X-257037Y163247D01*
X-257022Y163301D01*
X-257008Y163356D01*
X-256993Y163410D01*
X-256979Y163466D01*
X-256965Y163522D01*
X-256951Y163578D01*
X-256938Y163634D01*
X-256925Y163691D01*
X-256912Y163748D01*
X-256899Y163806D01*
X-256887Y163864D01*
X-256874Y163922D01*
X-256862Y163981D01*
X-256850Y164040D01*
X-256839Y164100D01*
X-256827Y164160D01*
X-256816Y164220D01*
X-256805Y164281D01*
X-256795Y164342D01*
X-256785Y164403D01*
X-256774Y164465D01*
X-256765Y164527D01*
X-256755Y164590D01*
X-256746Y164653D01*
X-256736Y164717D01*
X-256728Y164780D01*
X-256719Y164845D01*
X-256711Y164909D01*
X-256702Y164974D01*
X-256695Y165040D01*
X-256687Y165106D01*
X-256680Y165172D01*
X-256673Y165238D01*
X-256666Y165306D01*
X-256659Y165373D01*
X-256653Y165441D01*
X-256647Y165509D01*
X-256641Y165578D01*
X-256635Y165647D01*
X-256630Y165716D01*
X-256625Y165786D01*
X-256620Y165857D01*
X-256614Y165963D01*
X-256611Y165998D01*
X-256609Y166034D01*
X-256607Y166070D01*
X-256605Y166106D01*
X-256602Y166143D01*
X-256600Y166179D01*
X-256597Y166216D01*
X-256594Y166253D01*
X-256592Y166289D01*
X-256589Y166326D01*
X-256586Y166364D01*
X-256583Y166401D01*
X-256580Y166439D01*
X-256577Y166476D01*
X-256574Y166514D01*
X-256571Y166552D01*
X-256568Y166590D01*
X-256564Y166629D01*
X-256561Y166667D01*
X-256558Y166706D01*
X-256554Y166745D01*
X-256551Y166784D01*
X-256547Y166823D01*
X-256543Y166862D01*
X-256540Y166901D01*
X-256536Y166941D01*
X-256532Y166981D01*
X-256528Y167020D01*
X-256524Y167060D01*
X-256520Y167101D01*
X-256515Y167141D01*
X-256511Y167181D01*
X-256507Y167222D01*
X-256503Y167263D01*
X-256498Y167304D01*
X-256493Y167345D01*
X-256489Y167386D01*
X-256484Y167427D01*
X-256480Y167469D01*
X-256475Y167510D01*
X-256470Y167552D01*
X-256465Y167594D01*
X-256460Y167636D01*
X-256455Y167678D01*
X-256450Y167721D01*
X-256445Y167763D01*
X-256440Y167806D01*
X-256434Y167849D01*
X-256429Y167892D01*
X-256424Y167935D01*
X-256418Y167978D01*
X-256413Y168022D01*
X-256407Y168065D01*
X-256401Y168109D01*
X-256396Y168153D01*
X-256390Y168197D01*
X-256384Y168241D01*
X-256378Y168285D01*
X-256372Y168330D01*
X-256366Y168374D01*
X-256360Y168419D01*
X-256354Y168464D01*
X-256348Y168509D01*
X-256341Y168554D01*
X-256335Y168599D01*
X-256329Y168645D01*
X-256322Y168690D01*
X-256316Y168736D01*
X-256309Y168782D01*
X-256302Y168828D01*
X-256296Y168874D01*
X-256289Y168920D01*
X-256282Y168966D01*
X-256275Y169013D01*
X-256268Y169060D01*
X-256261Y169106D01*
X-256254Y169153D01*
X-256247Y169201D01*
X-256240Y169248D01*
X-256233Y169295D01*
X-256225Y169343D01*
X-256218Y169390D01*
X-256210Y169438D01*
X-256203Y169486D01*
X-256195Y169534D01*
X-256188Y169582D01*
X-256180Y169631D01*
X-256172Y169679D01*
X-256165Y169728D01*
X-256157Y169776D01*
X-256149Y169825D01*
X-256141Y169874D01*
X-256133Y169923D01*
X-256125Y169972D01*
X-256117Y170022D01*
X-256108Y170071D01*
X-256100Y170121D01*
X-256092Y170171D01*
X-256083Y170221D01*
X-256075Y170271D01*
X-256066Y170321D01*
X-256058Y170371D01*
X-256049Y170422D01*
X-256041Y170472D01*
X-256032Y170523D01*
X-256023Y170574D01*
X-256006Y170676D01*
X-255988Y170778D01*
X-255969Y170881D01*
X-255951Y170985D01*
X-255932Y171089D01*
X-255913Y171194D01*
X-255894Y171299D01*
X-255875Y171404D01*
X-255856Y171510D01*
X-255836Y171617D01*
X-255816Y171724D01*
X-255796Y171832D01*
X-255775Y171940D01*
X-255755Y172048D01*
X-255734Y172157D01*
X-255713Y172267D01*
X-255692Y172377D01*
X-255670Y172487D01*
X-255649Y172598D01*
D90*
X184957Y406525D02*
X188500D01*
X186728Y404753D02*
Y408297D01*
X175394Y409449D02*
X178937D01*
X177165Y407677D02*
Y411220D01*
X165831Y412372D02*
X169374D01*
X167602Y410601D02*
Y414144D01*
X156268Y415296D02*
X159811D01*
X158039Y413524D02*
Y417068D01*
X175748Y464059D02*
X178504D01*
X177126Y462681D02*
Y465437D01*
X164891Y473169D02*
X167647D01*
X166269Y471791D02*
Y474547D01*
X181177Y459504D02*
X183932D01*
X182554Y458126D02*
Y460882D01*
X170319Y468614D02*
X173075D01*
X171697Y467236D02*
Y469992D01*
X198489Y438042D02*
X201245D01*
X199867Y436664D02*
Y439420D01*
X190360Y449652D02*
X193115D01*
X191738Y448274D02*
Y451030D01*
X202554Y432237D02*
X205310D01*
X203932Y430859D02*
Y433615D01*
X194424Y443847D02*
X197180D01*
X195802Y442469D02*
Y445225D01*
X212571Y408347D02*
X215326D01*
X213949Y406969D02*
Y409725D01*
X208902Y422037D02*
X211658D01*
X210280Y420659D02*
Y423415D01*
X214405Y401502D02*
X217161D01*
X215783Y400124D02*
Y402880D01*
X210736Y415192D02*
X213492D01*
X212114Y413814D02*
Y416570D01*
X219094Y374410D02*
X221850D01*
X220472Y373031D02*
Y375787D01*
X219094Y388583D02*
X221850D01*
X220472Y387205D02*
Y389961D01*
X219094Y367323D02*
X221850D01*
X220472Y365945D02*
Y368701D01*
X219094Y381496D02*
X221850D01*
X220472Y380118D02*
Y382874D01*
X43492Y395636D02*
X47035D01*
X45263Y393865D02*
Y397408D01*
X34095Y392216D02*
X37638D01*
X35866Y390444D02*
Y393988D01*
X52889Y399057D02*
X56432D01*
X54660Y397285D02*
Y400828D01*
X59298Y381373D02*
X61858D01*
X60578Y380093D02*
Y382652D01*
X40505Y374533D02*
X43064D01*
X41784Y373253D02*
Y375812D01*
X132921Y437692D02*
X136267D01*
X134594Y436019D02*
Y439365D01*
X170571Y426181D02*
X173917D01*
X172244Y424508D02*
Y427854D01*
X106042Y458476D02*
X108995D01*
X107518Y457000D02*
Y459952D01*
X119352Y454910D02*
X122305D01*
X120828Y453433D02*
Y456386D01*
X86686Y235171D02*
X90623D01*
X88654Y233202D02*
Y237139D01*
X75703Y234486D02*
X79640D01*
X77671Y232518D02*
Y236455D01*
X68780Y218178D02*
X72717D01*
X70749Y216210D02*
Y220147D01*
X75918Y209802D02*
X79855D01*
X77886Y207834D02*
Y211771D01*
X9682Y323228D02*
X13225D01*
X11453Y321457D02*
Y325000D01*
X35594Y338189D02*
X39138D01*
X37366Y336417D02*
Y339961D01*
X-29215Y460627D02*
X-25671D01*
X-27443Y458855D02*
Y462399D01*
X-27478Y470475D02*
X-23935D01*
X-25706Y468704D02*
Y472247D01*
X34037Y450851D02*
X37580D01*
X35809Y449079D02*
Y452622D01*
X15243Y444010D02*
X18786D01*
X17015Y442239D02*
Y445782D01*
X24640Y447430D02*
X28183D01*
X26412Y445659D02*
Y449202D01*
X75354Y492126D02*
X78504D01*
X76929Y490551D02*
Y493701D01*
X65354Y492126D02*
X68504D01*
X66929Y490551D02*
Y493701D01*
X55354Y492126D02*
X58504D01*
X56929Y490551D02*
Y493701D01*
X97472Y498342D02*
X100228D01*
X98850Y496964D02*
Y499720D01*
X143867Y485910D02*
X146623D01*
X145245Y484532D02*
Y487288D01*
X120669Y492126D02*
X123425D01*
X122047Y490748D02*
Y493504D01*
X113064Y494164D02*
X115820D01*
X114442Y492786D02*
Y495542D01*
X135881Y488050D02*
X138637D01*
X137259Y486672D02*
Y489428D01*
X105458Y496202D02*
X108214D01*
X106836Y494824D02*
Y497580D01*
X192829Y347470D02*
X196372D01*
X194601Y345698D02*
Y349242D01*
X183266Y350394D02*
X186809D01*
X185038Y348622D02*
Y352165D01*
X149522Y308426D02*
X153065D01*
X151293Y306654D02*
Y310197D01*
X139958Y311350D02*
X143502D01*
X141730Y309578D02*
Y313121D01*
X159084Y305502D02*
X162628D01*
X160856Y303731D02*
Y307274D01*
X168648Y302578D02*
X172191D01*
X170419Y300807D02*
Y304350D01*
X178211Y299655D02*
X181754D01*
X179982Y297883D02*
Y301426D01*
X187774Y296731D02*
X191317D01*
X189545Y294959D02*
Y298503D01*
X197337Y293807D02*
X200880D01*
X199108Y292036D02*
Y295579D01*
X153511Y338577D02*
X157054D01*
X155283Y336805D02*
Y340349D01*
X143948Y341501D02*
X147491D01*
X145720Y339729D02*
Y343272D01*
X167064Y365804D02*
X170607D01*
X168835Y364033D02*
Y367576D01*
X157501Y368728D02*
X161044D01*
X159272Y366956D02*
Y370499D01*
X176627Y362880D02*
X180170D01*
X178398Y361109D02*
Y364652D01*
X186190Y359957D02*
X189733D01*
X187961Y358185D02*
Y361728D01*
X195753Y357033D02*
X199296D01*
X197524Y355261D02*
Y358805D01*
X205316Y354109D02*
X208859D01*
X207088Y352338D02*
Y355881D01*
X214879Y351186D02*
X218422D01*
X216651Y349414D02*
Y352957D01*
X203445Y375827D02*
X206004D01*
X204724Y374547D02*
Y377106D01*
X203445Y395827D02*
X206004D01*
X204724Y394547D02*
Y397106D01*
X175083Y445685D02*
X177642D01*
X176362Y444405D02*
Y446964D01*
X160941Y459827D02*
X163500D01*
X162220Y458547D02*
Y461106D01*
X93110Y1969D02*
X97835D01*
X95472Y-394D02*
Y4331D01*
X84055Y1969D02*
X87205D01*
X85630Y394D02*
Y3543D01*
X74213Y1969D02*
X77362D01*
X75787Y394D02*
Y3543D01*
X103740Y1969D02*
X106890D01*
X105315Y394D02*
Y3543D01*
X113583Y1969D02*
X116732D01*
X115157Y394D02*
Y3543D01*
X93898Y-17717D02*
X97047D01*
X95472Y-19291D02*
Y-16142D01*
X112795Y-27559D02*
X117520D01*
X115157Y-29921D02*
Y-25197D01*
X112795Y-17717D02*
X117520D01*
X115157Y-20079D02*
Y-15354D01*
X73425Y-17717D02*
X78150D01*
X75787Y-20079D02*
Y-15354D01*
X73425Y-27559D02*
X78150D01*
X75787Y-29921D02*
Y-25197D01*
X113779Y208661D02*
X130315D01*
X122047Y200394D02*
Y216929D01*
X74410Y90551D02*
X90945D01*
X82677Y82284D02*
Y98819D01*
X36510Y494922D02*
X39856D01*
X38183Y493248D02*
Y496595D01*
X-486Y481456D02*
X2860D01*
X1187Y479783D02*
Y483130D01*
X151083Y395669D02*
X152067D01*
X151575Y395177D02*
Y396161D01*
M02*
