M48
;Layer_Color=9474304
;FILE_FORMAT=2:5
INCH,LZ
;TYPE=PLATED
T01F00S00C0.00984
T02F00S00C0.02559
T03F00S00C0.02756
T05F00S00C0.02953
T06F00S00C0.03150
T08F00S00C0.03346
T09F00S00C0.03543
T10F00S00C0.03937
;TYPE=NON_PLATED
T11F00S00C0.04724
T12F00S00C0.16535
%
T01
X0151575Y0395669
T02
X0204724Y0375827
Y0395827
X0060578Y0381373
X0041784Y0374533
X0176362Y0445685
X016222Y0459827
T03
X0220472Y0367323
Y037441
Y0381496
Y0388583
X0122047Y0492126
X0114442Y0494164
X0106836Y0496202
X0137259Y048805
X0166269Y0473169
X0171697Y0468614
X0177126Y0464059
X0182554Y0459504
X0191738Y0449652
X0195802Y0443847
X0199867Y0438042
X0203932Y0432237
X021028Y0422037
X0212114Y0415192
X0213949Y0408347
X0215783Y0401502
T05
X0107518Y0458476
X0120828Y045491
T06
X0056929Y0492126
X0066929Y0492126
X0076929Y0492126
T08
X0001187Y0481456
X0038183Y0494922
X0134594Y0437692
X0172244Y0426181
T09
X014173Y031135
X0151293Y0308426
X0160856Y0305502
X0170419Y0302578
X0179982Y0299655
X0189545Y0296731
X0199108Y0293807
X0194601Y034747
X0197524Y0357033
X0187961Y0359957
X0185038Y0350394
X0178398Y036288
X0168835Y0365804
X0159272Y0368728
X0155283Y0338577
X014572Y0341501
X0207088Y0354109
X0216651Y0351186
X0037366Y0338189
X0011453Y0323228
X0035866Y0392216
X0045263Y0395636
X005466Y0399057
X0035809Y0450851
X0026412Y044743
X0017015Y044401
X-0027443Y0460627
X-0025706Y0470475
X0158039Y0415296
X0167602Y0412372
X0177165Y0409449
X0186728Y0406525
T10
X0077886Y0209802
X0070749Y0218178
X0077671Y0234486
X0088654Y0235171
T11
X0075787Y-0027559
Y-0017717
X0095472Y0001969
X0115157Y-0017717
Y-0027559
T12
X0082677Y0090551
X0122047Y0208661
M30
