G04*
G04 #@! TF.GenerationSoftware,Altium Limited,Altium Designer,24.4.0 (9)*
G04*
G04 Layer_Color=128*
%FSLAX25Y25*%
%MOIN*%
G70*
G04*
G04 #@! TF.SameCoordinates,6A74A827-5FBE-472E-901E-0A1D8F3314CC*
G04*
G04*
G04 #@! TF.FilePolarity,Positive*
G04*
G01*
G75*
%ADD15C,0.00394*%
D15*
X565889Y172660D02*
G03*
X565360Y173189I-528J0D01*
G01*
X340360Y282443D02*
G03*
X355353Y283159I-2767J215310D01*
G01*
X334730Y282445D02*
G03*
X340360Y282443I2876J213887D01*
G01*
X330617Y282540D02*
G03*
X334730Y282445I6961J211570D01*
G01*
X225765Y305530D02*
G03*
X225664Y305479I2268J-4629D01*
G01*
X225664D02*
G03*
X225566Y305427I2340J-4524D01*
G01*
D02*
G03*
X225444Y305358I2413J-4424D01*
G01*
X225444Y305358D02*
G03*
X225049Y305103I2498J-4295D01*
G01*
D02*
G03*
X224851Y304953I2902J-4051D01*
G01*
D02*
G03*
X224744Y304866I3136J-3946D01*
G01*
X224744Y304866D02*
G03*
X224660Y304793I3278J-3901D01*
G01*
D02*
G03*
X224577Y304719I3402J-3874D01*
G01*
X294129Y44351D02*
G03*
X294129Y45327I-110924J442D01*
G01*
X290948Y19531D02*
G03*
X291371Y21184I-85965J22909D01*
G01*
X290496Y17899D02*
G03*
X290948Y19531I-84535J24280D01*
G01*
X290017Y16289D02*
G03*
X290496Y17899I-83150J25630D01*
G01*
X289423Y14439D02*
G03*
X290017Y16289I-81655J27202D01*
G01*
X288794Y12619D02*
G03*
X289423Y14439I-80143J28728D01*
G01*
X288032Y10575D02*
G03*
X288794Y12619I-78532J30468D01*
G01*
X287120Y8323D02*
G03*
X288032Y10575I-76775J32392D01*
G01*
X286041Y5878D02*
G03*
X287120Y8323I-74889J34495D01*
G01*
X284540Y2792D02*
G03*
X286041Y5878I-72590J37213D01*
G01*
X270073Y-17135D02*
G03*
X284540Y2792I-56617J56320D01*
G01*
X265455Y-21429D02*
G03*
X270073Y-17135I-52615J61221D01*
G01*
X261154Y-24879D02*
G03*
X265455Y-21429I-48860J65304D01*
G01*
X237102Y-37350D02*
G03*
X261154Y-24879I-25815J79215D01*
G01*
X233429Y-38454D02*
G03*
X237102Y-37350I-21859J79447D01*
G01*
X230610Y-39175D02*
G03*
X233429Y-38454I-18809J79333D01*
G01*
X228222Y-39704D02*
G03*
X230610Y-39175I-16218J79009D01*
G01*
X226267Y-40079D02*
G03*
X228222Y-39704I-14091J78549D01*
G01*
X224531Y-40371D02*
G03*
X226267Y-40079I-12211J78040D01*
G01*
X222797Y-40622D02*
G03*
X224531Y-40371I-10348J77464D01*
G01*
X221282Y-40810D02*
G03*
X222797Y-40622I-8721J76812D01*
G01*
X219771Y-40966D02*
G03*
X221282Y-40810I-7114J76131D01*
G01*
X214623Y-41269D02*
G03*
X215904Y-41227I-1745J73127D01*
G01*
X181045Y-32394D02*
G03*
X181840Y-32917I25184J37410D01*
G01*
X180263Y-31855D02*
G03*
X181045Y-32394I25663J36421D01*
G01*
X179494Y-31301D02*
G03*
X180263Y-31855I26137J35447D01*
G01*
X178737Y-30730D02*
G03*
X179494Y-31301I26607J34488D01*
G01*
X177994Y-30144D02*
G03*
X178737Y-30730I27075J33546D01*
G01*
X177120Y-29419D02*
G03*
X177994Y-30144I27662J32465D01*
G01*
X176126Y-28545D02*
G03*
X177120Y-29419I28340J31220D01*
G01*
X175024Y-27507D02*
G03*
X176126Y-28545I29114J29822D01*
G01*
X173829Y-26291D02*
G03*
X175024Y-27507I29992J28281D01*
G01*
X169986Y-21549D02*
G03*
X173829Y-26291I33393J23131D01*
G01*
X168417Y-19101D02*
G03*
X169986Y-21549I35060J20745D01*
G01*
X167551Y-17563D02*
G03*
X168417Y-19101I36319J19441D01*
G01*
X166917Y-16331D02*
G03*
X167551Y-17563I37361J18428D01*
G01*
X166403Y-15250D02*
G03*
X166917Y-16331I38299J17556D01*
G01*
X165995Y-14331D02*
G03*
X166403Y-15250I39134J16834D01*
G01*
X165606Y-13397D02*
G03*
X165995Y-14331I39967J16090D01*
G01*
X165309Y-12638D02*
G03*
X165606Y-13397I40712J15512D01*
G01*
X165024Y-11868D02*
G03*
X165309Y-12638I41434J14909D01*
G01*
X164751Y-11089D02*
G03*
X165024Y-11868I42181J14300D01*
G01*
X164492Y-10299D02*
G03*
X164751Y-11089I42955J13684D01*
G01*
X164245Y-9499D02*
G03*
X164492Y-10299I43755J13060D01*
G01*
X167912Y47839D02*
G03*
X167912Y48237I-122830J318D01*
G01*
X124516Y220481D02*
G03*
X114167Y247448I-1245530J-462542D01*
G01*
X88219Y308936D02*
G03*
X89320Y306135I157476J60256D01*
G01*
X87176Y311737D02*
G03*
X88219Y308936I156820J56804D01*
G01*
X86190Y314537D02*
G03*
X87176Y311737I156180J53415D01*
G01*
X85179Y317591D02*
G03*
X86190Y314537I155569J49807D01*
G01*
X84235Y320643D02*
G03*
X85179Y317591I154903J46240D01*
G01*
X83288Y323946D02*
G03*
X84235Y320643I154264J42463D01*
G01*
X82354Y327499D02*
G03*
X83288Y323946I153584J38467D01*
G01*
X81452Y331300D02*
G03*
X82354Y327499I152867J34261D01*
G01*
X80602Y335346D02*
G03*
X81452Y331300I152115J29856D01*
G01*
X79823Y339634D02*
G03*
X80602Y335346I151328J25261D01*
G01*
X79104Y344411D02*
G03*
X79823Y339634I150500J20226D01*
G01*
X78467Y349919D02*
G03*
X79104Y344411I149570J14508D01*
G01*
X77995Y356143D02*
G03*
X78467Y349919I148488J8134D01*
G01*
X77776Y363555D02*
G03*
X77995Y356143I147197J641D01*
G01*
X78076Y373566D02*
G03*
X77776Y363555I145396J-9375D01*
G01*
X85831Y411781D02*
G03*
X78076Y373566I135659J-47423D01*
G01*
X101952Y444133D02*
G03*
X85831Y411781I119969J-79972D01*
G01*
X128708Y474239D02*
G03*
X101952Y444133I94546J-110969D01*
G01*
X157218Y493281D02*
G03*
X128708Y474239I66852J-130959D01*
G01*
X172235Y499930D02*
G03*
X157218Y493281I52552J-138971D01*
G01*
X178606Y502191D02*
G03*
X173146Y500271I51793J-155998D01*
G01*
X202270Y508116D02*
G03*
X178606Y502191I27359J-159507D01*
G01*
X211813Y509462D02*
G03*
X202270Y508116I17928J-161594D01*
G01*
X217968Y510028D02*
G03*
X211813Y509462I11969J-163886D01*
G01*
X222985Y510318D02*
G03*
X217968Y510028I7078J-165889D01*
G01*
X227316Y510447D02*
G03*
X222985Y510318I2822J-167738D01*
G01*
X231187Y510468D02*
G03*
X227316Y510447I-1021J-169473D01*
G01*
X234819Y510407D02*
G03*
X231187Y510468I-4663J-171137D01*
G01*
X238215Y510281D02*
G03*
X234819Y510407I-8106J-172756D01*
G01*
X241589Y510090D02*
G03*
X238215Y510281I-11564J-174355D01*
G01*
X244729Y509854D02*
G03*
X241589Y510090I-14825J-175936D01*
G01*
X247849Y509563D02*
G03*
X244729Y509854I-18098J-177473D01*
G01*
X292406Y499472D02*
G03*
X288811Y500698I-68889J-196193D01*
G01*
X296464Y498000D02*
G03*
X292406Y499472I-73651J-196725D01*
G01*
X320311Y487370D02*
G03*
X296464Y498000I-99144J-190340D01*
G01*
X323686Y485573D02*
G03*
X320311Y487370I-101449J-186488D01*
G01*
X380377Y444739D02*
G03*
X384491Y442558I33716J58625D01*
G01*
X488831Y423493D02*
G03*
X486992Y424061I-32714J-102728D01*
G01*
X490846Y422829D02*
G03*
X488831Y423493I-34386J-100990D01*
G01*
X493028Y422060D02*
G03*
X490846Y422829I-36215J-99185D01*
G01*
X495754Y421021D02*
G03*
X493028Y422060I-38564J-97114D01*
G01*
X511952Y412867D02*
G03*
X495754Y421021I-53952J-87007D01*
G01*
X515090Y410842D02*
G03*
X511952Y412867I-57631J-85856D01*
G01*
X517342Y409287D02*
G03*
X515090Y410842I-60483J-85196D01*
G01*
X519233Y407913D02*
G03*
X517342Y409287I-62996J-84700D01*
G01*
X520934Y406621D02*
G03*
X519233Y407913I-65365J-84307D01*
G01*
X522454Y405421D02*
G03*
X520934Y406621I-67593J-84020D01*
G01*
X593398Y235874D02*
G03*
X591037Y256060I-306562J-25631D01*
G01*
X593809Y230361D02*
G03*
X593398Y235874I-305282J-19986D01*
G01*
X594441Y210761D02*
G03*
X594441Y211660I-269781J623D01*
G01*
X584635Y162416D02*
G03*
X584744Y162503I-4718J6034D01*
G01*
X584502Y162314D02*
G03*
X584635Y162416I-4534J6070D01*
G01*
X583525Y161696D02*
G03*
X584502Y162314I-3459J6554D01*
G01*
X570445Y159161D02*
G03*
X570534Y159120I2354J5041D01*
G01*
X570356Y159203D02*
G03*
X570445Y159161I2416J4941D01*
G01*
X570268Y159247D02*
G03*
X570356Y159203I2479J4844D01*
G01*
X570163Y159302D02*
G03*
X570268Y159247I2557J4738D01*
G01*
X570042Y159369D02*
G03*
X570163Y159302I2649J4617D01*
G01*
X569906Y159450D02*
G03*
X570042Y159369I2756J4486D01*
G01*
X569213Y159960D02*
G03*
X569906Y159450I3397J3894D01*
G01*
X569047Y160111D02*
G03*
X569213Y159960I3589J3772D01*
G01*
X568929Y160227D02*
G03*
X569047Y160111I3747J3698D01*
G01*
X568842Y160317D02*
G03*
X568929Y160227I3874J3648D01*
G01*
X568757Y160410D02*
G03*
X568842Y160317I4002J3596D01*
G01*
X568687Y160489D02*
G03*
X568757Y160410I4118J3558D01*
G01*
X568618Y160571D02*
G03*
X568687Y160489I4235J3518D01*
G01*
X379131Y286548D02*
X378054Y286372D01*
X380152Y286636D02*
X379131Y286548D01*
X380851Y286550D02*
X380152Y286636D01*
X381523Y286346D02*
X380851Y286550D01*
X382143Y286015D02*
X381523Y286346D01*
X382994Y285273D02*
X382143Y286015D01*
X384360Y283971D02*
X382994Y285273D01*
X565889Y172654D02*
Y172660D01*
X376511Y447130D02*
X374367Y448597D01*
X565360Y173189D02*
X565152Y173171D01*
X564944Y173154D01*
X564734Y173139D01*
X564523Y173126D01*
X564312Y173114D01*
X564171Y173107D01*
X564029Y173101D01*
X563887Y173095D01*
X563745Y173090D01*
X563602Y173085D01*
X563459Y173082D01*
X563316Y173079D01*
X563172Y173076D01*
X563028Y173074D01*
X562883Y173073D01*
X562739Y173073D01*
X562594Y173073D01*
X562448Y173074D01*
X562302Y173075D01*
X562156Y173077D01*
X562010Y173080D01*
X561863Y173083D01*
X561716Y173088D01*
X561569Y173092D01*
X561421Y173098D01*
X561273Y173103D01*
X561125Y173110D01*
X560976Y173117D01*
X560827Y173125D01*
X560678Y173133D01*
X560529Y173142D01*
X560379Y173152D01*
X560228Y173162D01*
X560078Y173173D01*
X559927Y173185D01*
X559776Y173197D01*
X559624Y173210D01*
X559473Y173223D01*
X559320Y173237D01*
X559168Y173251D01*
X559016Y173266D01*
X558862Y173282D01*
X558709Y173298D01*
X558556Y173315D01*
X558402Y173333D01*
X558248Y173351D01*
X558093Y173369D01*
X557938Y173389D01*
X557783Y173408D01*
X557628Y173429D01*
X557472Y173450D01*
X557316Y173471D01*
X557160Y173493D01*
X557004Y173516D01*
X556847Y173539D01*
X556690Y173563D01*
X556533Y173587D01*
X556375Y173612D01*
X556217Y173638D01*
X556059Y173664D01*
X555900Y173690D01*
X555742Y173717D01*
X555583Y173745D01*
X555423Y173773D01*
X555264Y173802D01*
X555104Y173831D01*
X554944Y173861D01*
X554784Y173892D01*
X554623Y173923D01*
X554462Y173954D01*
X554301Y173986D01*
X554140Y174018D01*
X553978Y174051D01*
X553816Y174085D01*
X553654Y174119D01*
X553492Y174154D01*
X553329Y174189D01*
X553166Y174224D01*
X553003Y174260D01*
X552840Y174297D01*
X552676Y174334D01*
X552512Y174372D01*
X552348Y174410D01*
X552183Y174449D01*
X552019Y174488D01*
X551854Y174528D01*
X551689Y174568D01*
X551523Y174608D01*
X551358Y174650D01*
X551192Y174691D01*
X551026Y174733D01*
X550860Y174776D01*
X550693Y174819D01*
X550526Y174862D01*
X550359Y174906D01*
X550192Y174951D01*
X550025Y174996D01*
X549857Y175041D01*
X549689Y175087D01*
X549521Y175134D01*
X549353Y175180D01*
X549184Y175228D01*
X549015Y175276D01*
X548846Y175324D01*
X548677Y175372D01*
X548507Y175422D01*
X548338Y175471D01*
X548168Y175521D01*
X547998Y175572D01*
X547828Y175622D01*
X547657Y175674D01*
X547486Y175726D01*
X547316Y175778D01*
X547145Y175830D01*
X546973Y175884D01*
X546802Y175937D01*
X546630Y175991D01*
X546458Y176046D01*
X546286Y176100D01*
X546114Y176155D01*
X545941Y176211D01*
X545768Y176267D01*
X545596Y176324D01*
X545423Y176381D01*
X545249Y176438D01*
X545076Y176496D01*
X544902Y176554D01*
X544728Y176612D01*
X544554Y176671D01*
X544380Y176730D01*
X544206Y176790D01*
X544031Y176850D01*
X543856Y176911D01*
X543681Y176972D01*
X543506Y177033D01*
X543331Y177094D01*
X543156Y177157D01*
X542980Y177219D01*
X542804Y177282D01*
X542628Y177345D01*
X542452Y177409D01*
X542276Y177472D01*
X542100Y177537D01*
X541923Y177602D01*
X541746Y177666D01*
X541569Y177732D01*
X541392Y177798D01*
X541215Y177864D01*
X541038Y177930D01*
X540860Y177997D01*
X540682Y178064D01*
X540504Y178132D01*
X540326Y178200D01*
X540148Y178268D01*
X539970Y178337D01*
X539791Y178405D01*
X539613Y178475D01*
X539434Y178544D01*
X539255Y178614D01*
X539076Y178684D01*
X538897Y178755D01*
X538718Y178826D01*
X538538Y178897D01*
X538359Y178969D01*
X538179Y179041D01*
X537999Y179113D01*
X537819Y179185D01*
X537639Y179258D01*
X537459Y179331D01*
X537278Y179405D01*
X537098Y179479D01*
X536917Y179553D01*
X536736Y179627D01*
X536555Y179702D01*
X536374Y179777D01*
X536193Y179852D01*
X536012Y179928D01*
X535830Y180004D01*
X535649Y180080D01*
X535467Y180156D01*
X535286Y180233D01*
X535104Y180310D01*
X534922Y180387D01*
X534740Y180465D01*
X534558Y180543D01*
X534375Y180621D01*
X534193Y180699D01*
X534011Y180778D01*
X533828Y180857D01*
X533645Y180936D01*
X533462Y181016D01*
X533280Y181095D01*
X533097Y181175D01*
X532914Y181256D01*
X532730Y181336D01*
X532547Y181417D01*
X532364Y181498D01*
X532180Y181579D01*
X531997Y181661D01*
X531813Y181742D01*
X531629Y181824D01*
X531446Y181907D01*
X531262Y181989D01*
X531078Y182072D01*
X530894Y182155D01*
X530710Y182238D01*
X530525Y182321D01*
X530341Y182405D01*
X530157Y182489D01*
X529972Y182573D01*
X529788Y182657D01*
X529603Y182742D01*
X529419Y182826D01*
X529234Y182911D01*
X529049Y182996D01*
X528864Y183082D01*
X528679Y183168D01*
X528494Y183253D01*
X528309Y183339D01*
X528124Y183425D01*
X527939Y183512D01*
X527753Y183598D01*
X527568Y183685D01*
X527383Y183772D01*
X527197Y183859D01*
X527012Y183947D01*
X526826Y184034D01*
X526641Y184122D01*
X526455Y184210D01*
X526270Y184298D01*
X526084Y184386D01*
X525898Y184474D01*
X525712Y184563D01*
X525527Y184652D01*
X525341Y184740D01*
X525155Y184829D01*
X524969Y184919D01*
X524783Y185008D01*
X524597Y185098D01*
X524411Y185187D01*
X524225Y185277D01*
X524038Y185367D01*
X523852Y185457D01*
X523666Y185548D01*
X523480Y185638D01*
X523293Y185729D01*
X523107Y185819D01*
X522921Y185910D01*
X522735Y186001D01*
X522548Y186092D01*
X522362Y186184D01*
X522176Y186275D01*
X521989Y186367D01*
X521803Y186458D01*
X521616Y186550D01*
X521430Y186642D01*
X521243Y186734D01*
X521057Y186826D01*
X520870Y186918D01*
X520684Y187011D01*
X520497Y187103D01*
X520311Y187196D01*
X520124Y187288D01*
X519938Y187381D01*
X519751Y187474D01*
X519565Y187567D01*
X519378Y187660D01*
X519192Y187753D01*
X519005Y187847D01*
X518819Y187940D01*
X518632Y188033D01*
X518446Y188127D01*
X518259Y188221D01*
X518073Y188314D01*
X517886Y188408D01*
X517700Y188502D01*
X517514Y188596D01*
X517327Y188690D01*
X517234Y188737D01*
X517141Y188784D01*
X517048Y188831D01*
X516955Y188878D01*
X516861Y188925D01*
X516768Y188972D01*
X516675Y189019D01*
X516582Y189066D01*
X516489Y189113D01*
X516396Y189161D01*
X516302Y189208D01*
X516209Y189255D01*
X516116Y189302D01*
X516023Y189349D01*
X515930Y189397D01*
X515837Y189444D01*
X515744Y189491D01*
X515651Y189538D01*
X515557Y189585D01*
X515464Y189633D01*
X515371Y189680D01*
X515278Y189727D01*
X515185Y189775D01*
X515092Y189822D01*
X514999Y189869D01*
X514906Y189917D01*
X514813Y189964D01*
X514720Y190012D01*
X514627Y190059D01*
X514534Y190106D01*
X514441Y190154D01*
X514348Y190201D01*
X514255Y190249D01*
X514162Y190296D01*
X514069Y190343D01*
X513976Y190391D01*
X513883Y190438D01*
X513791Y190486D01*
X513698Y190533D01*
X513605Y190581D01*
X513512Y190628D01*
X513419Y190676D01*
X513326Y190723D01*
X513233Y190771D01*
X513140Y190818D01*
X513048Y190866D01*
X512955Y190913D01*
X512862Y190961D01*
X512769Y191008D01*
X512676Y191056D01*
X512584Y191103D01*
X512491Y191151D01*
X512398Y191198D01*
X512305Y191246D01*
X512213Y191293D01*
X512120Y191341D01*
X512027Y191388D01*
X511935Y191436D01*
X511842Y191483D01*
X511749Y191531D01*
X511657Y191579D01*
X511564Y191626D01*
X511472Y191674D01*
X511379Y191721D01*
X511286Y191769D01*
X511194Y191816D01*
X511101Y191864D01*
X511009Y191911D01*
X510916Y191959D01*
X510824Y192007D01*
X510731Y192054D01*
X510639Y192102D01*
X510546Y192149D01*
X510454Y192197D01*
X510362Y192244D01*
X510269Y192292D01*
X510177Y192339D01*
X510085Y192387D01*
X509992Y192434D01*
X509900Y192482D01*
X509808Y192529D01*
X509715Y192577D01*
X509623Y192624D01*
X509531Y192672D01*
X509439Y192719D01*
X509346Y192767D01*
X509254Y192814D01*
X509162Y192861D01*
X509070Y192909D01*
X508978Y192956D01*
X508886Y193004D01*
X508794Y193051D01*
X508702Y193099D01*
X508609Y193146D01*
X508518Y193193D01*
X508425Y193241D01*
X508333Y193288D01*
X508242Y193336D01*
X508149Y193383D01*
X508058Y193430D01*
X507966Y193478D01*
X507874Y193525D01*
X507782Y193572D01*
X507690Y193620D01*
X507598Y193667D01*
X507507Y193714D01*
X507415Y193762D01*
X507323Y193809D01*
X507231Y193856D01*
X507139Y193903D01*
X507048Y193950D01*
X506956Y193998D01*
X506865Y194045D01*
X506773Y194092D01*
X506681Y194139D01*
X506590Y194186D01*
X506498Y194234D01*
X506407Y194281D01*
X506315Y194328D01*
X506224Y194375D01*
X506132Y194422D01*
X506041Y194469D01*
X505949Y194516D01*
X505858Y194563D01*
X505767Y194610D01*
X505675Y194657D01*
X505584Y194704D01*
X505493Y194751D01*
X505402Y194798D01*
X505310Y194845D01*
X505219Y194892D01*
X505128Y194939D01*
X505037Y194986D01*
X504946Y195032D01*
X504855Y195079D01*
X504764Y195126D01*
X504673Y195173D01*
X504582Y195220D01*
X504491Y195266D01*
X504400Y195313D01*
X504309Y195360D01*
X504218Y195406D01*
X504127Y195453D01*
X504036Y195500D01*
X503945Y195546D01*
X503855Y195593D01*
X503764Y195640D01*
X503673Y195686D01*
X503582Y195732D01*
X503492Y195779D01*
X503401Y195826D01*
X503310Y195872D01*
X503220Y195918D01*
X503129Y195965D01*
X503039Y196011D01*
X502948Y196057D01*
X502858Y196104D01*
X502768Y196150D01*
X502677Y196196D01*
X502587Y196243D01*
X502496Y196289D01*
X502406Y196335D01*
X502316Y196381D01*
X502226Y196427D01*
X502135Y196473D01*
X502045Y196519D01*
X501955Y196565D01*
X501865Y196611D01*
X501775Y196658D01*
X501685Y196704D01*
X501595Y196749D01*
X501505Y196795D01*
X501415Y196841D01*
X501325Y196887D01*
X501235Y196933D01*
X501145Y196979D01*
X501056Y197024D01*
X500966Y197070D01*
X500876Y197116D01*
X500786Y197161D01*
X500697Y197207D01*
X500607Y197253D01*
X500518Y197298D01*
X500428Y197344D01*
X500338Y197389D01*
X500249Y197434D01*
X500159Y197480D01*
X500070Y197525D01*
X499981Y197571D01*
X499891Y197616D01*
X499802Y197661D01*
X499713Y197706D01*
X499623Y197752D01*
X499534Y197797D01*
X499445Y197842D01*
X499356Y197887D01*
X499267Y197932D01*
X499178Y197977D01*
X499089Y198022D01*
X499000Y198067D01*
X498911Y198112D01*
X498822Y198157D01*
X498733Y198202D01*
X498644Y198247D01*
X498556Y198291D01*
X498467Y198336D01*
X498378Y198381D01*
X498289Y198425D01*
X498201Y198470D01*
X498112Y198514D01*
X498024Y198559D01*
X497935Y198603D01*
X497847Y198648D01*
X497758Y198692D01*
X497670Y198737D01*
X497581Y198781D01*
X497493Y198825D01*
X497405Y198869D01*
X497317Y198913D01*
X497228Y198958D01*
X497052Y199046D01*
X496876Y199134D01*
X496700Y199221D01*
X496524Y199309D01*
X496349Y199396D01*
X496173Y199484D01*
X495998Y199571D01*
X495823Y199657D01*
X495648Y199744D01*
X495474Y199831D01*
X495299Y199917D01*
X495125Y200003D01*
X494951Y200089D01*
X494777Y200174D01*
X494603Y200260D01*
X494429Y200345D01*
X494256Y200430D01*
X494083Y200515D01*
X493910Y200600D01*
X493737Y200684D01*
X493564Y200768D01*
X493392Y200852D01*
X493219Y200936D01*
X493047Y201019D01*
X492875Y201103D01*
X492704Y201186D01*
X492532Y201268D01*
X492361Y201351D01*
X492190Y201433D01*
X492019Y201516D01*
X491848Y201597D01*
X491678Y201679D01*
X491508Y201760D01*
X491338Y201841D01*
X491168Y201922D01*
X490998Y202003D01*
X490829Y202083D01*
X490660Y202163D01*
X490491Y202243D01*
X490322Y202323D01*
X490153Y202402D01*
X489985Y202481D01*
X489817Y202560D01*
X489649Y202639D01*
X489481Y202717D01*
X489314Y202795D01*
X489147Y202872D01*
X488980Y202950D01*
X488813Y203027D01*
X488647Y203104D01*
X488480Y203181D01*
X488314Y203257D01*
X488148Y203333D01*
X487983Y203408D01*
X487818Y203484D01*
X487652Y203559D01*
X487488Y203634D01*
X487323Y203708D01*
X487159Y203783D01*
X486995Y203856D01*
X486831Y203930D01*
X486667Y204003D01*
X486504Y204076D01*
X486341Y204149D01*
X486178Y204221D01*
X486015Y204293D01*
X485853Y204365D01*
X485691Y204436D01*
X485529Y204507D01*
X485367Y204578D01*
X485206Y204649D01*
X485045Y204719D01*
X484884Y204788D01*
X484723Y204858D01*
X484563Y204927D01*
X484403Y204996D01*
X484243Y205064D01*
X484084Y205132D01*
X483925Y205200D01*
X483766Y205267D01*
X483607Y205334D01*
X483449Y205401D01*
X483291Y205467D01*
X483133Y205533D01*
X482975Y205598D01*
X482818Y205664D01*
X482661Y205728D01*
X482504Y205793D01*
X482348Y205857D01*
X482192Y205921D01*
X482036Y205984D01*
X481880Y206047D01*
X481725Y206110D01*
X481570Y206172D01*
X481415Y206234D01*
X481261Y206295D01*
X481107Y206356D01*
X480953Y206417D01*
X480799Y206477D01*
X480646Y206537D01*
X480493Y206596D01*
X480340Y206656D01*
X480188Y206714D01*
X480036Y206772D01*
X479884Y206830D01*
X479657Y206916D01*
X479582Y206945D01*
X479506Y206974D01*
X479429Y207004D01*
X479353Y207033D01*
X479276Y207064D01*
X479199Y207094D01*
X479121Y207125D01*
X479044Y207156D01*
X478966Y207188D01*
X478888Y207220D01*
X478809Y207252D01*
X478730Y207285D01*
X478651Y207318D01*
X478572Y207351D01*
X478492Y207385D01*
X478412Y207419D01*
X478332Y207454D01*
X478251Y207489D01*
X478171Y207524D01*
X478090Y207559D01*
X478008Y207595D01*
X477927Y207631D01*
X477845Y207668D01*
X477763Y207705D01*
X477680Y207742D01*
X477598Y207780D01*
X477515Y207818D01*
X477431Y207856D01*
X477348Y207895D01*
X477264Y207934D01*
X477180Y207973D01*
X477096Y208013D01*
X477011Y208053D01*
X476926Y208093D01*
X476841Y208134D01*
X476756Y208175D01*
X476670Y208216D01*
X476584Y208258D01*
X476498Y208300D01*
X476412Y208343D01*
X476325Y208385D01*
X476238Y208428D01*
X476151Y208472D01*
X476064Y208516D01*
X475976Y208560D01*
X475888Y208604D01*
X475800Y208649D01*
X475711Y208694D01*
X475623Y208739D01*
X475534Y208785D01*
X475445Y208831D01*
X475355Y208877D01*
X475265Y208924D01*
X475175Y208971D01*
X475085Y209018D01*
X474995Y209066D01*
X474904Y209114D01*
X474813Y209162D01*
X474722Y209211D01*
X474630Y209260D01*
X474539Y209309D01*
X474447Y209359D01*
X474354Y209409D01*
X474262Y209459D01*
X474169Y209509D01*
X474076Y209560D01*
X473983Y209612D01*
X473890Y209663D01*
X473796Y209715D01*
X473702Y209767D01*
X473608Y209819D01*
X473514Y209872D01*
X473419Y209925D01*
X473324Y209979D01*
X473229Y210032D01*
X473134Y210086D01*
X473038Y210140D01*
X472943Y210195D01*
X472847Y210250D01*
X472751Y210305D01*
X472654Y210361D01*
X472557Y210416D01*
X472460Y210472D01*
X472363Y210529D01*
X472266Y210586D01*
X472168Y210643D01*
X472071Y210700D01*
X471972Y210757D01*
X471874Y210815D01*
X471776Y210874D01*
X471677Y210932D01*
X471578Y210991D01*
X471479Y211050D01*
X471379Y211109D01*
X471280Y211169D01*
X471180Y211229D01*
X471080Y211289D01*
X470980Y211350D01*
X470879Y211411D01*
X470778Y211472D01*
X470678Y211533D01*
X470576Y211595D01*
X470475Y211657D01*
X470373Y211719D01*
X470272Y211782D01*
X470170Y211844D01*
X470068Y211908D01*
X469965Y211971D01*
X469862Y212035D01*
X469760Y212099D01*
X469657Y212163D01*
X469553Y212227D01*
X469450Y212292D01*
X469346Y212357D01*
X469242Y212422D01*
X469138Y212488D01*
X469034Y212554D01*
X468929Y212620D01*
X468720Y212753D01*
X468509Y212888D01*
X468298Y213023D01*
X468086Y213159D01*
X467874Y213297D01*
X467660Y213435D01*
X467446Y213575D01*
X467231Y213716D01*
X467015Y213857D01*
X466798Y214000D01*
X466581Y214144D01*
X466363Y214289D01*
X466144Y214434D01*
X465924Y214581D01*
X465704Y214729D01*
X465483Y214878D01*
X465261Y215028D01*
X465038Y215178D01*
X464815Y215330D01*
X464591Y215483D01*
X464367Y215637D01*
X464142Y215791D01*
X463916Y215947D01*
X463689Y216104D01*
X463462Y216261D01*
X463234Y216420D01*
X463005Y216579D01*
X462776Y216739D01*
X462546Y216900D01*
X462315Y217063D01*
X462084Y217226D01*
X461852Y217390D01*
X461620Y217554D01*
X461386Y217720D01*
X461153Y217887D01*
X460919Y218054D01*
X460684Y218223D01*
X460448Y218392D01*
X460212Y218562D01*
X459975Y218733D01*
X459738Y218905D01*
X459500Y219077D01*
X459262Y219250D01*
X459023Y219425D01*
X458783Y219600D01*
X458543Y219776D01*
X458302Y219952D01*
X458061Y220130D01*
X457820Y220308D01*
X457577Y220487D01*
X457335Y220667D01*
X457091Y220847D01*
X456848Y221029D01*
X456603Y221211D01*
X456359Y221394D01*
X456113Y221577D01*
X455868Y221762D01*
X455621Y221947D01*
X455375Y222132D01*
X455128Y222319D01*
X454880Y222506D01*
X454632Y222694D01*
X454383Y222883D01*
X454134Y223072D01*
X453885Y223262D01*
X453635Y223453D01*
X453385Y223644D01*
X453134Y223836D01*
X452883Y224029D01*
X452632Y224222D01*
X452380Y224416D01*
X452127Y224611D01*
X451874Y224806D01*
X451621Y225003D01*
X451368Y225199D01*
X451114Y225396D01*
X450860Y225594D01*
X450605Y225793D01*
X450350Y225992D01*
X450095Y226191D01*
X449839Y226391D01*
X449583Y226592D01*
X449327Y226793D01*
X449071Y226995D01*
X448813Y227198D01*
X448556Y227401D01*
X448299Y227605D01*
X448041Y227809D01*
X447783Y228013D01*
X447524Y228219D01*
X447265Y228424D01*
X447006Y228630D01*
X446747Y228837D01*
X446487Y229045D01*
X446228Y229252D01*
X445967Y229461D01*
X445707Y229669D01*
X445446Y229878D01*
X445186Y230088D01*
X444924Y230298D01*
X444663Y230509D01*
X444402Y230720D01*
X444009Y231037D01*
X443616Y231356D01*
X443222Y231675D01*
X442828Y231996D01*
X442433Y232317D01*
X442039Y232639D01*
X441643Y232962D01*
X441248Y233286D01*
X440852Y233611D01*
X440456Y233937D01*
X440059Y234263D01*
X439662Y234590D01*
X439265Y234918D01*
X438868Y235247D01*
X438471Y235576D01*
X438073Y235906D01*
X437675Y236237D01*
X437277Y236568D01*
X436879Y236900D01*
X436481Y237233D01*
X436082Y237566D01*
X435684Y237900D01*
X435285Y238234D01*
X434887Y238569D01*
X434488Y238904D01*
X434090Y239240D01*
X433691Y239576D01*
X433293Y239913D01*
X432894Y240250D01*
X432496Y240587D01*
X432098Y240925D01*
X431700Y241263D01*
X431302Y241602D01*
X430904Y241941D01*
X430506Y242280D01*
X430109Y242619D01*
X429712Y242959D01*
X429315Y243299D01*
X428918Y243639D01*
X428522Y243979D01*
X428126Y244319D01*
X427598Y244773D01*
X427071Y245228D01*
X426545Y245682D01*
X426019Y246136D01*
X425494Y246591D01*
X424970Y247045D01*
X424447Y247499D01*
X423924Y247954D01*
X423403Y248408D01*
X422882Y248862D01*
X422363Y249315D01*
X421845Y249769D01*
X421327Y250222D01*
X420811Y250674D01*
X420297Y251126D01*
X419783Y251578D01*
X419271Y252029D01*
X418760Y252479D01*
X418123Y253041D01*
X417489Y253602D01*
X416857Y254162D01*
X416228Y254720D01*
X415601Y255276D01*
X414977Y255832D01*
X414355Y256385D01*
X413736Y256937D01*
X413121Y257487D01*
X412386Y258145D01*
X411656Y258799D01*
X410930Y259451D01*
X410209Y260099D01*
X409493Y260743D01*
X408664Y261491D01*
X407843Y262233D01*
X407029Y262969D01*
X406108Y263804D01*
X405085Y264734D01*
X404075Y265653D01*
X402970Y266661D01*
X401669Y267851D01*
X400081Y269307D01*
X394856Y274131D01*
X392794Y276048D01*
X391688Y277079D01*
X390869Y277845D01*
X390233Y278440D01*
X389691Y278947D01*
X389164Y279442D01*
X388723Y279856D01*
X388293Y280260D01*
X387943Y280589D01*
X387601Y280911D01*
X387266Y281227D01*
X387004Y281474D01*
X386747Y281716D01*
X386495Y281954D01*
X386248Y282188D01*
X386006Y282416D01*
X385828Y282584D01*
X385653Y282750D01*
X385481Y282912D01*
X385312Y283072D01*
X385146Y283229D01*
X384983Y283383D01*
X384823Y283535D01*
X384666Y283684D01*
X384513Y283829D01*
X384362Y283972D01*
X378054Y286372D02*
X377973Y286355D01*
X377849Y286329D01*
X377723Y286303D01*
X377595Y286276D01*
X377465Y286249D01*
X377332Y286222D01*
X377197Y286194D01*
X377060Y286166D01*
X376921Y286138D01*
X376779Y286109D01*
X376635Y286080D01*
X376489Y286051D01*
X376341Y286022D01*
X376191Y285992D01*
X376038Y285962D01*
X375883Y285932D01*
X375727Y285902D01*
X375514Y285861D01*
X375298Y285819D01*
X375078Y285778D01*
X374854Y285736D01*
X374626Y285693D01*
X374394Y285650D01*
X374159Y285607D01*
X373920Y285564D01*
X373678Y285520D01*
X373432Y285476D01*
X373119Y285421D01*
X372800Y285365D01*
X372476Y285309D01*
X372146Y285253D01*
X371810Y285196D01*
X371469Y285139D01*
X371053Y285070D01*
X370628Y285002D01*
X370196Y284933D01*
X369756Y284863D01*
X369233Y284783D01*
X368699Y284702D01*
X368155Y284621D01*
X367521Y284529D01*
X366873Y284437D01*
X366129Y284334D01*
X365369Y284232D01*
X364505Y284120D01*
X363532Y283998D01*
X362444Y283868D01*
X361140Y283719D01*
X359604Y283554D01*
X357821Y283378D01*
X355353Y283159D01*
X330617Y282540D02*
X327080Y282686D01*
X323888Y282870D01*
X320926Y283085D01*
X318064Y283334D01*
X315311Y283612D01*
X312673Y283915D01*
X310009Y284257D01*
X307468Y284618D01*
X304907Y285017D01*
X302325Y285454D01*
X299878Y285903D01*
X297415Y286389D01*
X294938Y286913D01*
X292448Y287475D01*
X289945Y288078D01*
X287431Y288721D01*
X284906Y289406D01*
X282214Y290181D01*
X279355Y291057D01*
X277779Y291555D01*
X276386Y291998D01*
X275168Y292387D01*
X274118Y292724D01*
X273230Y293010D01*
X272497Y293246D01*
X271772Y293480D01*
X271197Y293667D01*
X270627Y293852D01*
X270061Y294036D01*
X269500Y294219D01*
X269082Y294355D01*
X268667Y294491D01*
X268254Y294626D01*
X267844Y294760D01*
X267436Y294894D01*
X267031Y295027D01*
X266628Y295159D01*
X266361Y295247D01*
X266095Y295334D01*
X265830Y295422D01*
X265566Y295509D01*
X265303Y295595D01*
X265042Y295682D01*
X264781Y295768D01*
X264522Y295853D01*
X264264Y295939D01*
X264006Y296024D01*
X263750Y296109D01*
X263495Y296193D01*
X263241Y296277D01*
X262988Y296361D01*
X262737Y296445D01*
X262486Y296528D01*
X262236Y296611D01*
X262112Y296653D01*
X261988Y296694D01*
X261864Y296735D01*
X261740Y296776D01*
X261617Y296817D01*
X261494Y296858D01*
X261371Y296899D01*
X261248Y296940D01*
X261126Y296981D01*
X261004Y297022D01*
X260882Y297062D01*
X260760Y297103D01*
X260639Y297143D01*
X260518Y297183D01*
X260398Y297224D01*
X260277Y297264D01*
X260157Y297304D01*
X260037Y297344D01*
X259917Y297384D01*
X259798Y297424D01*
X259679Y297464D01*
X259560Y297503D01*
X259441Y297543D01*
X259323Y297583D01*
X259205Y297622D01*
X259087Y297661D01*
X258969Y297701D01*
X258852Y297740D01*
X258735Y297779D01*
X258618Y297818D01*
X258501Y297857D01*
X258385Y297896D01*
X258269Y297935D01*
X258153Y297974D01*
X258037Y298013D01*
X257922Y298051D01*
X257807Y298090D01*
X257692Y298128D01*
X257578Y298167D01*
X257464Y298205D01*
X257349Y298243D01*
X257236Y298281D01*
X257122Y298319D01*
X257009Y298357D01*
X256896Y298395D01*
X256783Y298433D01*
X256671Y298471D01*
X256559Y298508D01*
X256447Y298546D01*
X256335Y298583D01*
X256223Y298621D01*
X256112Y298658D01*
X256001Y298695D01*
X255890Y298732D01*
X255780Y298769D01*
X255670Y298806D01*
X255560Y298843D01*
X255450Y298880D01*
X255341Y298917D01*
X255231Y298954D01*
X255122Y298990D01*
X255013Y299027D01*
X254905Y299063D01*
X254797Y299099D01*
X254689Y299136D01*
X254581Y299172D01*
X254473Y299208D01*
X254366Y299244D01*
X254259Y299280D01*
X254152Y299316D01*
X254046Y299351D01*
X253940Y299387D01*
X253834Y299423D01*
X253728Y299458D01*
X253622Y299493D01*
X253517Y299529D01*
X253412Y299564D01*
X253307Y299599D01*
X253203Y299634D01*
X253098Y299669D01*
X252994Y299704D01*
X252890Y299739D01*
X252787Y299774D01*
X252683Y299808D01*
X252580Y299843D01*
X252477Y299877D01*
X252375Y299912D01*
X252272Y299946D01*
X252170Y299980D01*
X252068Y300014D01*
X251967Y300049D01*
X251865Y300083D01*
X251764Y300116D01*
X251663Y300150D01*
X251562Y300184D01*
X251462Y300218D01*
X251361Y300251D01*
X251261Y300285D01*
X251162Y300318D01*
X251062Y300351D01*
X250963Y300384D01*
X250864Y300418D01*
X250765Y300451D01*
X250666Y300484D01*
X250568Y300517D01*
X250470Y300549D01*
X250372Y300582D01*
X250274Y300615D01*
X250177Y300647D01*
X250080Y300680D01*
X249983Y300712D01*
X249886Y300744D01*
X249790Y300776D01*
X249693Y300809D01*
X249597Y300840D01*
X249501Y300872D01*
X249406Y300904D01*
X249311Y300936D01*
X249216Y300968D01*
X249121Y300999D01*
X249026Y301031D01*
X248932Y301062D01*
X248837Y301093D01*
X248743Y301125D01*
X248650Y301156D01*
X248556Y301187D01*
X248463Y301218D01*
X248370Y301249D01*
X248277Y301279D01*
X248184Y301310D01*
X248092Y301341D01*
X248000Y301371D01*
X247908Y301402D01*
X247816Y301432D01*
X247725Y301462D01*
X247634Y301492D01*
X247543Y301522D01*
X247452Y301552D01*
X247361Y301582D01*
X247271Y301612D01*
X247181Y301642D01*
X247091Y301672D01*
X247001Y301701D01*
X246912Y301730D01*
X246823Y301760D01*
X246734Y301789D01*
X246645Y301818D01*
X246556Y301847D01*
X246468Y301876D01*
X246380Y301905D01*
X246292Y301934D01*
X246204Y301963D01*
X246117Y301992D01*
X246030Y302020D01*
X245942Y302048D01*
X245856Y302077D01*
X245769Y302105D01*
X245683Y302133D01*
X245597Y302162D01*
X245511Y302189D01*
X245425Y302217D01*
X245340Y302245D01*
X245254Y302273D01*
X245169Y302301D01*
X245084Y302328D01*
X245000Y302356D01*
X244915Y302383D01*
X244831Y302410D01*
X244747Y302438D01*
X244664Y302465D01*
X244580Y302492D01*
X244497Y302519D01*
X244413Y302545D01*
X244331Y302572D01*
X244248Y302599D01*
X244165Y302625D01*
X244083Y302652D01*
X244001Y302678D01*
X243919Y302705D01*
X243838Y302731D01*
X243756Y302757D01*
X243675Y302783D01*
X243594Y302809D01*
X243513Y302835D01*
X243433Y302860D01*
X243352Y302886D01*
X243272Y302911D01*
X243192Y302937D01*
X243112Y302962D01*
X243033Y302988D01*
X242954Y303013D01*
X242875Y303038D01*
X242796Y303063D01*
X242717Y303088D01*
X242638Y303112D01*
X242560Y303137D01*
X242482Y303162D01*
X242404Y303186D01*
X242326Y303211D01*
X242249Y303235D01*
X242172Y303259D01*
X242095Y303283D01*
X242018Y303308D01*
X241941Y303331D01*
X241865Y303355D01*
X241789Y303379D01*
X241713Y303403D01*
X241637Y303426D01*
X241561Y303450D01*
X241486Y303473D01*
X241410Y303497D01*
X241336Y303520D01*
X241261Y303543D01*
X241186Y303566D01*
X241112Y303589D01*
X241037Y303611D01*
X240963Y303634D01*
X240890Y303657D01*
X240816Y303679D01*
X240743Y303702D01*
X240669Y303724D01*
X240596Y303747D01*
X240524Y303769D01*
X240451Y303791D01*
X240378Y303813D01*
X240306Y303835D01*
X240234Y303856D01*
X240162Y303878D01*
X240091Y303900D01*
X240019Y303921D01*
X239948Y303942D01*
X239877Y303964D01*
X239806Y303985D01*
X239736Y304006D01*
X239665Y304027D01*
X239595Y304048D01*
X239525Y304069D01*
X239455Y304089D01*
X239385Y304110D01*
X239316Y304131D01*
X239246Y304151D01*
X239177Y304171D01*
X239108Y304191D01*
X239040Y304212D01*
X238971Y304232D01*
X238903Y304252D01*
X238835Y304272D01*
X238767Y304291D01*
X238699Y304311D01*
X238631Y304330D01*
X238564Y304350D01*
X238497Y304369D01*
X238430Y304388D01*
X238363Y304408D01*
X238296Y304427D01*
X238230Y304446D01*
X238164Y304465D01*
X238098Y304483D01*
X238032Y304502D01*
X237966Y304520D01*
X237900Y304539D01*
X237835Y304557D01*
X237770Y304575D01*
X237705Y304594D01*
X237640Y304612D01*
X237576Y304630D01*
X237511Y304648D01*
X237447Y304665D01*
X237383Y304683D01*
X237319Y304701D01*
X237256Y304718D01*
X237192Y304735D01*
X237129Y304753D01*
X237066Y304770D01*
X237003Y304787D01*
X236940Y304804D01*
X236878Y304821D01*
X236815Y304838D01*
X236753Y304854D01*
X236691Y304871D01*
X236629Y304887D01*
X236568Y304904D01*
X236506Y304920D01*
X236445Y304936D01*
X236384Y304952D01*
X236323Y304968D01*
X236262Y304984D01*
X236201Y305000D01*
X236141Y305015D01*
X236081Y305031D01*
X236021Y305047D01*
X235961Y305062D01*
X235901Y305077D01*
X235842Y305092D01*
X235782Y305107D01*
X235723Y305122D01*
X235664Y305137D01*
X235605Y305152D01*
X235547Y305167D01*
X235488Y305181D01*
X235430Y305196D01*
X235372Y305210D01*
X235314Y305224D01*
X235256Y305239D01*
X235199Y305253D01*
X235141Y305266D01*
X235084Y305280D01*
X235027Y305294D01*
X234970Y305308D01*
X234913Y305321D01*
X234857Y305335D01*
X234800Y305348D01*
X234744Y305361D01*
X234688Y305374D01*
X234632Y305387D01*
X234576Y305400D01*
X234521Y305413D01*
X234466Y305426D01*
X234410Y305438D01*
X234355Y305451D01*
X234300Y305463D01*
X234246Y305476D01*
X234191Y305488D01*
X234137Y305500D01*
X234083Y305512D01*
X234029Y305524D01*
X233975Y305536D01*
X233921Y305547D01*
X233868Y305559D01*
X233814Y305570D01*
X233761Y305581D01*
X233708Y305593D01*
X233655Y305604D01*
X233602Y305615D01*
X233550Y305626D01*
X233497Y305637D01*
X233445Y305647D01*
X233393Y305658D01*
X233341Y305669D01*
X233290Y305679D01*
X233238Y305689D01*
X233187Y305700D01*
X233135Y305710D01*
X233084Y305720D01*
X233033Y305730D01*
X232983Y305739D01*
X232932Y305749D01*
X232881Y305759D01*
X232831Y305768D01*
X232781Y305778D01*
X232731Y305787D01*
X232681Y305796D01*
X232632Y305805D01*
X232582Y305814D01*
X232533Y305823D01*
X232484Y305831D01*
X232435Y305840D01*
X232386Y305849D01*
X232337Y305857D01*
X232289Y305865D01*
X232240Y305873D01*
X232192Y305882D01*
X232144Y305890D01*
X232096Y305897D01*
X232048Y305905D01*
X232001Y305913D01*
X231953Y305920D01*
X231906Y305928D01*
X231859Y305935D01*
X231812Y305942D01*
X231765Y305949D01*
X231718Y305957D01*
X231672Y305963D01*
X231625Y305970D01*
X231579Y305977D01*
X231533Y305983D01*
X231487Y305990D01*
X231441Y305996D01*
X231396Y306003D01*
X231350Y306009D01*
X231305Y306015D01*
X231259Y306021D01*
X231214Y306027D01*
X231170Y306032D01*
X231125Y306038D01*
X231080Y306043D01*
X231036Y306049D01*
X230992Y306054D01*
X230947Y306059D01*
X230903Y306064D01*
X230859Y306069D01*
X230816Y306074D01*
X230772Y306079D01*
X230729Y306083D01*
X230686Y306088D01*
X230643Y306092D01*
X230599Y306097D01*
X230557Y306101D01*
X230514Y306105D01*
X230471Y306109D01*
X230429Y306113D01*
X230387Y306117D01*
X230345Y306120D01*
X230303Y306124D01*
X230261Y306127D01*
X230219Y306130D01*
X230178Y306134D01*
X230136Y306137D01*
X230095Y306140D01*
X230054Y306142D01*
X230013Y306145D01*
X229972Y306148D01*
X229931Y306151D01*
X229891Y306153D01*
X229850Y306155D01*
X229810Y306157D01*
X229770Y306159D01*
X229730Y306161D01*
X229690Y306163D01*
X229650Y306165D01*
X229611Y306167D01*
X229571Y306168D01*
X229532Y306170D01*
X229493Y306171D01*
X229453Y306172D01*
X229415Y306173D01*
X229376Y306174D01*
X229337Y306175D01*
X229299Y306176D01*
X229260Y306176D01*
X229222Y306177D01*
X229184Y306177D01*
X229146Y306178D01*
X229108Y306178D01*
X229070Y306178D01*
X229033Y306178D01*
X228995Y306178D01*
X228958Y306177D01*
X228921Y306177D01*
X228884Y306177D01*
X228847Y306176D01*
X228810Y306175D01*
X228773Y306174D01*
X228737Y306173D01*
X228701Y306172D01*
X228664Y306171D01*
X228628Y306170D01*
X228592Y306169D01*
X228556Y306167D01*
X228520Y306166D01*
X228485Y306164D01*
X228449Y306162D01*
X228414Y306160D01*
X228379Y306158D01*
X228344Y306156D01*
X228309Y306153D01*
X228274Y306151D01*
X228239Y306148D01*
X228204Y306146D01*
X228170Y306143D01*
X228136Y306140D01*
X228101Y306137D01*
X228067Y306134D01*
X228033Y306131D01*
X227999Y306127D01*
X227966Y306124D01*
X227932Y306120D01*
X227865Y306113D01*
X227799Y306105D01*
X227733Y306096D01*
X227668Y306087D01*
X227603Y306078D01*
X227538Y306068D01*
X227474Y306058D01*
X227411Y306047D01*
X227348Y306036D01*
X227285Y306024D01*
X227223Y306012D01*
X227162Y306000D01*
X227100Y305986D01*
X227040Y305973D01*
X226979Y305959D01*
X226920Y305944D01*
X226860Y305929D01*
X226801Y305914D01*
X226743Y305898D01*
X226685Y305882D01*
X226627Y305865D01*
X226570Y305847D01*
X226514Y305830D01*
X226458Y305811D01*
X226402Y305792D01*
X226346Y305773D01*
X226291Y305753D01*
X226237Y305733D01*
X226183Y305713D01*
X226129Y305692D01*
X226076Y305670D01*
X225997Y305636D01*
X225919Y305602D01*
X225841Y305566D01*
X225765Y305530D01*
X224577Y304719D02*
X224516Y304662D01*
X224455Y304604D01*
X224396Y304545D01*
X224337Y304484D01*
X224298Y304443D01*
X224259Y304402D01*
X224221Y304360D01*
X224183Y304317D01*
X224145Y304275D01*
X224108Y304231D01*
X224071Y304187D01*
X224034Y304143D01*
X223998Y304098D01*
X223962Y304052D01*
X223926Y304006D01*
X223890Y303960D01*
X223855Y303912D01*
X223820Y303865D01*
X223785Y303817D01*
X223751Y303768D01*
X223717Y303719D01*
X223683Y303670D01*
X223650Y303619D01*
X223616Y303569D01*
X223583Y303518D01*
X223551Y303466D01*
X223518Y303414D01*
X223486Y303361D01*
X223454Y303308D01*
X223422Y303254D01*
X223391Y303200D01*
X223360Y303145D01*
X223329Y303089D01*
X223313Y303062D01*
X223298Y303033D01*
X223283Y303005D01*
X223268Y302977D01*
X223253Y302949D01*
X223238Y302920D01*
X223223Y302891D01*
X223208Y302863D01*
X223193Y302834D01*
X223178Y302805D01*
X223163Y302776D01*
X223148Y302746D01*
X223134Y302717D01*
X223119Y302687D01*
X223105Y302657D01*
X223090Y302627D01*
X223076Y302597D01*
X223061Y302567D01*
X223047Y302537D01*
X223033Y302507D01*
X223019Y302476D01*
X223005Y302446D01*
X222991Y302415D01*
X222977Y302384D01*
X222963Y302353D01*
X222949Y302322D01*
X222935Y302290D01*
X222921Y302259D01*
X222907Y302227D01*
X222894Y302196D01*
X222880Y302164D01*
X222867Y302132D01*
X222853Y302100D01*
X222839Y302067D01*
X222826Y302035D01*
X222813Y302003D01*
X222799Y301970D01*
X222786Y301937D01*
X222773Y301904D01*
X222760Y301871D01*
X222747Y301838D01*
X222733Y301804D01*
X222721Y301771D01*
X222708Y301737D01*
X222695Y301704D01*
X222682Y301670D01*
X222669Y301636D01*
X222656Y301602D01*
X222643Y301567D01*
X222631Y301533D01*
X222618Y301499D01*
X222605Y301464D01*
X222593Y301429D01*
X222580Y301394D01*
X222568Y301359D01*
X222556Y301324D01*
X222543Y301288D01*
X222531Y301253D01*
X222519Y301217D01*
X222506Y301182D01*
X222494Y301146D01*
X222482Y301110D01*
X222470Y301073D01*
X222458Y301037D01*
X222446Y301001D01*
X222434Y300964D01*
X222422Y300927D01*
X222410Y300890D01*
X222398Y300853D01*
X222387Y300816D01*
X222375Y300779D01*
X222363Y300742D01*
X222351Y300704D01*
X222340Y300666D01*
X222328Y300629D01*
X222317Y300591D01*
X222305Y300553D01*
X222293Y300514D01*
X222282Y300476D01*
X222271Y300437D01*
X222259Y300399D01*
X222248Y300360D01*
X222237Y300321D01*
X222225Y300282D01*
X222214Y300243D01*
X222203Y300203D01*
X222192Y300164D01*
X222181Y300125D01*
X222170Y300085D01*
X222159Y300045D01*
X222148Y300005D01*
X222137Y299965D01*
X222126Y299924D01*
X222115Y299884D01*
X222104Y299843D01*
X222093Y299803D01*
X222082Y299762D01*
X222072Y299721D01*
X222061Y299680D01*
X222050Y299638D01*
X222039Y299597D01*
X222029Y299555D01*
X222018Y299514D01*
X222007Y299472D01*
X221997Y299430D01*
X221986Y299388D01*
X221976Y299345D01*
X221965Y299303D01*
X221955Y299261D01*
X221945Y299218D01*
X221934Y299175D01*
X221924Y299132D01*
X221914Y299089D01*
X221903Y299046D01*
X221893Y299002D01*
X221883Y298959D01*
X221872Y298915D01*
X221862Y298871D01*
X221852Y298828D01*
X221842Y298783D01*
X221832Y298739D01*
X221822Y298695D01*
X221812Y298650D01*
X221802Y298606D01*
X221792Y298561D01*
X221782Y298516D01*
X221772Y298471D01*
X221762Y298426D01*
X221752Y298380D01*
X221742Y298335D01*
X221732Y298289D01*
X221722Y298243D01*
X221712Y298198D01*
X221703Y298151D01*
X221693Y298105D01*
X221683Y298059D01*
X221673Y298012D01*
X221663Y297966D01*
X221654Y297919D01*
X221644Y297872D01*
X221635Y297825D01*
X221625Y297778D01*
X221615Y297731D01*
X221606Y297683D01*
X221596Y297635D01*
X221586Y297588D01*
X221577Y297540D01*
X221567Y297492D01*
X221558Y297444D01*
X221548Y297395D01*
X221539Y297347D01*
X221529Y297298D01*
X221520Y297249D01*
X221510Y297200D01*
X221501Y297151D01*
X221492Y297102D01*
X221482Y297053D01*
X221473Y297003D01*
X221463Y296954D01*
X221454Y296904D01*
X221445Y296854D01*
X221435Y296804D01*
X221426Y296754D01*
X221417Y296703D01*
X221407Y296653D01*
X221398Y296602D01*
X221389Y296551D01*
X221379Y296500D01*
X221370Y296449D01*
X221361Y296398D01*
X221352Y296347D01*
X221342Y296295D01*
X221333Y296244D01*
X221324Y296192D01*
X221315Y296140D01*
X221306Y296088D01*
X221297Y296035D01*
X221287Y295983D01*
X221278Y295931D01*
X221269Y295878D01*
X221260Y295825D01*
X221251Y295772D01*
X221242Y295719D01*
X221233Y295666D01*
X221223Y295612D01*
X221214Y295559D01*
X221205Y295505D01*
X221196Y295451D01*
X221187Y295397D01*
X221178Y295343D01*
X221169Y295289D01*
X221160Y295234D01*
X221150Y295180D01*
X221141Y295125D01*
X221132Y295070D01*
X221123Y295015D01*
X221114Y294960D01*
X221105Y294904D01*
X221096Y294849D01*
X221087Y294793D01*
X221078Y294738D01*
X221069Y294682D01*
X221060Y294626D01*
X221051Y294569D01*
X221041Y294513D01*
X221032Y294457D01*
X221023Y294400D01*
X221014Y294343D01*
X221005Y294286D01*
X220996Y294229D01*
X220987Y294172D01*
X220978Y294114D01*
X220969Y294057D01*
X220960Y293999D01*
X220941Y293883D01*
X220933Y293825D01*
X220924Y293766D01*
X220916Y293706D01*
X220909Y293646D01*
X220902Y293586D01*
X220895Y293524D01*
X220889Y293462D01*
X220883Y293400D01*
X220878Y293337D01*
X220873Y293273D01*
X220869Y293209D01*
X220865Y293144D01*
X220862Y293079D01*
X220859Y293013D01*
X220856Y292946D01*
X220854Y292879D01*
X220853Y292811D01*
X220852Y292743D01*
X220851Y292674D01*
X220851Y292604D01*
X220851Y292534D02*
X220851Y292604D01*
X220852Y292463D02*
X220851Y292534D01*
X220853Y292392D02*
X220852Y292463D01*
X220854Y292320D02*
X220853Y292392D01*
X220856Y292248D02*
X220854Y292320D01*
X220859Y292175D02*
X220856Y292248D01*
X220862Y292101D02*
X220859Y292175D01*
X220865Y292027D02*
X220862Y292101D01*
X220869Y291952D02*
X220865Y292027D01*
X220873Y291877D02*
X220869Y291952D01*
X220878Y291801D02*
X220873Y291877D01*
X220883Y291725D02*
X220878Y291801D01*
X220888Y291648D02*
X220883Y291725D01*
X220894Y291570D02*
X220888Y291648D01*
X220901Y291492D02*
X220894Y291570D01*
X220907Y291413D02*
X220901Y291492D01*
X220915Y291334D02*
X220907Y291413D01*
X220922Y291254D02*
X220915Y291334D01*
X220931Y291174D02*
X220922Y291254D01*
X220939Y291092D02*
X220931Y291174D01*
X220948Y291011D02*
X220939Y291092D01*
X220957Y290929D02*
X220948Y291011D01*
X220967Y290846D02*
X220957Y290929D01*
X220978Y290763D02*
X220967Y290846D01*
X220988Y290679D02*
X220978Y290763D01*
X220999Y290594D02*
X220988Y290679D01*
X221011Y290509D02*
X220999Y290594D01*
X221023Y290424D02*
X221011Y290509D01*
X221035Y290338D02*
X221023Y290424D01*
X221048Y290251D02*
X221035Y290338D01*
X221061Y290164D02*
X221048Y290251D01*
X221075Y290076D02*
X221061Y290164D01*
X221089Y289987D02*
X221075Y290076D01*
X221103Y289899D02*
X221089Y289987D01*
X221118Y289809D02*
X221103Y289899D01*
X221133Y289719D02*
X221118Y289809D01*
X221149Y289629D02*
X221133Y289719D01*
X221165Y289537D02*
X221149Y289629D01*
X221182Y289446D02*
X221165Y289537D01*
X221199Y289353D02*
X221182Y289446D01*
X221216Y289260D02*
X221199Y289353D01*
X221234Y289167D02*
X221216Y289260D01*
X221252Y289073D02*
X221234Y289167D01*
X221271Y288979D02*
X221252Y289073D01*
X221290Y288884D02*
X221271Y288979D01*
X221309Y288788D02*
X221290Y288884D01*
X221329Y288692D02*
X221309Y288788D01*
X221349Y288595D02*
X221329Y288692D01*
X221370Y288498D02*
X221349Y288595D01*
X221391Y288400D02*
X221370Y288498D01*
X221412Y288302D02*
X221391Y288400D01*
X221434Y288203D02*
X221412Y288302D01*
X221456Y288103D02*
X221434Y288203D01*
X221479Y288003D02*
X221456Y288103D01*
X221502Y287903D02*
X221479Y288003D01*
X221525Y287802D02*
X221502Y287903D01*
X221549Y287700D02*
X221525Y287802D01*
X221573Y287598D02*
X221549Y287700D01*
X221598Y287495D02*
X221573Y287598D01*
X221623Y287392D02*
X221598Y287495D01*
X221648Y287288D02*
X221623Y287392D01*
X221674Y287184D02*
X221648Y287288D01*
X221700Y287079D02*
X221674Y287184D01*
X221726Y286974D02*
X221700Y287079D01*
X221754Y286867D02*
X221726Y286974D01*
X221781Y286761D02*
X221754Y286867D01*
X221809Y286654D02*
X221781Y286761D01*
X221837Y286546D02*
X221809Y286654D01*
X221865Y286438D02*
X221837Y286546D01*
X221894Y286330D02*
X221865Y286438D01*
X221923Y286220D02*
X221894Y286330D01*
X221953Y286111D02*
X221923Y286220D01*
X221983Y286000D02*
X221953Y286111D01*
X222013Y285890D02*
X221983Y286000D01*
X222044Y285778D02*
X222013Y285890D01*
X222075Y285666D02*
X222044Y285778D01*
X222107Y285554D02*
X222075Y285666D01*
X222139Y285441D02*
X222107Y285554D01*
X222171Y285328D02*
X222139Y285441D01*
X222204Y285214D02*
X222171Y285328D01*
X222237Y285099D02*
X222204Y285214D01*
X222270Y284984D02*
X222237Y285099D01*
X222304Y284869D02*
X222270Y284984D01*
X222338Y284752D02*
X222304Y284869D01*
X222373Y284636D02*
X222338Y284752D01*
X222408Y284519D02*
X222373Y284636D01*
X222443Y284401D02*
X222408Y284519D01*
X222478Y284283D02*
X222443Y284401D01*
X222514Y284164D02*
X222478Y284283D01*
X222551Y284045D02*
X222514Y284164D01*
X222587Y283925D02*
X222551Y284045D01*
X222625Y283805D02*
X222587Y283925D01*
X222662Y283684D02*
X222625Y283805D01*
X222700Y283562D02*
X222662Y283684D01*
X222738Y283441D02*
X222700Y283562D01*
X222777Y283318D02*
X222738Y283441D01*
X222816Y283195D02*
X222777Y283318D01*
X222855Y283072D02*
X222816Y283195D01*
X222895Y282948D02*
X222855Y283072D01*
X222935Y282823D02*
X222895Y282948D01*
X222975Y282698D02*
X222935Y282823D01*
X223015Y282573D02*
X222975Y282698D01*
X223057Y282447D02*
X223015Y282573D01*
X223098Y282320D02*
X223057Y282447D01*
X223140Y282193D02*
X223098Y282320D01*
X223182Y282066D02*
X223140Y282193D01*
X223224Y281938D02*
X223182Y282066D01*
X223267Y281809D02*
X223224Y281938D01*
X223310Y281680D02*
X223267Y281809D01*
X223354Y281551D02*
X223310Y281680D01*
X223398Y281420D02*
X223354Y281551D01*
X223442Y281290D02*
X223398Y281420D01*
X223486Y281159D02*
X223442Y281290D01*
X223531Y281027D02*
X223486Y281159D01*
X223577Y280895D02*
X223531Y281027D01*
X223622Y280762D02*
X223577Y280895D01*
X223668Y280629D02*
X223622Y280762D01*
X223714Y280496D02*
X223668Y280629D01*
X223761Y280361D02*
X223714Y280496D01*
X223808Y280227D02*
X223761Y280361D01*
X223855Y280092D02*
X223808Y280227D01*
X223903Y279956D02*
X223855Y280092D01*
X223951Y279820D02*
X223903Y279956D01*
X223999Y279683D02*
X223951Y279820D01*
X224048Y279546D02*
X223999Y279683D01*
X224097Y279408D02*
X224048Y279546D01*
X224146Y279270D02*
X224097Y279408D01*
X224196Y279131D02*
X224146Y279270D01*
X224246Y278992D02*
X224196Y279131D01*
X224296Y278852D02*
X224246Y278992D01*
X224346Y278712D02*
X224296Y278852D01*
X224397Y278572D02*
X224346Y278712D01*
X224449Y278431D02*
X224397Y278572D01*
X224500Y278289D02*
X224449Y278431D01*
X224552Y278147D02*
X224500Y278289D01*
X224605Y278004D02*
X224552Y278147D01*
X224657Y277861D02*
X224605Y278004D01*
X224710Y277717D02*
X224657Y277861D01*
X224763Y277573D02*
X224710Y277717D01*
X224817Y277429D02*
X224763Y277573D01*
X224871Y277283D02*
X224817Y277429D01*
X224925Y277138D02*
X224871Y277283D01*
X224979Y276992D02*
X224925Y277138D01*
X225034Y276845D02*
X224979Y276992D01*
X225089Y276698D02*
X225034Y276845D01*
X225145Y276551D02*
X225089Y276698D01*
X225201Y276402D02*
X225145Y276551D01*
X225257Y276254D02*
X225201Y276402D01*
X225313Y276105D02*
X225257Y276254D01*
X225370Y275955D02*
X225313Y276105D01*
X225427Y275805D02*
X225370Y275955D01*
X225484Y275655D02*
X225427Y275805D01*
X225542Y275504D02*
X225484Y275655D01*
X225600Y275353D02*
X225542Y275504D01*
X225658Y275201D02*
X225600Y275353D01*
X225717Y275048D02*
X225658Y275201D01*
X225776Y274895D02*
X225717Y275048D01*
X225835Y274742D02*
X225776Y274895D01*
X225894Y274588D02*
X225835Y274742D01*
X225954Y274434D02*
X225894Y274588D01*
X226014Y274279D02*
X225954Y274434D01*
X226075Y274124D02*
X226014Y274279D01*
X226135Y273968D02*
X226075Y274124D01*
X226196Y273812D02*
X226135Y273968D01*
X226257Y273655D02*
X226196Y273812D01*
X226319Y273498D02*
X226257Y273655D01*
X226381Y273341D02*
X226319Y273498D01*
X226443Y273182D02*
X226381Y273341D01*
X226506Y273024D02*
X226443Y273182D01*
X226568Y272865D02*
X226506Y273024D01*
X226631Y272705D02*
X226568Y272865D01*
X226695Y272545D02*
X226631Y272705D01*
X226759Y272385D02*
X226695Y272545D01*
X226822Y272224D02*
X226759Y272385D01*
X226887Y272062D02*
X226822Y272224D01*
X226951Y271901D02*
X226887Y272062D01*
X227016Y271738D02*
X226951Y271901D01*
X227081Y271575D02*
X227016Y271738D01*
X227147Y271412D02*
X227081Y271575D01*
X227212Y271248D02*
X227147Y271412D01*
X227278Y271084D02*
X227212Y271248D01*
X227344Y270919D02*
X227278Y271084D01*
X227411Y270754D02*
X227344Y270919D01*
X227478Y270589D02*
X227411Y270754D01*
X227545Y270423D02*
X227478Y270589D01*
X227612Y270256D02*
X227545Y270423D01*
X227680Y270089D02*
X227612Y270256D01*
X227748Y269922D02*
X227680Y270089D01*
X227816Y269754D02*
X227748Y269922D01*
X227885Y269585D02*
X227816Y269754D01*
X227953Y269417D02*
X227885Y269585D01*
X228022Y269247D02*
X227953Y269417D01*
X228092Y269078D02*
X228022Y269247D01*
X228161Y268907D02*
X228092Y269078D01*
X228231Y268737D02*
X228161Y268907D01*
X228301Y268566D02*
X228231Y268737D01*
X228372Y268394D02*
X228301Y268566D01*
X228442Y268222D02*
X228372Y268394D01*
X228513Y268050D02*
X228442Y268222D01*
X228584Y267877D02*
X228513Y268050D01*
X228656Y267704D02*
X228584Y267877D01*
X228728Y267530D02*
X228656Y267704D01*
X228799Y267355D02*
X228728Y267530D01*
X228872Y267181D02*
X228799Y267355D01*
X228944Y267005D02*
X228872Y267181D01*
X229017Y266830D02*
X228944Y267005D01*
X229090Y266654D02*
X229017Y266830D01*
X229163Y266477D02*
X229090Y266654D01*
X229237Y266300D02*
X229163Y266477D01*
X229311Y266123D02*
X229237Y266300D01*
X229385Y265945D02*
X229311Y266123D01*
X229459Y265767D02*
X229385Y265945D01*
X229534Y265588D02*
X229459Y265767D01*
X229609Y265409D02*
X229534Y265588D01*
X229684Y265229D02*
X229609Y265409D01*
X229759Y265049D02*
X229684Y265229D01*
X229835Y264869D02*
X229759Y265049D01*
X229910Y264688D02*
X229835Y264869D01*
X229987Y264507D02*
X229910Y264688D01*
X230063Y264325D02*
X229987Y264507D01*
X230140Y264142D02*
X230063Y264325D01*
X230216Y263960D02*
X230140Y264142D01*
X230293Y263776D02*
X230216Y263960D01*
X230371Y263593D02*
X230293Y263776D01*
X230449Y263409D02*
X230371Y263593D01*
X230526Y263225D02*
X230449Y263409D01*
X230604Y263040D02*
X230526Y263225D01*
X230683Y262854D02*
X230604Y263040D01*
X230761Y262669D02*
X230683Y262854D01*
X230840Y262482D02*
X230761Y262669D01*
X230919Y262296D02*
X230840Y262482D01*
X230998Y262109D02*
X230919Y262296D01*
X231078Y261921D02*
X230998Y262109D01*
X231158Y261733D02*
X231078Y261921D01*
X231238Y261545D02*
X231158Y261733D01*
X231318Y261356D02*
X231238Y261545D01*
X231398Y261167D02*
X231318Y261356D01*
X231479Y260977D02*
X231398Y261167D01*
X231560Y260787D02*
X231479Y260977D01*
X231641Y260597D02*
X231560Y260787D01*
X231722Y260406D02*
X231641Y260597D01*
X231804Y260215D02*
X231722Y260406D01*
X231886Y260023D02*
X231804Y260215D01*
X231968Y259831D02*
X231886Y260023D01*
X232050Y259638D02*
X231968Y259831D01*
X232133Y259445D02*
X232050Y259638D01*
X232216Y259252D02*
X232133Y259445D01*
X232299Y259058D02*
X232216Y259252D01*
X232382Y258863D02*
X232299Y259058D01*
X232465Y258669D02*
X232382Y258863D01*
X232549Y258474D02*
X232465Y258669D01*
X232633Y258278D02*
X232549Y258474D01*
X232717Y258082D02*
X232633Y258278D01*
X232801Y257886D02*
X232717Y258082D01*
X232886Y257689D02*
X232801Y257886D01*
X232970Y257492D02*
X232886Y257689D01*
X233055Y257294D02*
X232970Y257492D01*
X233140Y257096D02*
X233055Y257294D01*
X233226Y256898D02*
X233140Y257096D01*
X233311Y256699D02*
X233226Y256898D01*
X233397Y256500D02*
X233311Y256699D01*
X233483Y256300D02*
X233397Y256500D01*
X233570Y256100D02*
X233483Y256300D01*
X233656Y255899D02*
X233570Y256100D01*
X233743Y255698D02*
X233656Y255899D01*
X233829Y255497D02*
X233743Y255698D01*
X233916Y255295D02*
X233829Y255497D01*
X234004Y255093D02*
X233916Y255295D01*
X234091Y254890D02*
X234004Y255093D01*
X234179Y254687D02*
X234091Y254890D01*
X234267Y254484D02*
X234179Y254687D01*
X234355Y254280D02*
X234267Y254484D01*
X234443Y254076D02*
X234355Y254280D01*
X234532Y253871D02*
X234443Y254076D01*
X234620Y253666D02*
X234532Y253871D01*
X234709Y253461D02*
X234620Y253666D01*
X234798Y253255D02*
X234709Y253461D01*
X234888Y253049D02*
X234798Y253255D01*
X234977Y252842D02*
X234888Y253049D01*
X235067Y252636D02*
X234977Y252842D01*
X235157Y252428D02*
X235067Y252636D01*
X235247Y252220D02*
X235157Y252428D01*
X235337Y252012D02*
X235247Y252220D01*
X235427Y251803D02*
X235337Y252012D01*
X235518Y251594D02*
X235427Y251803D01*
X235609Y251385D02*
X235518Y251594D01*
X235700Y251175D02*
X235609Y251385D01*
X235791Y250965D02*
X235700Y251175D01*
X235883Y250754D02*
X235791Y250965D01*
X235974Y250543D02*
X235883Y250754D01*
X236066Y250332D02*
X235974Y250543D01*
X236158Y250120D02*
X236066Y250332D01*
X236250Y249908D02*
X236158Y250120D01*
X236342Y249696D02*
X236250Y249908D01*
X236435Y249483D02*
X236342Y249696D01*
X236527Y249269D02*
X236435Y249483D01*
X236620Y249056D02*
X236527Y249269D01*
X236713Y248842D02*
X236620Y249056D01*
X236807Y248627D02*
X236713Y248842D01*
X236900Y248412D02*
X236807Y248627D01*
X236994Y248197D02*
X236900Y248412D01*
X237087Y247981D02*
X236994Y248197D01*
X237181Y247765D02*
X237087Y247981D01*
X237275Y247549D02*
X237181Y247765D01*
X237370Y247332D02*
X237275Y247549D01*
X237464Y247115D02*
X237370Y247332D01*
X237559Y246897D02*
X237464Y247115D01*
X237653Y246679D02*
X237559Y246897D01*
X237749Y246461D02*
X237653Y246679D01*
X237844Y246242D02*
X237749Y246461D01*
X237939Y246023D02*
X237844Y246242D01*
X238034Y245804D02*
X237939Y246023D01*
X238130Y245584D02*
X238034Y245804D01*
X238226Y245363D02*
X238130Y245584D01*
X238322Y245143D02*
X238226Y245363D01*
X238418Y244922D02*
X238322Y245143D01*
X238514Y244701D02*
X238418Y244922D01*
X238611Y244479D02*
X238514Y244701D01*
X238707Y244257D02*
X238611Y244479D01*
X238804Y244034D02*
X238707Y244257D01*
X238901Y243811D02*
X238804Y244034D01*
X238998Y243588D02*
X238901Y243811D01*
X239095Y243364D02*
X238998Y243588D01*
X239193Y243140D02*
X239095Y243364D01*
X239290Y242916D02*
X239193Y243140D01*
X239388Y242691D02*
X239290Y242916D01*
X239486Y242466D02*
X239388Y242691D01*
X239584Y242241D02*
X239486Y242466D01*
X239682Y242015D02*
X239584Y242241D01*
X239780Y241789D02*
X239682Y242015D01*
X239879Y241562D02*
X239780Y241789D01*
X239977Y241335D02*
X239879Y241562D01*
X240076Y241108D02*
X239977Y241335D01*
X240175Y240880D02*
X240076Y241108D01*
X240274Y240652D02*
X240175Y240880D01*
X240373Y240424D02*
X240274Y240652D01*
X240472Y240195D02*
X240373Y240424D01*
X240572Y239966D02*
X240472Y240195D01*
X240671Y239736D02*
X240572Y239966D01*
X240771Y239506D02*
X240671Y239736D01*
X240871Y239276D02*
X240771Y239506D01*
X240971Y239046D02*
X240871Y239276D01*
X241071Y238815D02*
X240971Y239046D01*
X241172Y238583D02*
X241071Y238815D01*
X241272Y238352D02*
X241172Y238583D01*
X241373Y238120D02*
X241272Y238352D01*
X241473Y237887D02*
X241373Y238120D01*
X241574Y237655D02*
X241473Y237887D01*
X241675Y237421D02*
X241574Y237655D01*
X241776Y237188D02*
X241675Y237421D01*
X241878Y236954D02*
X241776Y237188D01*
X241979Y236720D02*
X241878Y236954D01*
X242080Y236486D02*
X241979Y236720D01*
X242182Y236251D02*
X242080Y236486D01*
X242284Y236016D02*
X242182Y236251D01*
X242386Y235780D02*
X242284Y236016D01*
X242488Y235544D02*
X242386Y235780D01*
X242590Y235308D02*
X242488Y235544D01*
X242692Y235071D02*
X242590Y235308D01*
X242795Y234834D02*
X242692Y235071D01*
X242897Y234597D02*
X242795Y234834D01*
X243000Y234359D02*
X242897Y234597D01*
X243103Y234121D02*
X243000Y234359D01*
X243205Y233883D02*
X243103Y234121D01*
X243308Y233644D02*
X243205Y233883D01*
X243412Y233405D02*
X243308Y233644D01*
X243515Y233166D02*
X243412Y233405D01*
X243618Y232926D02*
X243515Y233166D01*
X243722Y232686D02*
X243618Y232926D01*
X243825Y232446D02*
X243722Y232686D01*
X243929Y232205D02*
X243825Y232446D01*
X244033Y231964D02*
X243929Y232205D01*
X244137Y231722D02*
X244033Y231964D01*
X244241Y231481D02*
X244137Y231722D01*
X244345Y231239D02*
X244241Y231481D01*
X244449Y230996D02*
X244345Y231239D01*
X244553Y230753D02*
X244449Y230996D01*
X244658Y230510D02*
X244553Y230753D01*
X244762Y230267D02*
X244658Y230510D01*
X244867Y230023D02*
X244762Y230267D01*
X244972Y229779D02*
X244867Y230023D01*
X245077Y229534D02*
X244972Y229779D01*
X245182Y229290D02*
X245077Y229534D01*
X245287Y229044D02*
X245182Y229290D01*
X245392Y228799D02*
X245287Y229044D01*
X245497Y228553D02*
X245392Y228799D01*
X245603Y228307D02*
X245497Y228553D01*
X245708Y228061D02*
X245603Y228307D01*
X245814Y227814D02*
X245708Y228061D01*
X246025Y227319D02*
X245814Y227814D01*
X246237Y226823D02*
X246025Y227319D01*
X246449Y226326D02*
X246237Y226823D01*
X246662Y225828D02*
X246449Y226326D01*
X246875Y225328D02*
X246662Y225828D01*
X247088Y224827D02*
X246875Y225328D01*
X247302Y224324D02*
X247088Y224827D01*
X247516Y223821D02*
X247302Y224324D01*
X247730Y223316D02*
X247516Y223821D01*
X247945Y222810D02*
X247730Y223316D01*
X248160Y222302D02*
X247945Y222810D01*
X248375Y221793D02*
X248160Y222302D01*
X248590Y221283D02*
X248375Y221793D01*
X248806Y220772D02*
X248590Y221283D01*
X249022Y220260D02*
X248806Y220772D01*
X249239Y219746D02*
X249022Y220260D01*
X249455Y219231D02*
X249239Y219746D01*
X249672Y218715D02*
X249455Y219231D01*
X249889Y218197D02*
X249672Y218715D01*
X250107Y217679D02*
X249889Y218197D01*
X250325Y217159D02*
X250107Y217679D01*
X250542Y216638D02*
X250325Y217159D01*
X250761Y216116D02*
X250542Y216638D01*
X250979Y215592D02*
X250761Y216116D01*
X251198Y215068D02*
X250979Y215592D01*
X251416Y214542D02*
X251198Y215068D01*
X251635Y214015D02*
X251416Y214542D01*
X251854Y213487D02*
X251635Y214015D01*
X252074Y212957D02*
X251854Y213487D01*
X252293Y212427D02*
X252074Y212957D01*
X252513Y211895D02*
X252293Y212427D01*
X252843Y211095D02*
X252513Y211895D01*
X253173Y210293D02*
X252843Y211095D01*
X253503Y209488D02*
X253173Y210293D01*
X253834Y208681D02*
X253503Y209488D01*
X254165Y207871D02*
X253834Y208681D01*
X254497Y207059D02*
X254165Y207871D01*
X254828Y206244D02*
X254497Y207059D01*
X255160Y205426D02*
X254828Y206244D01*
X255492Y204606D02*
X255160Y205426D01*
X255824Y203784D02*
X255492Y204606D01*
X256156Y202959D02*
X255824Y203784D01*
X256488Y202132D02*
X256156Y202959D01*
X256821Y201303D02*
X256488Y202132D01*
X257153Y200471D02*
X256821Y201303D01*
X257485Y199636D02*
X257153Y200471D01*
X257818Y198800D02*
X257485Y199636D01*
X258150Y197961D02*
X257818Y198800D01*
X258482Y197120D02*
X258150Y197961D01*
X258815Y196276D02*
X258482Y197120D01*
X259147Y195430D02*
X258815Y196276D01*
X259479Y194582D02*
X259147Y195430D01*
X259811Y193732D02*
X259479Y194582D01*
X260142Y192879D02*
X259811Y193732D01*
X260474Y192025D02*
X260142Y192879D01*
X260916Y190882D02*
X260474Y192025D01*
X261357Y189735D02*
X260916Y190882D01*
X261798Y188584D02*
X261357Y189735D01*
X262238Y187430D02*
X261798Y188584D01*
X262678Y186272D02*
X262238Y187430D01*
X263116Y185110D02*
X262678Y186272D01*
X263555Y183944D02*
X263116Y185110D01*
X263992Y182775D02*
X263555Y183944D01*
X264428Y181603D02*
X263992Y182775D01*
X264864Y180427D02*
X264428Y181603D01*
X265299Y179247D02*
X264864Y180427D01*
X265732Y178064D02*
X265299Y179247D01*
X266165Y176878D02*
X265732Y178064D01*
X266596Y175688D02*
X266165Y176878D01*
X267027Y174495D02*
X266596Y175688D01*
X267456Y173299D02*
X267027Y174495D01*
X267883Y172099D02*
X267456Y173299D01*
X268310Y170897D02*
X267883Y172099D01*
X268735Y169691D02*
X268310Y170897D01*
X269158Y168482D02*
X268735Y169691D01*
X269580Y167270D02*
X269158Y168482D01*
X270000Y166055D02*
X269580Y167270D01*
X270419Y164837D02*
X270000Y166055D01*
X270835Y163617D02*
X270419Y164837D01*
X271251Y162393D02*
X270835Y163617D01*
X271664Y161166D02*
X271251Y162393D01*
X272075Y159937D02*
X271664Y161166D01*
X272485Y158705D02*
X272075Y159937D01*
X272892Y157470D02*
X272485Y158705D01*
X273298Y156232D02*
X272892Y157470D01*
X273701Y154992D02*
X273298Y156232D01*
X274102Y153750D02*
X273701Y154992D01*
X274501Y152504D02*
X274102Y153750D01*
X274898Y151256D02*
X274501Y152504D01*
X275292Y150006D02*
X274898Y151256D01*
X275684Y148753D02*
X275292Y150006D01*
X276073Y147498D02*
X275684Y148753D01*
X276460Y146241D02*
X276073Y147498D01*
X276844Y144981D02*
X276460Y146241D01*
X277226Y143719D02*
X276844Y144981D01*
X277605Y142455D02*
X277226Y143719D01*
X277981Y141188D02*
X277605Y142455D01*
X278355Y139920D02*
X277981Y141188D01*
X278725Y138649D02*
X278355Y139920D01*
X279093Y137376D02*
X278725Y138649D01*
X279457Y136102D02*
X279093Y137376D01*
X279819Y134825D02*
X279457Y136102D01*
X280178Y133546D02*
X279819Y134825D01*
X280533Y132266D02*
X280178Y133546D01*
X280885Y130983D02*
X280533Y132266D01*
X281234Y129699D02*
X280885Y130983D01*
X281580Y128413D02*
X281234Y129699D01*
X281922Y127126D02*
X281580Y128413D01*
X282260Y125836D02*
X281922Y127126D01*
X282596Y124545D02*
X282260Y125836D01*
X282927Y123253D02*
X282596Y124545D01*
X283256Y121959D02*
X282927Y123253D01*
X283580Y120663D02*
X283256Y121959D01*
X283901Y119366D02*
X283580Y120663D01*
X284218Y118067D02*
X283901Y119366D01*
X284530Y116767D02*
X284218Y118067D01*
X284840Y115466D02*
X284530Y116767D01*
X285145Y114163D02*
X284840Y115466D01*
X285446Y112859D02*
X285145Y114163D01*
X285743Y111554D02*
X285446Y112859D01*
X286036Y110248D02*
X285743Y111554D01*
X286325Y108941D02*
X286036Y110248D01*
X286609Y107632D02*
X286325Y108941D01*
X286890Y106322D02*
X286609Y107632D01*
X287165Y105012D02*
X286890Y106322D01*
X287437Y103700D02*
X287165Y105012D01*
X287704Y102388D02*
X287437Y103700D01*
X287966Y101074D02*
X287704Y102388D01*
X288224Y99760D02*
X287966Y101074D01*
X288477Y98445D02*
X288224Y99760D01*
X288726Y97129D02*
X288477Y98445D01*
X288969Y95812D02*
X288726Y97129D01*
X289208Y94495D02*
X288969Y95812D01*
X289442Y93177D02*
X289208Y94495D01*
X289671Y91859D02*
X289442Y93177D01*
X289895Y90539D02*
X289671Y91859D01*
X290114Y89220D02*
X289895Y90539D01*
X290328Y87900D02*
X290114Y89220D01*
X290537Y86579D02*
X290328Y87900D01*
X290740Y85258D02*
X290537Y86579D01*
X290939Y83937D02*
X290740Y85258D01*
X291131Y82615D02*
X290939Y83937D01*
X291319Y81293D02*
X291131Y82615D01*
X291501Y79971D02*
X291319Y81293D01*
X291677Y78649D02*
X291501Y79971D01*
X291848Y77327D02*
X291677Y78649D01*
X292014Y76004D02*
X291848Y77327D01*
X292173Y74681D02*
X292014Y76004D01*
X292327Y73359D02*
X292173Y74681D01*
X292475Y72036D02*
X292327Y73359D01*
X292617Y70713D02*
X292475Y72036D01*
X292754Y69391D02*
X292617Y70713D01*
X292884Y68069D02*
X292754Y69391D01*
X293008Y66746D02*
X292884Y68069D01*
X293126Y65425D02*
X293008Y66746D01*
X293238Y64103D02*
X293126Y65425D01*
X293344Y62781D02*
X293238Y64103D01*
X293444Y61460D02*
X293344Y62781D01*
X293537Y60140D02*
X293444Y61460D01*
X293624Y58820D02*
X293537Y60140D01*
X293704Y57500D02*
X293624Y58820D01*
X293778Y56181D02*
X293704Y57500D01*
X293846Y54862D02*
X293778Y56181D01*
X293906Y53544D02*
X293846Y54862D01*
X293960Y52227D02*
X293906Y53544D01*
X294008Y50910D02*
X293960Y52227D01*
X294048Y49594D02*
X294008Y50910D01*
X294082Y48279D02*
X294048Y49594D01*
X294115Y46636D02*
X294082Y48279D01*
X294120Y46308D02*
X294115Y46636D01*
X294129Y45327D02*
X294120Y46308D01*
X294129Y44351D02*
X294116Y43059D01*
X294088Y41776D01*
X294046Y40504D01*
X293988Y39241D01*
X293916Y37987D01*
X293829Y36744D01*
X293728Y35510D01*
X293613Y34286D01*
X293483Y33071D01*
X293339Y31866D01*
X293182Y30671D01*
X293011Y29486D01*
X292826Y28311D01*
X292576Y26855D01*
X292305Y25414D01*
X292014Y23989D01*
X291703Y22579D01*
X291371Y21184D01*
X219771Y-40966D02*
X218478Y-41076D01*
X217189Y-41162D01*
X215904Y-41227D01*
X214623Y-41269D02*
X213559Y-41286D01*
X212499Y-41288D01*
X211442Y-41274D01*
X210390Y-41245D01*
X209342Y-41199D01*
X208298Y-41138D01*
X207260Y-41061D01*
X206432Y-40989D01*
X205608Y-40906D01*
X204788Y-40813D01*
X203971Y-40710D01*
X203158Y-40597D01*
X202349Y-40473D01*
X201545Y-40340D01*
X200744Y-40197D01*
X199948Y-40043D01*
X199156Y-39880D01*
X198368Y-39706D01*
X197586Y-39522D01*
X196808Y-39328D01*
X196035Y-39125D01*
X195268Y-38910D01*
X194506Y-38686D01*
X193749Y-38452D01*
X192998Y-38207D01*
X192252Y-37953D01*
X191512Y-37688D01*
X190778Y-37413D01*
X190050Y-37128D01*
X189329Y-36833D01*
X188613Y-36528D01*
X187905Y-36212D01*
X187203Y-35887D01*
X186507Y-35551D01*
X185819Y-35205D01*
X185137Y-34849D01*
X184463Y-34483D01*
X183796Y-34107D01*
X183136Y-33720D01*
X182484Y-33324D01*
X181840Y-32917D01*
X164245Y-9499D02*
X164068Y-8892D01*
X163899Y-8279D01*
X163737Y-7661D01*
X163583Y-7036D01*
X163436Y-6406D01*
X163296Y-5771D01*
X163165Y-5129D01*
X163041Y-4482D01*
X162924Y-3828D01*
X162816Y-3170D01*
X162715Y-2505D01*
X162623Y-1834D01*
X162538Y-1158D01*
X162461Y-476D01*
X162415Y-18D01*
X162372Y443D01*
X162332Y906D01*
X162297Y1371D01*
X162265Y1840D01*
X162236Y2310D01*
X162211Y2784D01*
X162190Y3260D01*
X162173Y3739D01*
X162160Y4220D01*
X162150Y4703D01*
X162144Y5190D01*
X162142Y5678D01*
X162143Y6170D02*
X162142Y5678D01*
X162149Y6664D02*
X162143Y6170D01*
X162158Y7161D02*
X162149Y6664D01*
X162171Y7660D02*
X162158Y7161D01*
X162188Y8162D02*
X162171Y7660D01*
X162209Y8666D02*
X162188Y8162D01*
X162234Y9173D02*
X162209Y8666D01*
X162263Y9682D02*
X162234Y9173D01*
X162296Y10194D02*
X162263Y9682D01*
X162332Y10709D02*
X162296Y10194D01*
X162373Y11226D02*
X162332Y10709D01*
X162418Y11746D02*
X162373Y11226D01*
X162466Y12269D02*
X162418Y11746D01*
X162519Y12794D02*
X162466Y12269D01*
X162576Y13321D02*
X162519Y12794D01*
X162636Y13852D02*
X162576Y13321D01*
X162701Y14384D02*
X162636Y13852D01*
X162770Y14920D02*
X162701Y14384D01*
X162844Y15458D02*
X162770Y14920D01*
X162921Y15998D02*
X162844Y15458D01*
X163002Y16541D02*
X162921Y15998D01*
X163088Y17087D02*
X163002Y16541D01*
X163177Y17635D02*
X163088Y17087D01*
X163271Y18186D02*
X163177Y17635D01*
X163369Y18740D02*
X163271Y18186D01*
X163472Y19296D02*
X163369Y18740D01*
X163578Y19854D02*
X163472Y19296D01*
X163689Y20415D02*
X163578Y19854D01*
X163804Y20979D02*
X163689Y20415D01*
X163924Y21546D02*
X163804Y20979D01*
X164048Y22115D02*
X163924Y21546D01*
X164175Y22686D02*
X164048Y22115D01*
X164308Y23260D02*
X164175Y22686D01*
X164445Y23837D02*
X164308Y23260D01*
X164586Y24417D02*
X164445Y23837D01*
X164732Y24999D02*
X164586Y24417D01*
X164882Y25583D02*
X164732Y24999D01*
X165036Y26170D02*
X164882Y25583D01*
X165195Y26760D02*
X165036Y26170D01*
X165358Y27352D02*
X165195Y26760D01*
X165612Y28246D02*
X165358Y27352D01*
X165652Y28386D02*
X165612Y28246D01*
X165692Y28527D02*
X165652Y28386D01*
X165731Y28669D02*
X165692Y28527D01*
X165770Y28811D02*
X165731Y28669D01*
X165809Y28954D02*
X165770Y28811D01*
X165848Y29097D02*
X165809Y28954D01*
X165885Y29241D02*
X165848Y29097D01*
X165923Y29386D02*
X165885Y29241D01*
X165961Y29531D02*
X165923Y29386D01*
X165997Y29676D02*
X165961Y29531D01*
X166034Y29822D02*
X165997Y29676D01*
X166070Y29969D02*
X166034Y29822D01*
X166106Y30116D02*
X166070Y29969D01*
X166141Y30264D02*
X166106Y30116D01*
X166177Y30412D02*
X166141Y30264D01*
X166211Y30561D02*
X166177Y30412D01*
X166246Y30710D02*
X166211Y30561D01*
X166280Y30860D02*
X166246Y30710D01*
X166313Y31010D02*
X166280Y30860D01*
X166347Y31161D02*
X166313Y31010D01*
X166379Y31313D02*
X166347Y31161D01*
X166412Y31465D02*
X166379Y31313D01*
X166444Y31617D02*
X166412Y31465D01*
X166476Y31771D02*
X166444Y31617D01*
X166507Y31924D02*
X166476Y31771D01*
X166569Y32233D02*
X166507Y31924D01*
X166630Y32544D02*
X166569Y32233D01*
X166689Y32857D02*
X166630Y32544D01*
X166746Y33173D02*
X166689Y32857D01*
X166802Y33490D02*
X166746Y33173D01*
X166857Y33810D02*
X166802Y33490D01*
X166910Y34131D02*
X166857Y33810D01*
X166962Y34455D02*
X166910Y34131D01*
X167013Y34781D02*
X166962Y34455D01*
X167061Y35109D02*
X167013Y34781D01*
X167109Y35439D02*
X167061Y35109D01*
X167155Y35771D02*
X167109Y35439D01*
X167200Y36105D02*
X167155Y35771D01*
X167243Y36441D02*
X167200Y36105D01*
X167285Y36779D02*
X167243Y36441D01*
X167326Y37119D02*
X167285Y36779D01*
X167365Y37461D02*
X167326Y37119D01*
X167403Y37806D02*
X167365Y37461D01*
X167439Y38152D02*
X167403Y37806D01*
X167474Y38500D02*
X167439Y38152D01*
X167508Y38851D02*
X167474Y38500D01*
X167540Y39203D02*
X167508Y38851D01*
X167571Y39557D02*
X167540Y39203D01*
X167601Y39913D02*
X167571Y39557D01*
X167629Y40271D02*
X167601Y39913D01*
X167656Y40632D02*
X167629Y40271D01*
X167681Y40994D02*
X167656Y40632D01*
X167705Y41358D02*
X167681Y40994D01*
X167728Y41724D02*
X167705Y41358D01*
X167750Y42092D02*
X167728Y41724D01*
X167770Y42462D02*
X167750Y42092D01*
X167788Y42834D02*
X167770Y42462D01*
X167806Y43207D02*
X167788Y42834D01*
X167822Y43583D02*
X167806Y43207D01*
X167837Y43960D02*
X167822Y43583D01*
X167850Y44340D02*
X167837Y43960D01*
X167862Y44721D02*
X167850Y44340D01*
X167873Y45104D02*
X167862Y44721D01*
X167883Y45489D02*
X167873Y45104D01*
X167891Y45876D02*
X167883Y45489D01*
X167898Y46265D02*
X167891Y45876D01*
X167903Y46656D02*
X167898Y46265D01*
X167907Y47048D02*
X167903Y46656D01*
X167910Y47443D02*
X167907Y47048D01*
X167912Y47839D02*
X167910Y47443D01*
X167912Y48237D02*
X167912Y48637D01*
X167909Y49038D01*
X167906Y49442D01*
X167901Y49847D01*
X167895Y50254D01*
X167888Y50662D01*
X167879Y51073D01*
X167869Y51485D01*
X167859Y51899D01*
X167846Y52315D01*
X167833Y52733D01*
X167818Y53152D01*
X167802Y53573D01*
X167784Y53996D01*
X167766Y54420D01*
X167746Y54847D01*
X167725Y55274D01*
X167703Y55704D01*
X167679Y56135D01*
X167655Y56568D01*
X167629Y57003D01*
X167602Y57439D01*
X167573Y57877D01*
X167544Y58317D01*
X167513Y58758D01*
X167481Y59201D01*
X167448Y59645D01*
X167414Y60092D01*
X167378Y60539D01*
X167342Y60989D01*
X167304Y61440D01*
X167265Y61892D01*
X167225Y62346D01*
X167183Y62802D01*
X167140Y63259D01*
X167097Y63718D01*
X167052Y64179D01*
X167006Y64641D01*
X166959Y65104D01*
X166910Y65569D01*
X166861Y66036D01*
X166810Y66504D01*
X166758Y66974D01*
X166706Y67445D01*
X166651Y67917D01*
X166596Y68392D01*
X166540Y68867D01*
X166482Y69344D01*
X166424Y69823D01*
X166364Y70303D01*
X166304Y70785D01*
X166242Y71268D01*
X166179Y71752D01*
X166114Y72238D01*
X166049Y72725D01*
X165983Y73214D01*
X165916Y73704D01*
X165847Y74196D01*
X165778Y74689D01*
X165707Y75183D01*
X165635Y75679D01*
X165562Y76176D01*
X165489Y76674D01*
X165414Y77174D01*
X165338Y77675D01*
X165261Y78178D01*
X165182Y78682D01*
X165103Y79187D01*
X165023Y79694D01*
X164942Y80202D01*
X164859Y80711D01*
X164776Y81222D01*
X164692Y81734D01*
X164606Y82247D01*
X164520Y82761D01*
X164432Y83277D01*
X164344Y83794D01*
X164254Y84312D01*
X164164Y84832D01*
X164072Y85353D01*
X163980Y85875D01*
X163886Y86398D01*
X163792Y86923D01*
X163696Y87448D01*
X163600Y87975D01*
X163502Y88503D01*
X163403Y89033D01*
X163304Y89564D01*
X163203Y90095D01*
X163102Y90628D01*
X162999Y91163D01*
X162896Y91698D01*
X162792Y92234D01*
X162686Y92772D01*
X162526Y93581D01*
X162364Y94392D01*
X162200Y95205D01*
X162034Y96022D01*
X161866Y96840D01*
X161695Y97662D01*
X161523Y98485D01*
X161348Y99311D01*
X161171Y100140D01*
X160993Y100970D01*
X160812Y101804D01*
X160629Y102639D01*
X160444Y103477D01*
X160257Y104317D01*
X160069Y105159D01*
X159878Y106003D01*
X159685Y106850D01*
X159490Y107699D01*
X159293Y108550D01*
X159095Y109403D01*
X158894Y110259D01*
X158692Y111116D01*
X158487Y111975D01*
X158281Y112837D01*
X158073Y113700D01*
X157863Y114566D01*
X157651Y115433D01*
X157437Y116302D01*
X157221Y117174D01*
X157004Y118047D01*
X156785Y118922D01*
X156564Y119799D01*
X156341Y120677D01*
X156116Y121558D01*
X155890Y122440D01*
X155662Y123324D01*
X155432Y124210D01*
X155201Y125097D01*
X154967Y125986D01*
X154732Y126877D01*
X154496Y127769D01*
X154257Y128663D01*
X154017Y129559D01*
X153776Y130456D01*
X153532Y131354D01*
X153287Y132255D01*
X153041Y133156D01*
X152792Y134059D01*
X152543Y134964D01*
X152207Y136172D01*
X151869Y137382D01*
X151528Y138595D01*
X151184Y139811D01*
X150837Y141028D01*
X150488Y142248D01*
X150136Y143470D01*
X149782Y144695D01*
X149424Y145921D01*
X149065Y147149D01*
X148703Y148379D01*
X148338Y149611D01*
X147970Y150845D01*
X147601Y152081D01*
X147229Y153318D01*
X146854Y154557D01*
X146477Y155798D01*
X146098Y157040D01*
X145716Y158283D01*
X145332Y159528D01*
X144946Y160775D01*
X144460Y162335D01*
X143971Y163896D01*
X143478Y165460D01*
X142982Y167025D01*
X142483Y168592D01*
X141980Y170161D01*
X141475Y171731D01*
X140966Y173302D01*
X140454Y174874D01*
X139939Y176448D01*
X139317Y178337D01*
X138691Y180227D01*
X138061Y182119D01*
X137427Y184011D01*
X136789Y185904D01*
X136147Y187797D01*
X135394Y190006D01*
X134635Y192215D01*
X133872Y194424D01*
X132995Y196947D01*
X132112Y199469D01*
X131111Y202305D01*
X130104Y205137D01*
X128977Y208280D01*
X127729Y211732D01*
X126244Y215801D01*
X124516Y220481D01*
X114167Y247448D02*
X111783Y253420D01*
X110112Y257558D01*
X108678Y261075D01*
X107483Y263983D01*
X106408Y266582D01*
X105454Y268877D01*
X104499Y271158D01*
X103665Y273141D01*
X102832Y275112D01*
X102119Y276792D01*
X101407Y278462D01*
X100695Y280124D01*
X99985Y281776D01*
X99394Y283145D01*
X98804Y284507D01*
X98214Y285862D01*
X97626Y287210D01*
X97038Y288551D01*
X96452Y289885D01*
X95984Y290947D01*
X95516Y292004D01*
X95050Y293056D01*
X94583Y294103D01*
X94118Y295145D01*
X93654Y296182D01*
X93191Y297214D01*
X92728Y298240D01*
X92152Y299517D01*
X91469Y301044D01*
X90370Y303589D01*
X89320Y306135D01*
X173146Y500271D02*
X172235Y499930D01*
X250740Y509245D02*
X247849Y509563D01*
X253611Y508882D02*
X250740Y509245D01*
X256461Y508476D02*
X253611Y508882D01*
X259290Y508029D02*
X256461Y508476D01*
X262096Y507540D02*
X259290Y508029D01*
X264880Y507012D02*
X262096Y507540D01*
X267641Y506446D02*
X264880Y507012D01*
X270572Y505799D02*
X267641Y506446D01*
X273475Y505111D02*
X270572Y505799D01*
X276349Y504384D02*
X273475Y505111D01*
X279382Y503567D02*
X276349Y504384D01*
X282380Y502708D02*
X279382Y503567D01*
X285526Y501754D02*
X282380Y502708D01*
X288811Y500698D02*
X285526Y501754D01*
X326114Y484231D02*
X323686Y485573D01*
X328069Y483120D02*
X326114Y484231D01*
X329714Y482163D02*
X328069Y483120D01*
X331196Y481284D02*
X329714Y482163D01*
X332520Y480483D02*
X331196Y481284D01*
X333695Y479761D02*
X332520Y480483D01*
X334724Y479119D02*
X333695Y479761D01*
X335739Y478477D02*
X334724Y479119D01*
X336616Y477915D02*
X335739Y478477D01*
X337483Y477354D02*
X336616Y477915D01*
X338338Y476793D02*
X337483Y477354D01*
X339063Y476313D02*
X338338Y476793D01*
X339780Y475833D02*
X339063Y476313D01*
X340488Y475354D02*
X339780Y475833D01*
X341189Y474875D02*
X340488Y475354D01*
X341766Y474477D02*
X341189Y474875D01*
X342338Y474080D02*
X341766Y474477D01*
X342904Y473683D02*
X342338Y474080D01*
X343464Y473287D02*
X342904Y473683D01*
X344018Y472891D02*
X343464Y473287D01*
X344567Y472497D02*
X344018Y472891D01*
X345001Y472182D02*
X344567Y472497D01*
X345432Y471868D02*
X345001Y472182D01*
X345859Y471554D02*
X345432Y471868D01*
X346282Y471241D02*
X345859Y471554D01*
X346702Y470929D02*
X346282Y471241D01*
X347117Y470617D02*
X346702Y470929D01*
X347529Y470307D02*
X347117Y470617D01*
X347937Y469997D02*
X347529Y470307D01*
X348341Y469688D02*
X347937Y469997D01*
X348741Y469379D02*
X348341Y469688D01*
X349137Y469072D02*
X348741Y469379D01*
X349432Y468842D02*
X349137Y469072D01*
X349724Y468612D02*
X349432Y468842D01*
X350015Y468383D02*
X349724Y468612D01*
X350303Y468155D02*
X350015Y468383D01*
X350588Y467927D02*
X350303Y468155D01*
X350872Y467700D02*
X350588Y467927D01*
X351153Y467473D02*
X350872Y467700D01*
X351525Y467172D02*
X351153Y467473D01*
X351801Y466947D02*
X351525Y467172D01*
X352076Y466723D02*
X351801Y466947D01*
X352258Y466574D02*
X352076Y466723D01*
X352439Y466426D02*
X352258Y466574D01*
X352620Y466278D02*
X352439Y466426D01*
X352800Y466130D02*
X352620Y466278D01*
X352979Y465983D02*
X352800Y466130D01*
X353158Y465836D02*
X352979Y465983D01*
X353335Y465690D02*
X353158Y465836D01*
X353513Y465544D02*
X353335Y465690D01*
X353689Y465398D02*
X353513Y465544D01*
X353865Y465253D02*
X353689Y465398D01*
X354040Y465108D02*
X353865Y465253D01*
X354215Y464964D02*
X354040Y465108D01*
X354388Y464820D02*
X354215Y464964D01*
X354561Y464677D02*
X354388Y464820D01*
X354734Y464534D02*
X354561Y464677D01*
X354906Y464391D02*
X354734Y464534D01*
X355077Y464249D02*
X354906Y464391D01*
X355162Y464178D02*
X355077Y464249D01*
X355247Y464108D02*
X355162Y464178D01*
X355332Y464037D02*
X355247Y464108D01*
X355417Y463966D02*
X355332Y464037D01*
X355502Y463896D02*
X355417Y463966D01*
X355587Y463825D02*
X355502Y463896D01*
X355671Y463755D02*
X355587Y463825D01*
X355755Y463685D02*
X355671Y463755D01*
X355839Y463615D02*
X355755Y463685D01*
X355923Y463545D02*
X355839Y463615D01*
X356007Y463475D02*
X355923Y463545D01*
X356090Y463405D02*
X356007Y463475D01*
X356174Y463335D02*
X356090Y463405D01*
X356257Y463266D02*
X356174Y463335D01*
X356340Y463196D02*
X356257Y463266D01*
X356423Y463127D02*
X356340Y463196D01*
X356506Y463057D02*
X356423Y463127D01*
X356589Y462988D02*
X356506Y463057D01*
X356672Y462919D02*
X356589Y462988D01*
X356754Y462850D02*
X356672Y462919D01*
X356836Y462781D02*
X356754Y462850D01*
X356918Y462712D02*
X356836Y462781D01*
X357000Y462644D02*
X356918Y462712D01*
X357082Y462575D02*
X357000Y462644D01*
X357164Y462506D02*
X357082Y462575D01*
X357245Y462438D02*
X357164Y462506D01*
X357327Y462370D02*
X357245Y462438D01*
X357408Y462302D02*
X357327Y462370D01*
X357489Y462233D02*
X357408Y462302D01*
X357570Y462165D02*
X357489Y462233D01*
X357651Y462098D02*
X357570Y462165D01*
X357732Y462030D02*
X357651Y462098D01*
X357812Y461962D02*
X357732Y462030D01*
X357893Y461895D02*
X357812Y461962D01*
X357973Y461827D02*
X357893Y461895D01*
X358053Y461760D02*
X357973Y461827D01*
X358133Y461692D02*
X358053Y461760D01*
X358213Y461625D02*
X358133Y461692D01*
X358293Y461558D02*
X358213Y461625D01*
X358372Y461491D02*
X358293Y461558D01*
X358452Y461424D02*
X358372Y461491D01*
X358531Y461357D02*
X358452Y461424D01*
X358611Y461291D02*
X358531Y461357D01*
X358690Y461224D02*
X358611Y461291D01*
X358769Y461158D02*
X358690Y461224D01*
X358847Y461091D02*
X358769Y461158D01*
X358926Y461025D02*
X358847Y461091D01*
X359005Y460959D02*
X358926Y461025D01*
X359083Y460893D02*
X359005Y460959D01*
X359161Y460826D02*
X359083Y460893D01*
X359240Y460761D02*
X359161Y460826D01*
X359318Y460695D02*
X359240Y460761D01*
X359396Y460629D02*
X359318Y460695D01*
X359473Y460564D02*
X359396Y460629D01*
X359551Y460498D02*
X359473Y460564D01*
X359629Y460432D02*
X359551Y460498D01*
X359706Y460367D02*
X359629Y460432D01*
X359783Y460302D02*
X359706Y460367D01*
X359860Y460237D02*
X359783Y460302D01*
X359938Y460172D02*
X359860Y460237D01*
X360015Y460107D02*
X359938Y460172D01*
X360091Y460042D02*
X360015Y460107D01*
X360168Y459977D02*
X360091Y460042D01*
X360245Y459913D02*
X360168Y459977D01*
X360321Y459848D02*
X360245Y459913D01*
X360398Y459784D02*
X360321Y459848D01*
X360474Y459719D02*
X360398Y459784D01*
X360550Y459655D02*
X360474Y459719D01*
X360626Y459591D02*
X360550Y459655D01*
X360702Y459527D02*
X360626Y459591D01*
X360778Y459463D02*
X360702Y459527D01*
X360853Y459399D02*
X360778Y459463D01*
X360929Y459335D02*
X360853Y459399D01*
X361004Y459271D02*
X360929Y459335D01*
X361080Y459208D02*
X361004Y459271D01*
X361155Y459144D02*
X361080Y459208D01*
X361230Y459081D02*
X361155Y459144D01*
X361305Y459018D02*
X361230Y459081D01*
X361380Y458954D02*
X361305Y459018D01*
X361455Y458891D02*
X361380Y458954D01*
X361529Y458828D02*
X361455Y458891D01*
X361604Y458765D02*
X361529Y458828D01*
X361678Y458702D02*
X361604Y458765D01*
X361753Y458640D02*
X361678Y458702D01*
X361827Y458577D02*
X361753Y458640D01*
X361901Y458514D02*
X361827Y458577D01*
X361975Y458452D02*
X361901Y458514D01*
X362049Y458390D02*
X361975Y458452D01*
X362123Y458327D02*
X362049Y458390D01*
X362197Y458265D02*
X362123Y458327D01*
X362271Y458203D02*
X362197Y458265D01*
X362344Y458141D02*
X362271Y458203D01*
X362418Y458079D02*
X362344Y458141D01*
X362491Y458017D02*
X362418Y458079D01*
X362564Y457956D02*
X362491Y458017D01*
X362637Y457894D02*
X362564Y457956D01*
X362710Y457832D02*
X362637Y457894D01*
X362784Y457771D02*
X362710Y457832D01*
X362856Y457710D02*
X362784Y457771D01*
X362929Y457649D02*
X362856Y457710D01*
X363002Y457587D02*
X362929Y457649D01*
X363074Y457526D02*
X363002Y457587D01*
X363147Y457465D02*
X363074Y457526D01*
X363219Y457405D02*
X363147Y457465D01*
X363292Y457344D02*
X363219Y457405D01*
X363364Y457283D02*
X363292Y457344D01*
X363436Y457222D02*
X363364Y457283D01*
X363508Y457162D02*
X363436Y457222D01*
X363580Y457101D02*
X363508Y457162D01*
X363652Y457041D02*
X363580Y457101D01*
X363724Y456981D02*
X363652Y457041D01*
X363796Y456921D02*
X363724Y456981D01*
X363867Y456861D02*
X363796Y456921D01*
X363939Y456801D02*
X363867Y456861D01*
X364010Y456741D02*
X363939Y456801D01*
X364082Y456681D02*
X364010Y456741D01*
X364153Y456622D02*
X364082Y456681D01*
X364224Y456562D02*
X364153Y456622D01*
X364295Y456502D02*
X364224Y456562D01*
X364366Y456443D02*
X364295Y456502D01*
X364437Y456384D02*
X364366Y456443D01*
X364508Y456324D02*
X364437Y456384D01*
X364579Y456265D02*
X364508Y456324D01*
X364650Y456206D02*
X364579Y456265D01*
X364720Y456147D02*
X364650Y456206D01*
X364791Y456088D02*
X364720Y456147D01*
X364861Y456030D02*
X364791Y456088D01*
X364932Y455971D02*
X364861Y456030D01*
X365002Y455912D02*
X364932Y455971D01*
X365073Y455854D02*
X365002Y455912D01*
X365143Y455795D02*
X365073Y455854D01*
X365213Y455737D02*
X365143Y455795D01*
X365283Y455679D02*
X365213Y455737D01*
X365353Y455621D02*
X365283Y455679D01*
X365423Y455563D02*
X365353Y455621D01*
X365493Y455505D02*
X365423Y455563D01*
X365563Y455447D02*
X365493Y455505D01*
X365632Y455389D02*
X365563Y455447D01*
X365702Y455331D02*
X365632Y455389D01*
X365772Y455274D02*
X365702Y455331D01*
X365841Y455216D02*
X365772Y455274D01*
X365911Y455159D02*
X365841Y455216D01*
X365980Y455101D02*
X365911Y455159D01*
X366049Y455044D02*
X365980Y455101D01*
X366119Y454987D02*
X366049Y455044D01*
X366188Y454930D02*
X366119Y454987D01*
X366257Y454873D02*
X366188Y454930D01*
X366326Y454816D02*
X366257Y454873D01*
X366395Y454759D02*
X366326Y454816D01*
X366464Y454703D02*
X366395Y454759D01*
X366533Y454646D02*
X366464Y454703D01*
X366602Y454589D02*
X366533Y454646D01*
X366670Y454533D02*
X366602Y454589D01*
X366739Y454476D02*
X366670Y454533D01*
X366808Y454420D02*
X366739Y454476D01*
X366877Y454364D02*
X366808Y454420D01*
X366945Y454308D02*
X366877Y454364D01*
X367014Y454252D02*
X366945Y454308D01*
X367082Y454196D02*
X367014Y454252D01*
X367150Y454140D02*
X367082Y454196D01*
X367219Y454084D02*
X367150Y454140D01*
X367287Y454029D02*
X367219Y454084D01*
X367355Y453973D02*
X367287Y454029D01*
X367424Y453918D02*
X367355Y453973D01*
X367492Y453862D02*
X367424Y453918D01*
X367560Y453807D02*
X367492Y453862D01*
X367628Y453752D02*
X367560Y453807D01*
X367696Y453696D02*
X367628Y453752D01*
X367764Y453641D02*
X367696Y453696D01*
X367831Y453586D02*
X367764Y453641D01*
X367899Y453531D02*
X367831Y453586D01*
X367967Y453476D02*
X367899Y453531D01*
X368035Y453422D02*
X367967Y453476D01*
X368103Y453367D02*
X368035Y453422D01*
X368170Y453313D02*
X368103Y453367D01*
X368238Y453258D02*
X368170Y453313D01*
X368305Y453204D02*
X368238Y453258D01*
X368373Y453149D02*
X368305Y453204D01*
X368441Y453095D02*
X368373Y453149D01*
X368508Y453041D02*
X368441Y453095D01*
X368576Y452987D02*
X368508Y453041D01*
X368643Y452933D02*
X368576Y452987D01*
X368710Y452879D02*
X368643Y452933D01*
X368777Y452825D02*
X368710Y452879D01*
X368845Y452772D02*
X368777Y452825D01*
X368912Y452718D02*
X368845Y452772D01*
X368979Y452664D02*
X368912Y452718D01*
X369046Y452611D02*
X368979Y452664D01*
X369113Y452558D02*
X369046Y452611D01*
X369181Y452504D02*
X369113Y452558D01*
X369248Y452451D02*
X369181Y452504D01*
X369315Y452398D02*
X369248Y452451D01*
X369449Y452292D02*
X369315Y452398D01*
X369583Y452186D02*
X369449Y452292D01*
X369716Y452081D02*
X369583Y452186D01*
X369850Y451976D02*
X369716Y452081D01*
X369983Y451871D02*
X369850Y451976D01*
X370117Y451767D02*
X369983Y451871D01*
X370250Y451663D02*
X370117Y451767D01*
X370383Y451559D02*
X370250Y451663D01*
X370517Y451456D02*
X370383Y451559D01*
X370650Y451353D02*
X370517Y451456D01*
X370783Y451250D02*
X370650Y451353D01*
X370916Y451148D02*
X370783Y451250D01*
X371048Y451046D02*
X370916Y451148D01*
X371181Y450944D02*
X371048Y451046D01*
X371314Y450842D02*
X371181Y450944D01*
X371447Y450741D02*
X371314Y450842D01*
X371580Y450640D02*
X371447Y450741D01*
X371712Y450540D02*
X371580Y450640D01*
X371845Y450440D02*
X371712Y450540D01*
X371977Y450340D02*
X371845Y450440D01*
X372110Y450241D02*
X371977Y450340D01*
X372243Y450141D02*
X372110Y450241D01*
X372375Y450042D02*
X372243Y450141D01*
X372508Y449944D02*
X372375Y450042D01*
X372640Y449846D02*
X372508Y449944D01*
X372773Y449748D02*
X372640Y449846D01*
X372905Y449650D02*
X372773Y449748D01*
X373038Y449553D02*
X372905Y449650D01*
X373171Y449456D02*
X373038Y449553D01*
X373304Y449359D02*
X373171Y449456D01*
X373436Y449263D02*
X373304Y449359D01*
X373569Y449167D02*
X373436Y449263D01*
X373702Y449071D02*
X373569Y449167D01*
X373834Y448976D02*
X373702Y449071D01*
X373968Y448880D02*
X373834Y448976D01*
X374100Y448786D02*
X373968Y448880D01*
X374233Y448691D02*
X374100Y448786D01*
X374367Y448597D02*
X374233Y448691D01*
X376713Y446996D02*
X376511Y447130D01*
X376917Y446863D02*
X376713Y446996D01*
X377188Y446687D02*
X376917Y446863D01*
X377461Y446512D02*
X377188Y446687D01*
X377734Y446338D02*
X377461Y446512D01*
X378008Y446165D02*
X377734Y446338D01*
X378283Y445993D02*
X378008Y446165D01*
X378628Y445780D02*
X378283Y445993D01*
X378974Y445568D02*
X378628Y445780D01*
X379392Y445317D02*
X378974Y445568D01*
X379813Y445068D02*
X379392Y445317D01*
X380377Y444739D02*
X379813Y445068D01*
X385261Y442190D02*
X384491Y442558D01*
X385885Y441899D02*
X385261Y442190D01*
X386438Y441648D02*
X385885Y441899D01*
X386918Y441435D02*
X386438Y441648D01*
X387402Y441224D02*
X386918Y441435D01*
X387809Y441049D02*
X387402Y441224D01*
X388221Y440877D02*
X387809Y441049D01*
X388635Y440705D02*
X388221Y440877D01*
X388970Y440569D02*
X388635Y440705D01*
X389307Y440434D02*
X388970Y440569D01*
X389646Y440300D02*
X389307Y440434D01*
X389988Y440166D02*
X389646Y440300D01*
X390333Y440034D02*
X389988Y440166D01*
X390680Y439902D02*
X390333Y440034D01*
X391030Y439771D02*
X390680Y439902D01*
X391383Y439641D02*
X391030Y439771D01*
X391649Y439544D02*
X391383Y439641D01*
X391917Y439447D02*
X391649Y439544D01*
X392187Y439352D02*
X391917Y439447D01*
X392458Y439256D02*
X392187Y439352D01*
X392730Y439161D02*
X392458Y439256D01*
X393005Y439066D02*
X392730Y439161D01*
X393281Y438972D02*
X393005Y439066D01*
X393559Y438878D02*
X393281Y438972D01*
X393838Y438785D02*
X393559Y438878D01*
X394119Y438692D02*
X393838Y438785D01*
X394402Y438600D02*
X394119Y438692D01*
X394687Y438508D02*
X394402Y438600D01*
X394973Y438416D02*
X394687Y438508D01*
X395261Y438325D02*
X394973Y438416D01*
X395551Y438235D02*
X395261Y438325D01*
X395843Y438144D02*
X395551Y438235D01*
X396137Y438055D02*
X395843Y438144D01*
X396432Y437965D02*
X396137Y438055D01*
X396729Y437877D02*
X396432Y437965D01*
X397029Y437788D02*
X396729Y437877D01*
X397330Y437700D02*
X397029Y437788D01*
X397633Y437612D02*
X397330Y437700D01*
X397938Y437525D02*
X397633Y437612D01*
X398245Y437438D02*
X397938Y437525D01*
X398554Y437352D02*
X398245Y437438D01*
X398866Y437266D02*
X398554Y437352D01*
X399179Y437180D02*
X398866Y437266D01*
X399389Y437123D02*
X399179Y437180D01*
X399599Y437067D02*
X399389Y437123D01*
X399811Y437010D02*
X399599Y437067D01*
X400024Y436954D02*
X399811Y437010D01*
X400237Y436898D02*
X400024Y436954D01*
X400452Y436842D02*
X400237Y436898D01*
X400667Y436786D02*
X400452Y436842D01*
X400884Y436730D02*
X400667Y436786D01*
X401101Y436675D02*
X400884Y436730D01*
X401319Y436620D02*
X401101Y436675D01*
X401539Y436564D02*
X401319Y436620D01*
X401759Y436509D02*
X401539Y436564D01*
X401980Y436455D02*
X401759Y436509D01*
X402202Y436400D02*
X401980Y436455D01*
X402425Y436346D02*
X402202Y436400D01*
X402649Y436291D02*
X402425Y436346D01*
X402875Y436237D02*
X402649Y436291D01*
X403101Y436183D02*
X402875Y436237D01*
X403328Y436129D02*
X403101Y436183D01*
X403556Y436076D02*
X403328Y436129D01*
X403785Y436022D02*
X403556Y436076D01*
X404015Y435969D02*
X403785Y436022D01*
X404247Y435916D02*
X404015Y435969D01*
X404479Y435863D02*
X404247Y435916D01*
X404712Y435810D02*
X404479Y435863D01*
X404947Y435757D02*
X404712Y435810D01*
X405182Y435705D02*
X404947Y435757D01*
X405418Y435652D02*
X405182Y435705D01*
X405656Y435600D02*
X405418Y435652D01*
X405894Y435548D02*
X405656Y435600D01*
X406134Y435496D02*
X405894Y435548D01*
X406375Y435445D02*
X406134Y435496D01*
X406617Y435393D02*
X406375Y435445D01*
X406859Y435342D02*
X406617Y435393D01*
X407103Y435290D02*
X406859Y435342D01*
X407348Y435239D02*
X407103Y435290D01*
X407595Y435188D02*
X407348Y435239D01*
X407842Y435137D02*
X407595Y435188D01*
X408090Y435087D02*
X407842Y435137D01*
X408340Y435036D02*
X408090Y435087D01*
X408590Y434986D02*
X408340Y435036D01*
X408842Y434935D02*
X408590Y434986D01*
X409095Y434885D02*
X408842Y434935D01*
X409349Y434835D02*
X409095Y434885D01*
X409604Y434785D02*
X409349Y434835D01*
X409861Y434736D02*
X409604Y434785D01*
X410118Y434686D02*
X409861Y434736D01*
X410377Y434637D02*
X410118Y434686D01*
X410637Y434587D02*
X410377Y434637D01*
X410898Y434538D02*
X410637Y434587D01*
X411160Y434489D02*
X410898Y434538D01*
X411423Y434441D02*
X411160Y434489D01*
X411688Y434392D02*
X411423Y434441D01*
X411953Y434343D02*
X411688Y434392D01*
X412220Y434295D02*
X411953Y434343D01*
X412488Y434246D02*
X412220Y434295D01*
X412758Y434198D02*
X412488Y434246D01*
X413028Y434150D02*
X412758Y434198D01*
X413300Y434102D02*
X413028Y434150D01*
X413573Y434054D02*
X413300Y434102D01*
X413847Y434007D02*
X413573Y434054D01*
X414123Y433959D02*
X413847Y434007D01*
X414399Y433912D02*
X414123Y433959D01*
X414677Y433864D02*
X414399Y433912D01*
X414957Y433817D02*
X414677Y433864D01*
X415237Y433770D02*
X414957Y433817D01*
X415519Y433723D02*
X415237Y433770D01*
X415802Y433676D02*
X415519Y433723D01*
X416086Y433630D02*
X415802Y433676D01*
X416372Y433583D02*
X416086Y433630D01*
X416658Y433537D02*
X416372Y433583D01*
X416947Y433491D02*
X416658Y433537D01*
X417236Y433444D02*
X416947Y433491D01*
X417527Y433398D02*
X417236Y433444D01*
X417819Y433352D02*
X417527Y433398D01*
X418112Y433307D02*
X417819Y433352D01*
X418407Y433261D02*
X418112Y433307D01*
X418703Y433215D02*
X418407Y433261D01*
X419000Y433170D02*
X418703Y433215D01*
X419299Y433124D02*
X419000Y433170D01*
X419599Y433079D02*
X419299Y433124D01*
X419900Y433034D02*
X419599Y433079D01*
X420203Y432989D02*
X419900Y433034D01*
X420507Y432944D02*
X420203Y432989D01*
X420812Y432899D02*
X420507Y432944D01*
X421119Y432854D02*
X420812Y432899D01*
X421427Y432810D02*
X421119Y432854D01*
X421736Y432765D02*
X421427Y432810D01*
X422047Y432721D02*
X421736Y432765D01*
X422360Y432677D02*
X422047Y432721D01*
X422673Y432632D02*
X422360Y432677D01*
X422988Y432588D02*
X422673Y432632D01*
X423305Y432544D02*
X422988Y432588D01*
X423623Y432500D02*
X423305Y432544D01*
X423942Y432457D02*
X423623Y432500D01*
X424263Y432413D02*
X423942Y432457D01*
X424585Y432369D02*
X424263Y432413D01*
X424908Y432326D02*
X424585Y432369D01*
X425233Y432283D02*
X424908Y432326D01*
X425560Y432239D02*
X425233Y432283D01*
X425888Y432196D02*
X425560Y432239D01*
X426217Y432153D02*
X425888Y432196D01*
X426548Y432110D02*
X426217Y432153D01*
X426880Y432067D02*
X426548Y432110D01*
X427214Y432024D02*
X426880Y432067D01*
X427549Y431982D02*
X427214Y432024D01*
X427886Y431939D02*
X427549Y431982D01*
X428224Y431896D02*
X427886Y431939D01*
X428563Y431854D02*
X428224Y431896D01*
X428905Y431812D02*
X428563Y431854D01*
X429247Y431769D02*
X428905Y431812D01*
X429591Y431727D02*
X429247Y431769D01*
X429937Y431685D02*
X429591Y431727D01*
X430284Y431643D02*
X429937Y431685D01*
X430633Y431601D02*
X430284Y431643D01*
X430983Y431559D02*
X430633Y431601D01*
X431335Y431518D02*
X430983Y431559D01*
X431688Y431476D02*
X431335Y431518D01*
X432043Y431434D02*
X431688Y431476D01*
X432399Y431393D02*
X432043Y431434D01*
X432757Y431352D02*
X432399Y431393D01*
X433117Y431310D02*
X432757Y431352D01*
X433478Y431269D02*
X433117Y431310D01*
X433840Y431228D02*
X433478Y431269D01*
X434205Y431187D02*
X433840Y431228D01*
X434570Y431146D02*
X434205Y431187D01*
X434938Y431105D02*
X434570Y431146D01*
X435307Y431064D02*
X434938Y431105D01*
X435677Y431023D02*
X435307Y431064D01*
X436049Y430982D02*
X435677Y431023D01*
X436423Y430941D02*
X436049Y430982D01*
X436799Y430901D02*
X436423Y430941D01*
X437176Y430860D02*
X436799Y430901D01*
X437554Y430820D02*
X437176Y430860D01*
X437934Y430780D02*
X437554Y430820D01*
X438316Y430739D02*
X437934Y430780D01*
X438700Y430699D02*
X438316Y430739D01*
X439085Y430659D02*
X438700Y430699D01*
X439472Y430619D02*
X439085Y430659D01*
X439860Y430579D02*
X439472Y430619D01*
X440250Y430539D02*
X439860Y430579D01*
X440642Y430499D02*
X440250Y430539D01*
X441036Y430459D02*
X440642Y430499D01*
X441431Y430419D02*
X441036Y430459D01*
X441828Y430379D02*
X441431Y430419D01*
X442226Y430340D02*
X441828Y430379D01*
X442626Y430300D02*
X442226Y430340D01*
X443028Y430261D02*
X442626Y430300D01*
X443432Y430221D02*
X443028Y430261D01*
X443837Y430182D02*
X443432Y430221D01*
X444244Y430142D02*
X443837Y430182D01*
X444653Y430103D02*
X444244Y430142D01*
X445063Y430064D02*
X444653Y430103D01*
X445476Y430024D02*
X445063Y430064D01*
X445890Y429985D02*
X445476Y430024D01*
X446305Y429946D02*
X445890Y429985D01*
X446723Y429907D02*
X446305Y429946D01*
X447142Y429868D02*
X446723Y429907D01*
X447563Y429829D02*
X447142Y429868D01*
X447986Y429790D02*
X447563Y429829D01*
X448410Y429751D02*
X447986Y429790D01*
X448836Y429712D02*
X448410Y429751D01*
X449264Y429674D02*
X448836Y429712D01*
X449694Y429635D02*
X449264Y429674D01*
X450126Y429596D02*
X449694Y429635D01*
X450559Y429558D02*
X450126Y429596D01*
X450994Y429519D02*
X450559Y429558D01*
X451431Y429480D02*
X450994Y429519D01*
X451870Y429442D02*
X451431Y429480D01*
X452311Y429403D02*
X451870Y429442D01*
X452753Y429365D02*
X452311Y429403D01*
X453197Y429326D02*
X452753Y429365D01*
X453644Y429288D02*
X453197Y429326D01*
X454091Y429250D02*
X453644Y429288D01*
X454541Y429212D02*
X454091Y429250D01*
X454993Y429173D02*
X454541Y429212D01*
X455446Y429135D02*
X454993Y429173D01*
X455902Y429097D02*
X455446Y429135D01*
X456359Y429059D02*
X455902Y429097D01*
X456818Y429021D02*
X456359Y429059D01*
X457279Y428982D02*
X456818Y429021D01*
X457742Y428944D02*
X457279Y428982D01*
X458207Y428906D02*
X457742Y428944D01*
X458673Y428868D02*
X458207Y428906D01*
X459142Y428830D02*
X458673Y428868D01*
X459612Y428792D02*
X459142Y428830D01*
X460084Y428755D02*
X459612Y428792D01*
X460559Y428717D02*
X460084Y428755D01*
X461035Y428679D02*
X460559Y428717D01*
X461513Y428641D02*
X461035Y428679D01*
X462234Y428584D02*
X461513Y428641D01*
X463195Y428505D02*
X462234Y428584D01*
X464389Y428398D02*
X463195Y428505D01*
X465575Y428279D02*
X464389Y428398D01*
X466752Y428151D02*
X465575Y428279D01*
X467922Y428013D02*
X466752Y428151D01*
X469083Y427864D02*
X467922Y428013D01*
X470236Y427706D02*
X469083Y427864D01*
X471381Y427538D02*
X470236Y427706D01*
X472518Y427360D02*
X471381Y427538D01*
X473872Y427133D02*
X472518Y427360D01*
X475214Y426893D02*
X473872Y427133D01*
X476545Y426639D02*
X475214Y426893D01*
X477864Y426371D02*
X476545Y426639D01*
X479172Y426089D02*
X477864Y426371D01*
X480684Y425744D02*
X479172Y426089D01*
X482181Y425380D02*
X480684Y425744D01*
X483662Y424999D02*
X482181Y425380D01*
X485337Y424541D02*
X483662Y424999D01*
X486992Y424061D02*
X485337Y424541D01*
X523801Y404319D02*
X522454Y405421D01*
X524982Y403324D02*
X523801Y404319D01*
X526147Y402313D02*
X524982Y403324D01*
X527297Y401288D02*
X526147Y402313D01*
X528290Y400379D02*
X527297Y401288D01*
X529272Y399459D02*
X528290Y400379D01*
X530243Y398529D02*
X529272Y399459D01*
X531202Y397587D02*
X530243Y398529D01*
X532015Y396773D02*
X531202Y397587D01*
X532820Y395950D02*
X532015Y396773D01*
X533617Y395120D02*
X532820Y395950D01*
X534406Y394283D02*
X533617Y395120D01*
X535187Y393439D02*
X534406Y394283D01*
X535960Y392588D02*
X535187Y393439D01*
X536724Y391729D02*
X535960Y392588D01*
X537481Y390864D02*
X536724Y391729D01*
X538231Y389993D02*
X537481Y390864D01*
X538849Y389261D02*
X538231Y389993D01*
X539462Y388526D02*
X538849Y389261D01*
X540070Y387785D02*
X539462Y388526D01*
X540672Y387041D02*
X540070Y387785D01*
X541270Y386292D02*
X540672Y387041D01*
X541862Y385539D02*
X541270Y386292D01*
X542449Y384782D02*
X541862Y385539D01*
X543030Y384020D02*
X542449Y384782D01*
X543607Y383255D02*
X543030Y384020D01*
X544179Y382486D02*
X543607Y383255D01*
X544745Y381712D02*
X544179Y382486D01*
X545307Y380936D02*
X544745Y381712D01*
X545864Y380155D02*
X545307Y380936D01*
X546415Y379370D02*
X545864Y380155D01*
X546962Y378583D02*
X546415Y379370D01*
X547504Y377791D02*
X546962Y378583D01*
X548041Y376996D02*
X547504Y377791D01*
X548574Y376198D02*
X548041Y376996D01*
X549101Y375396D02*
X548574Y376198D01*
X549624Y374591D02*
X549101Y375396D01*
X550142Y373783D02*
X549624Y374591D01*
X550656Y372972D02*
X550142Y373783D01*
X551165Y372158D02*
X550656Y372972D01*
X551670Y371340D02*
X551165Y372158D01*
X552070Y370685D02*
X551670Y371340D01*
X552467Y370027D02*
X552070Y370685D01*
X552862Y369367D02*
X552467Y370027D01*
X553253Y368706D02*
X552862Y369367D01*
X553642Y368043D02*
X553253Y368706D01*
X554028Y367378D02*
X553642Y368043D01*
X554411Y366712D02*
X554028Y367378D01*
X554792Y366044D02*
X554411Y366712D01*
X555169Y365374D02*
X554792Y366044D01*
X555544Y364703D02*
X555169Y365374D01*
X555917Y364030D02*
X555544Y364703D01*
X556286Y363356D02*
X555917Y364030D01*
X556653Y362681D02*
X556286Y363356D01*
X557017Y362004D02*
X556653Y362681D01*
X557378Y361325D02*
X557017Y362004D01*
X557737Y360645D02*
X557378Y361325D01*
X558094Y359964D02*
X557737Y360645D01*
X558447Y359282D02*
X558094Y359964D01*
X558798Y358598D02*
X558447Y359282D01*
X559146Y357914D02*
X558798Y358598D01*
X559492Y357228D02*
X559146Y357914D01*
X559836Y356541D02*
X559492Y357228D01*
X560177Y355852D02*
X559836Y356541D01*
X560515Y355163D02*
X560177Y355852D01*
X560851Y354473D02*
X560515Y355163D01*
X561184Y353782D02*
X560851Y354473D01*
X561515Y353089D02*
X561184Y353782D01*
X561844Y352396D02*
X561515Y353089D01*
X562170Y351702D02*
X561844Y352396D01*
X562494Y351007D02*
X562170Y351702D01*
X562815Y350311D02*
X562494Y351007D01*
X563134Y349615D02*
X562815Y350311D01*
X563451Y348918D02*
X563134Y349615D01*
X563765Y348220D02*
X563451Y348918D01*
X564077Y347521D02*
X563765Y348220D01*
X564387Y346822D02*
X564077Y347521D01*
X564694Y346122D02*
X564387Y346822D01*
X565000Y345421D02*
X564694Y346122D01*
X565303Y344720D02*
X565000Y345421D01*
X565604Y344018D02*
X565303Y344720D01*
X565902Y343316D02*
X565604Y344018D01*
X566199Y342614D02*
X565902Y343316D01*
X566493Y341911D02*
X566199Y342614D01*
X566785Y341208D02*
X566493Y341911D01*
X567075Y340504D02*
X566785Y341208D01*
X567363Y339800D02*
X567075Y340504D01*
X567649Y339096D02*
X567363Y339800D01*
X567933Y338392D02*
X567649Y339096D01*
X568215Y337687D02*
X567933Y338392D01*
X568494Y336982D02*
X568215Y337687D01*
X568772Y336277D02*
X568494Y336982D01*
X569047Y335572D02*
X568772Y336277D01*
X569321Y334867D02*
X569047Y335572D01*
X569593Y334162D02*
X569321Y334867D01*
X569796Y333633D02*
X569593Y334162D01*
X569997Y333105D02*
X569796Y333633D01*
X570197Y332576D02*
X569997Y333105D01*
X570397Y332047D02*
X570197Y332576D01*
X570595Y331519D02*
X570397Y332047D01*
X570792Y330990D02*
X570595Y331519D01*
X570988Y330462D02*
X570792Y330990D01*
X571183Y329933D02*
X570988Y330462D01*
X571377Y329405D02*
X571183Y329933D01*
X571570Y328877D02*
X571377Y329405D01*
X571762Y328349D02*
X571570Y328877D01*
X571953Y327821D02*
X571762Y328349D01*
X572143Y327294D02*
X571953Y327821D01*
X572332Y326766D02*
X572143Y327294D01*
X572520Y326239D02*
X572332Y326766D01*
X572707Y325712D02*
X572520Y326239D01*
X572893Y325186D02*
X572707Y325712D01*
X573078Y324659D02*
X572893Y325186D01*
X573262Y324133D02*
X573078Y324659D01*
X573445Y323607D02*
X573262Y324133D01*
X573628Y323082D02*
X573445Y323607D01*
X573809Y322557D02*
X573628Y323082D01*
X573989Y322032D02*
X573809Y322557D01*
X574169Y321507D02*
X573989Y322032D01*
X574347Y320983D02*
X574169Y321507D01*
X574525Y320459D02*
X574347Y320983D01*
X574701Y319936D02*
X574525Y320459D01*
X574877Y319413D02*
X574701Y319936D01*
X575052Y318890D02*
X574877Y319413D01*
X575226Y318368D02*
X575052Y318890D01*
X575399Y317846D02*
X575226Y318368D01*
X575572Y317325D02*
X575399Y317846D01*
X575743Y316804D02*
X575572Y317325D01*
X575914Y316284D02*
X575743Y316804D01*
X576084Y315764D02*
X575914Y316284D01*
X576253Y315245D02*
X576084Y315764D01*
X576421Y314726D02*
X576253Y315245D01*
X576532Y314380D02*
X576421Y314726D01*
X576644Y314035D02*
X576532Y314380D01*
X576754Y313690D02*
X576644Y314035D01*
X576865Y313345D02*
X576754Y313690D01*
X576975Y313001D02*
X576865Y313345D01*
X577085Y312656D02*
X576975Y313001D01*
X577194Y312313D02*
X577085Y312656D01*
X577304Y311969D02*
X577194Y312313D01*
X577412Y311625D02*
X577304Y311969D01*
X577521Y311282D02*
X577412Y311625D01*
X577629Y310940D02*
X577521Y311282D01*
X577737Y310597D02*
X577629Y310940D01*
X577844Y310255D02*
X577737Y310597D01*
X577951Y309913D02*
X577844Y310255D01*
X578058Y309571D02*
X577951Y309913D01*
X578165Y309230D02*
X578058Y309571D01*
X578271Y308889D02*
X578165Y309230D01*
X578376Y308548D02*
X578271Y308889D01*
X578482Y308208D02*
X578376Y308548D01*
X578587Y307868D02*
X578482Y308208D01*
X578692Y307528D02*
X578587Y307868D01*
X578796Y307189D02*
X578692Y307528D01*
X578901Y306850D02*
X578796Y307189D01*
X579005Y306511D02*
X578901Y306850D01*
X579108Y306172D02*
X579005Y306511D01*
X579211Y305835D02*
X579108Y306172D01*
X579314Y305497D02*
X579211Y305835D01*
X579417Y305160D02*
X579314Y305497D01*
X579519Y304823D02*
X579417Y305160D01*
X579622Y304486D02*
X579519Y304823D01*
X579723Y304150D02*
X579622Y304486D01*
X579825Y303814D02*
X579723Y304150D01*
X579926Y303479D02*
X579825Y303814D01*
X580027Y303144D02*
X579926Y303479D01*
X580127Y302809D02*
X580027Y303144D01*
X580228Y302475D02*
X580127Y302809D01*
X580328Y302141D02*
X580228Y302475D01*
X580428Y301808D02*
X580328Y302141D01*
X580527Y301475D02*
X580428Y301808D01*
X580626Y301142D02*
X580527Y301475D01*
X580725Y300810D02*
X580626Y301142D01*
X580774Y300644D02*
X580725Y300810D01*
X580824Y300478D02*
X580774Y300644D01*
X580873Y300313D02*
X580824Y300478D01*
X580922Y300147D02*
X580873Y300313D01*
X580971Y299982D02*
X580922Y300147D01*
X581020Y299816D02*
X580971Y299982D01*
X581069Y299651D02*
X581020Y299816D01*
X581118Y299486D02*
X581069Y299651D01*
X581167Y299321D02*
X581118Y299486D01*
X581216Y299156D02*
X581167Y299321D01*
X581264Y298991D02*
X581216Y299156D01*
X581313Y298826D02*
X581264Y298991D01*
X581362Y298662D02*
X581313Y298826D01*
X581410Y298497D02*
X581362Y298662D01*
X581459Y298333D02*
X581410Y298497D01*
X581507Y298168D02*
X581459Y298333D01*
X581555Y298004D02*
X581507Y298168D01*
X581603Y297840D02*
X581555Y298004D01*
X581652Y297676D02*
X581603Y297840D01*
X581700Y297513D02*
X581652Y297676D01*
X581748Y297349D02*
X581700Y297513D01*
X581796Y297185D02*
X581748Y297349D01*
X581844Y297022D02*
X581796Y297185D01*
X581892Y296859D02*
X581844Y297022D01*
X581940Y296695D02*
X581892Y296859D01*
X581987Y296532D02*
X581940Y296695D01*
X582035Y296369D02*
X581987Y296532D01*
X582083Y296206D02*
X582035Y296369D01*
X582130Y296044D02*
X582083Y296206D01*
X582178Y295881D02*
X582130Y296044D01*
X582225Y295719D02*
X582178Y295881D01*
X582272Y295556D02*
X582225Y295719D01*
X582320Y295394D02*
X582272Y295556D01*
X582367Y295232D02*
X582320Y295394D01*
X582414Y295070D02*
X582367Y295232D01*
X582462Y294908D02*
X582414Y295070D01*
X582509Y294746D02*
X582462Y294908D01*
X582556Y294584D02*
X582509Y294746D01*
X582603Y294423D02*
X582556Y294584D01*
X582650Y294262D02*
X582603Y294423D01*
X582696Y294100D02*
X582650Y294262D01*
X582743Y293939D02*
X582696Y294100D01*
X582790Y293778D02*
X582743Y293939D01*
X582883Y293457D02*
X582790Y293778D01*
X583389Y291691D02*
X582883Y293457D01*
X584100Y289128D02*
X583389Y291691D01*
X584783Y286573D02*
X584100Y289128D01*
X585478Y283868D02*
X584783Y286573D01*
X586142Y281173D02*
X585478Y283868D01*
X586811Y278331D02*
X586142Y281173D01*
X587481Y275348D02*
X586811Y278331D01*
X588147Y272225D02*
X587481Y275348D01*
X588833Y268814D02*
X588147Y272225D01*
X589529Y265125D02*
X588833Y268814D01*
X590248Y261016D02*
X589529Y265125D01*
X591037Y256060D02*
X590248Y261016D01*
X594012Y226960D02*
X593809Y230361D01*
X594140Y224398D02*
X594012Y226960D01*
X594230Y222258D02*
X594140Y224398D01*
X594296Y220399D02*
X594230Y222258D01*
X594342Y218811D02*
X594296Y220399D01*
X594377Y217365D02*
X594342Y218811D01*
X594402Y216056D02*
X594377Y217365D01*
X594419Y214880D02*
X594402Y216056D01*
X594431Y213718D02*
X594419Y214880D01*
X594438Y212683D02*
X594431Y213718D01*
X594441Y211660D02*
X594438Y212683D01*
X594441Y210761D02*
X594437Y209871D01*
X594432Y209099D01*
X594424Y208335D01*
X594414Y207578D01*
X594402Y206828D01*
X594390Y206192D01*
X594377Y205561D01*
X594362Y204935D01*
X594346Y204315D01*
X594328Y203701D01*
X594313Y203193D01*
X594296Y202690D01*
X594278Y202190D01*
X594260Y201694D01*
X594240Y201203D01*
X594220Y200715D01*
X594199Y200232D01*
X594181Y199848D01*
X594163Y199467D01*
X594144Y199088D01*
X594125Y198712D01*
X594105Y198339D01*
X594085Y197969D01*
X594064Y197601D01*
X594043Y197236D01*
X594021Y196874D01*
X593999Y196514D01*
X593976Y196158D01*
X593953Y195804D01*
X593929Y195453D01*
X593912Y195191D01*
X593893Y194931D01*
X593875Y194673D01*
X593856Y194416D01*
X593837Y194161D01*
X593818Y193907D01*
X593798Y193656D01*
X593778Y193405D01*
X593758Y193157D01*
X593738Y192910D01*
X593718Y192664D01*
X593697Y192420D01*
X593677Y192178D01*
X593655Y191938D01*
X593634Y191699D01*
X593613Y191462D01*
X593591Y191226D01*
X593569Y190993D01*
X593547Y190761D01*
X593525Y190530D01*
X593502Y190301D01*
X593480Y190074D01*
X593457Y189849D01*
X593442Y189700D01*
X593426Y189551D01*
X593411Y189403D01*
X593395Y189256D01*
X593380Y189110D01*
X593364Y188965D01*
X593348Y188820D01*
X593332Y188676D01*
X593316Y188533D01*
X593300Y188391D01*
X593284Y188249D01*
X593268Y188108D01*
X593252Y187968D01*
X593236Y187829D01*
X593219Y187690D01*
X593203Y187553D01*
X593186Y187416D01*
X593170Y187280D01*
X593153Y187144D01*
X593137Y187010D01*
X593120Y186876D01*
X593103Y186743D01*
X593086Y186611D01*
X593069Y186479D01*
X593052Y186349D01*
X593035Y186219D01*
X593018Y186090D01*
X593001Y185962D01*
X592984Y185835D01*
X592967Y185708D01*
X592949Y185582D01*
X592932Y185457D01*
X592914Y185333D01*
X592897Y185210D01*
X592880Y185088D01*
X592862Y184966D01*
X592844Y184845D01*
X592827Y184725D01*
X592809Y184606D01*
X592791Y184487D01*
X592774Y184370D01*
X592756Y184253D01*
X592738Y184137D01*
X592720Y184022D01*
X592702Y183908D01*
X592684Y183794D01*
X592666Y183682D01*
X592648Y183570D01*
X592630Y183459D01*
X592612Y183349D01*
X592594Y183240D01*
X592576Y183132D01*
X592557Y183024D01*
X592539Y182917D01*
X592521Y182811D01*
X592502Y182706D01*
X592484Y182602D01*
X592475Y182551D01*
X592466Y182499D01*
X592457Y182448D01*
X592447Y182397D01*
X592438Y182346D01*
X592429Y182295D01*
X592420Y182245D01*
X592411Y182194D01*
X592401Y182144D01*
X592392Y182094D01*
X592383Y182045D01*
X592374Y181995D01*
X592364Y181946D01*
X592355Y181897D01*
X592346Y181849D01*
X592337Y181800D01*
X592327Y181752D01*
X592318Y181704D01*
X592309Y181656D01*
X592300Y181608D01*
X592290Y181561D01*
X592281Y181514D01*
X592272Y181466D01*
X592262Y181420D01*
X592253Y181373D01*
X592244Y181327D01*
X592234Y181281D01*
X592225Y181235D01*
X592216Y181189D01*
X592206Y181144D01*
X592197Y181098D01*
X592188Y181053D01*
X592178Y181008D01*
X592169Y180964D01*
X592160Y180920D01*
X592150Y180875D01*
X592141Y180831D01*
X592132Y180788D01*
X592122Y180744D01*
X592113Y180701D01*
X592104Y180658D01*
X592094Y180615D01*
X592085Y180572D01*
X592076Y180530D01*
X592066Y180488D01*
X592057Y180446D01*
X592048Y180404D01*
X592038Y180363D01*
X592029Y180322D01*
X592019Y180280D01*
X592010Y180240D01*
X592001Y180199D01*
X591991Y180159D01*
X591982Y180119D01*
X591973Y180079D01*
X591963Y180039D01*
X591954Y179999D01*
X591945Y179960D01*
X591935Y179921D01*
X591926Y179882D01*
X591916Y179844D01*
X591907Y179805D01*
X591898Y179767D01*
X591888Y179729D01*
X591879Y179692D01*
X591870Y179654D01*
X591860Y179617D01*
X591851Y179580D01*
X591842Y179543D01*
X591832Y179507D01*
X591823Y179471D01*
X591813Y179434D01*
X591804Y179399D01*
X591795Y179363D01*
X591785Y179328D01*
X591776Y179292D01*
X591767Y179258D01*
X591757Y179223D01*
X591748Y179188D01*
X591739Y179154D01*
X591720Y179086D01*
X591712Y179058D01*
X591704Y179030D01*
X591696Y179001D01*
X591689Y178973D01*
X591681Y178945D01*
X591673Y178916D01*
X591665Y178888D01*
X591657Y178860D01*
X591649Y178832D01*
X591642Y178804D01*
X591634Y178775D01*
X591626Y178747D01*
X591618Y178719D01*
X591610Y178691D01*
X591603Y178663D01*
X591595Y178635D01*
X591587Y178607D01*
X591579Y178579D01*
X591572Y178551D01*
X591564Y178523D01*
X591556Y178495D01*
X591549Y178467D01*
X591541Y178439D01*
X591533Y178412D01*
X591526Y178384D01*
X591518Y178356D01*
X591510Y178328D01*
X591503Y178300D01*
X591495Y178273D01*
X591487Y178245D01*
X591479Y178217D01*
X591472Y178190D01*
X591464Y178162D01*
X591457Y178134D01*
X591449Y178107D01*
X591441Y178079D01*
X591434Y178051D01*
X591426Y178024D01*
X591419Y177996D01*
X591411Y177969D01*
X591403Y177941D01*
X591396Y177914D01*
X591388Y177886D01*
X591381Y177859D01*
X591373Y177832D01*
X591365Y177804D01*
X591358Y177777D01*
X591350Y177750D01*
X591343Y177722D01*
X591335Y177695D01*
X591328Y177668D01*
X591320Y177641D01*
X591313Y177613D01*
X591305Y177586D01*
X591298Y177559D01*
X591290Y177532D01*
X591283Y177505D01*
X591275Y177478D01*
X591268Y177451D01*
X591260Y177424D01*
X591253Y177397D01*
X591245Y177369D01*
X591238Y177342D01*
X591230Y177316D01*
X591223Y177289D01*
X591215Y177262D01*
X591208Y177235D01*
X591200Y177208D01*
X591193Y177181D01*
X591186Y177154D01*
X591178Y177127D01*
X591171Y177101D01*
X591163Y177074D01*
X591156Y177047D01*
X591149Y177020D01*
X591141Y176994D01*
X591134Y176967D01*
X591126Y176940D01*
X591119Y176914D01*
X591112Y176887D01*
X591104Y176860D01*
X591097Y176834D01*
X591090Y176807D01*
X591082Y176781D01*
X591075Y176754D01*
X591068Y176728D01*
X591060Y176701D01*
X591053Y176675D01*
X591046Y176649D01*
X591038Y176622D01*
X591031Y176596D01*
X591024Y176569D01*
X591016Y176543D01*
X591009Y176517D01*
X591002Y176491D01*
X590995Y176464D01*
X590987Y176438D01*
X590980Y176412D01*
X590973Y176386D01*
X590965Y176360D01*
X590958Y176333D01*
X590951Y176307D01*
X590944Y176281D01*
X590936Y176255D01*
X590929Y176229D01*
X590922Y176203D01*
X590915Y176177D01*
X590907Y176151D01*
X590900Y176125D01*
X590893Y176099D01*
X590886Y176073D01*
X590878Y176047D01*
X590871Y176022D01*
X590864Y175996D01*
X590857Y175970D01*
X590850Y175944D01*
X590842Y175918D01*
X590835Y175892D01*
X590828Y175867D01*
X590821Y175841D01*
X590814Y175815D01*
X590807Y175790D01*
X590799Y175764D01*
X590792Y175738D01*
X590785Y175713D01*
X590778Y175687D01*
X590771Y175662D01*
X590764Y175636D01*
X590757Y175610D01*
X590749Y175585D01*
X590742Y175559D01*
X590735Y175534D01*
X590728Y175509D01*
X590721Y175483D01*
X590714Y175458D01*
X590707Y175432D01*
X590700Y175407D01*
X590693Y175382D01*
X590685Y175356D01*
X590678Y175331D01*
X590671Y175306D01*
X590664Y175281D01*
X590657Y175255D01*
X590650Y175230D01*
X590643Y175205D01*
X590636Y175180D01*
X590629Y175155D01*
X590622Y175130D01*
X590615Y175105D01*
X590608Y175080D01*
X590600Y175055D01*
X590593Y175030D01*
X590586Y175004D01*
X590579Y174980D01*
X590572Y174955D01*
X590565Y174930D01*
X590558Y174905D01*
X590551Y174880D01*
X590544Y174855D01*
X590537Y174830D01*
X590530Y174805D01*
X590523Y174781D01*
X590516Y174756D01*
X590509Y174731D01*
X590502Y174706D01*
X590495Y174682D01*
X590488Y174657D01*
X590481Y174632D01*
X590467Y174583D01*
X590453Y174534D01*
X590439Y174485D01*
X590425Y174436D01*
X590411Y174387D01*
X590397Y174338D01*
X590383Y174289D01*
X590370Y174241D01*
X590356Y174192D01*
X590342Y174144D01*
X590328Y174095D01*
X590314Y174047D01*
X590300Y173999D01*
X590286Y173951D01*
X590273Y173903D01*
X590259Y173855D01*
X590245Y173807D01*
X590231Y173759D01*
X590217Y173712D01*
X590204Y173664D01*
X590190Y173617D01*
X590176Y173569D01*
X590162Y173522D01*
X590149Y173475D01*
X590135Y173428D01*
X590121Y173381D01*
X590107Y173334D01*
X590094Y173287D01*
X590080Y173240D01*
X590066Y173193D01*
X590053Y173147D01*
X590039Y173100D01*
X590025Y173054D01*
X590012Y173008D01*
X589998Y172961D01*
X589984Y172915D01*
X589971Y172869D01*
X589957Y172823D01*
X589943Y172777D01*
X589930Y172731D01*
X589916Y172686D01*
X589902Y172640D01*
X589889Y172594D01*
X589875Y172549D01*
X589862Y172504D01*
X589848Y172458D01*
X589834Y172413D01*
X589821Y172368D01*
X589807Y172323D01*
X589794Y172278D01*
X589780Y172233D01*
X589767Y172189D01*
X589753Y172144D01*
X589739Y172099D01*
X589726Y172055D01*
X589712Y172011D01*
X589699Y171966D01*
X589685Y171922D01*
X589672Y171878D01*
X589658Y171834D01*
X589644Y171790D01*
X589631Y171746D01*
X589617Y171702D01*
X589604Y171659D01*
X589590Y171615D01*
X589577Y171571D01*
X589563Y171528D01*
X589550Y171485D01*
X589536Y171441D01*
X589523Y171398D01*
X589509Y171355D01*
X589495Y171312D01*
X589482Y171269D01*
X589468Y171227D01*
X589455Y171184D01*
X589441Y171141D01*
X589428Y171099D01*
X589414Y171056D01*
X589400Y171014D01*
X589387Y170972D01*
X589373Y170929D01*
X589360Y170887D01*
X589346Y170845D01*
X589333Y170803D01*
X589319Y170761D01*
X589306Y170720D01*
X589292Y170678D01*
X589278Y170636D01*
X589265Y170595D01*
X589251Y170554D01*
X589238Y170512D01*
X589224Y170471D01*
X589210Y170430D01*
X589197Y170389D01*
X589183Y170348D01*
X589170Y170307D01*
X589156Y170266D01*
X589142Y170226D01*
X589129Y170185D01*
X589115Y170144D01*
X589101Y170104D01*
X589088Y170064D01*
X589074Y170023D01*
X589060Y169983D01*
X589047Y169943D01*
X589033Y169903D01*
X589019Y169863D01*
X589006Y169823D01*
X588992Y169784D01*
X588978Y169744D01*
X588965Y169704D01*
X588951Y169665D01*
X588937Y169626D01*
X588923Y169586D01*
X588910Y169547D01*
X588896Y169508D01*
X588882Y169469D01*
X588868Y169430D01*
X588855Y169391D01*
X588841Y169352D01*
X588827Y169314D01*
X588813Y169275D01*
X588799Y169237D01*
X588786Y169198D01*
X588772Y169160D01*
X588758Y169122D01*
X588744Y169083D01*
X588730Y169045D01*
X588716Y169007D01*
X588695Y168951D01*
X588674Y168894D01*
X588654Y168838D01*
X588633Y168781D01*
X588612Y168725D01*
X588591Y168670D01*
X588570Y168614D01*
X588549Y168559D01*
X588527Y168503D01*
X588506Y168448D01*
X588485Y168393D01*
X588464Y168339D01*
X588443Y168284D01*
X588422Y168230D01*
X588400Y168176D01*
X588379Y168122D01*
X588358Y168069D01*
X588336Y168015D01*
X588315Y167962D01*
X588293Y167909D01*
X588272Y167856D01*
X588250Y167803D01*
X588229Y167751D01*
X588207Y167699D01*
X588186Y167646D01*
X588164Y167595D01*
X588142Y167543D01*
X588120Y167491D01*
X588098Y167440D01*
X588077Y167389D01*
X588055Y167338D01*
X588033Y167287D01*
X588011Y167237D01*
X587989Y167186D01*
X587967Y167136D01*
X587945Y167086D01*
X587922Y167037D01*
X587900Y166987D01*
X587878Y166938D01*
X587855Y166889D01*
X587833Y166840D01*
X587811Y166791D01*
X587788Y166742D01*
X587766Y166694D01*
X587743Y166646D01*
X587720Y166598D01*
X587698Y166550D01*
X587675Y166503D01*
X587652Y166455D01*
X587629Y166408D01*
X587606Y166361D01*
X587583Y166314D01*
X587560Y166268D01*
X587537Y166221D01*
X587514Y166175D01*
X587491Y166129D01*
X587467Y166083D01*
X587444Y166038D01*
X587421Y165992D01*
X587397Y165947D01*
X587374Y165902D01*
X587350Y165857D01*
X587326Y165813D01*
X587303Y165768D01*
X587279Y165724D01*
X587255Y165680D01*
X587231Y165636D01*
X587207Y165592D01*
X587183Y165549D01*
X587159Y165506D01*
X587135Y165462D01*
X587110Y165419D01*
X587086Y165377D01*
X587062Y165334D01*
X587037Y165292D01*
X587013Y165250D01*
X586988Y165208D01*
X586963Y165166D01*
X586938Y165125D01*
X586914Y165084D01*
X586889Y165042D01*
X586864Y165001D01*
X586838Y164961D01*
X586813Y164920D01*
X586788Y164880D01*
X586763Y164840D01*
X586737Y164800D01*
X586712Y164760D01*
X586686Y164720D01*
X586661Y164681D01*
X586635Y164642D01*
X586609Y164603D01*
X586583Y164564D01*
X586557Y164525D01*
X586531Y164487D01*
X586505Y164449D01*
X586470Y164398D01*
X586435Y164348D01*
X586400Y164298D01*
X586364Y164248D01*
X586328Y164199D01*
X586293Y164150D01*
X586257Y164102D01*
X586221Y164053D01*
X586184Y164006D01*
X586148Y163958D01*
X586111Y163911D01*
X586074Y163864D01*
X586037Y163818D01*
X586000Y163771D01*
X585963Y163726D01*
X585925Y163680D01*
X585888Y163635D01*
X585850Y163590D01*
X585812Y163546D01*
X585774Y163502D01*
X585735Y163458D01*
X585687Y163404D01*
X585639Y163350D01*
X585590Y163297D01*
X585541Y163244D01*
X585491Y163192D01*
X585441Y163141D01*
X585391Y163090D01*
X585331Y163030D01*
X585270Y162970D01*
X585209Y162911D01*
X585147Y162853D01*
X585074Y162786D01*
X585001Y162720D01*
X584927Y162656D01*
X584841Y162583D01*
X584744Y162503D01*
X583525Y161696D02*
X583462Y161663D01*
X583385Y161623D01*
X583307Y161582D01*
X583213Y161533D01*
X583118Y161484D01*
X583020Y161434D01*
X582906Y161376D01*
X582789Y161317D01*
X582670Y161257D01*
X582548Y161197D01*
X582424Y161135D01*
X582298Y161074D01*
X582185Y161019D01*
X582071Y160964D01*
X581954Y160909D01*
X581837Y160853D01*
X581717Y160797D01*
X581614Y160749D01*
X581509Y160701D01*
X581403Y160653D01*
X581296Y160605D01*
X581188Y160556D01*
X581079Y160508D01*
X580969Y160459D01*
X580876Y160419D01*
X580783Y160379D01*
X580689Y160338D01*
X580595Y160298D01*
X580500Y160258D01*
X580404Y160218D01*
X580308Y160178D01*
X580211Y160138D01*
X580113Y160099D01*
X580015Y160059D01*
X579916Y160020D01*
X579817Y159980D01*
X579738Y159949D01*
X579658Y159918D01*
X579577Y159887D01*
X579496Y159857D01*
X579415Y159826D01*
X579334Y159796D01*
X579252Y159766D01*
X579171Y159735D01*
X579089Y159706D01*
X579006Y159676D01*
X578924Y159646D01*
X578840Y159617D01*
X578757Y159588D01*
X578674Y159560D01*
X578590Y159531D01*
X578506Y159503D01*
X578422Y159475D01*
X578338Y159447D01*
X578254Y159419D01*
X578169Y159392D01*
X578084Y159365D01*
X577999Y159339D01*
X577914Y159312D01*
X577828Y159286D01*
X577764Y159267D01*
X577700Y159248D01*
X577635Y159229D01*
X577571Y159210D01*
X577506Y159192D01*
X577442Y159173D01*
X577377Y159155D01*
X577313Y159137D01*
X577248Y159119D01*
X577183Y159102D01*
X577118Y159084D01*
X577053Y159067D01*
X576988Y159050D01*
X576923Y159034D01*
X576858Y159017D01*
X576793Y159001D01*
X576727Y158985D01*
X576662Y158969D01*
X576597Y158954D01*
X576532Y158939D01*
X576466Y158923D01*
X576401Y158909D01*
X576335Y158894D01*
X576270Y158880D01*
X576204Y158866D01*
X576139Y158852D01*
X576074Y158839D01*
X576008Y158826D01*
X575943Y158812D01*
X575877Y158800D01*
X575812Y158787D01*
X575746Y158775D01*
X575681Y158764D01*
X575615Y158752D01*
X575550Y158741D01*
X575484Y158730D01*
X575419Y158719D01*
X575354Y158709D01*
X575288Y158699D01*
X575223Y158689D01*
X575158Y158680D01*
X575092Y158670D01*
X575027Y158662D01*
X574962Y158653D01*
X574897Y158645D01*
X574832Y158637D01*
X574767Y158630D01*
X574702Y158623D01*
X574637Y158616D01*
X574572Y158609D01*
X574507Y158603D01*
X574442Y158597D01*
X574377Y158592D01*
X574313Y158587D01*
X574248Y158582D01*
X574184Y158578D01*
X574119Y158574D01*
X574055Y158570D01*
X573991Y158567D01*
X573927Y158564D01*
X573863Y158562D01*
X573799Y158560D01*
X573735Y158558D01*
X573671Y158556D01*
X573607Y158555D01*
X573544Y158555D01*
X573480Y158555D01*
X573417Y158555D01*
X573354Y158556D01*
X573291Y158557D01*
X573228Y158558D01*
X573165Y158560D01*
X573102Y158562D01*
X573040Y158565D01*
X572977Y158568D01*
X572915Y158572D01*
X572853Y158576D01*
X572791Y158580D01*
X572729Y158585D01*
X572667Y158590D01*
X572606Y158596D01*
X572544Y158602D01*
X572483Y158609D01*
X572422Y158616D01*
X572361Y158624D01*
X572300Y158632D01*
X572239Y158640D01*
X572179Y158649D01*
X572119Y158659D01*
X572059Y158669D01*
X571999Y158679D01*
X571939Y158690D01*
X571880Y158701D01*
X571820Y158713D01*
X571761Y158726D01*
X571702Y158738D01*
X571644Y158752D01*
X571585Y158765D01*
X571527Y158780D01*
X571469Y158795D01*
X571411Y158810D01*
X571353Y158826D01*
X571296Y158842D01*
X571239Y158859D01*
X571181Y158877D01*
X571125Y158895D01*
X571049Y158919D01*
X570974Y158945D01*
X570900Y158972D01*
X570826Y158999D01*
X570752Y159028D01*
X570679Y159057D01*
X570607Y159088D01*
X570534Y159120D01*
X568618Y160571D02*
X568564Y160637D01*
X568510Y160705D01*
X568457Y160774D01*
X568405Y160844D01*
X568353Y160915D01*
X568315Y160970D01*
X568277Y161025D01*
X568240Y161081D01*
X568203Y161137D01*
X568167Y161195D01*
X568130Y161253D01*
X568095Y161312D01*
X568060Y161371D01*
X568025Y161432D01*
X567990Y161493D01*
X567956Y161555D01*
X567923Y161617D01*
X567890Y161681D01*
X567857Y161745D01*
X567825Y161810D01*
X567794Y161875D01*
X567773Y161919D01*
X567752Y161964D01*
X567732Y162009D01*
X567711Y162054D01*
X567691Y162100D01*
X567671Y162146D01*
X567652Y162192D01*
X567632Y162239D01*
X567613Y162286D01*
X567594Y162333D01*
X567575Y162381D01*
X567556Y162429D01*
X567538Y162477D01*
X567520Y162526D01*
X567502Y162575D01*
X567484Y162625D01*
X567467Y162674D01*
X567449Y162725D01*
X567432Y162775D01*
X567416Y162826D01*
X567399Y162877D01*
X567382Y162929D01*
X567366Y162981D01*
X567350Y163033D01*
X567335Y163086D01*
X567319Y163139D01*
X567304Y163193D01*
X567289Y163247D01*
X567274Y163301D01*
X567259Y163356D01*
X567245Y163410D01*
X567231Y163466D01*
X567217Y163522D01*
X567203Y163578D01*
X567189Y163634D01*
X567176Y163691D01*
X567163Y163748D01*
X567150Y163806D01*
X567138Y163864D01*
X567126Y163922D01*
X567113Y163981D01*
X567102Y164040D01*
X567090Y164100D01*
X567079Y164160D01*
X567068Y164220D01*
X567057Y164281D01*
X567046Y164342D01*
X567036Y164403D01*
X567026Y164465D01*
X567016Y164527D01*
X567006Y164590D01*
X566997Y164653D01*
X566988Y164717D01*
X566979Y164780D01*
X566970Y164845D01*
X566962Y164909D01*
X566954Y164974D01*
X566946Y165040D01*
X566938Y165106D01*
X566931Y165172D01*
X566924Y165238D01*
X566917Y165306D01*
X566910Y165373D01*
X566904Y165441D01*
X566898Y165509D01*
X566892Y165578D01*
X566887Y165647D01*
X566881Y165716D01*
X566876Y165786D01*
X566872Y165857D01*
X566865Y165963D01*
X566863Y165998D01*
X566861Y166034D01*
X566858Y166070D01*
X566856Y166106D01*
X566854Y166143D01*
X566851Y166179D01*
X566849Y166216D01*
X566846Y166253D01*
X566843Y166289D01*
X566840Y166326D01*
X566838Y166364D01*
X566835Y166401D01*
X566832Y166439D01*
X566829Y166476D01*
X566826Y166514D01*
X566822Y166552D01*
X566819Y166590D01*
X566816Y166629D01*
X566813Y166667D01*
X566809Y166706D01*
X566806Y166745D01*
X566802Y166784D01*
X566798Y166823D01*
X566795Y166862D01*
X566791Y166901D01*
X566787Y166941D01*
X566783Y166981D01*
X566779Y167020D01*
X566775Y167060D01*
X566771Y167101D01*
X566767Y167141D01*
X566762Y167181D01*
X566758Y167222D01*
X566754Y167263D01*
X566749Y167304D01*
X566745Y167345D01*
X566740Y167386D01*
X566736Y167427D01*
X566731Y167469D01*
X566726Y167510D01*
X566721Y167552D01*
X566716Y167594D01*
X566712Y167636D01*
X566707Y167678D01*
X566701Y167721D01*
X566696Y167763D01*
X566691Y167806D01*
X566686Y167849D01*
X566680Y167892D01*
X566675Y167935D01*
X566670Y167978D01*
X566664Y168022D01*
X566658Y168065D01*
X566653Y168109D01*
X566647Y168153D01*
X566641Y168197D01*
X566636Y168241D01*
X566630Y168285D01*
X566624Y168330D01*
X566617Y168374D01*
X566611Y168419D01*
X566605Y168464D01*
X566599Y168509D01*
X566593Y168554D01*
X566586Y168599D01*
X566580Y168645D01*
X566573Y168690D01*
X566567Y168736D01*
X566560Y168782D01*
X566554Y168828D01*
X566547Y168874D01*
X566540Y168920D01*
X566533Y168966D01*
X566527Y169013D01*
X566520Y169060D01*
X566513Y169106D01*
X566505Y169153D01*
X566498Y169201D01*
X566491Y169248D01*
X566484Y169295D01*
X566477Y169343D01*
X566469Y169390D01*
X566462Y169438D01*
X566454Y169486D01*
X566447Y169534D01*
X566439Y169582D01*
X566431Y169631D01*
X566424Y169679D01*
X566416Y169728D01*
X566408Y169776D01*
X566400Y169825D01*
X566392Y169874D01*
X566384Y169923D01*
X566376Y169972D01*
X566368Y170022D01*
X566360Y170071D01*
X566352Y170121D01*
X566343Y170171D01*
X566335Y170221D01*
X566326Y170271D01*
X566318Y170321D01*
X566309Y170371D01*
X566301Y170422D01*
X566292Y170472D01*
X566283Y170523D01*
X566274Y170574D01*
X566257Y170676D01*
X566239Y170778D01*
X566221Y170881D01*
X566202Y170985D01*
X566184Y171089D01*
X566165Y171194D01*
X566146Y171299D01*
X566126Y171404D01*
X566107Y171510D01*
X566087Y171617D01*
X566067Y171724D01*
X566047Y171832D01*
X566027Y171940D01*
X566006Y172048D01*
X565985Y172157D01*
X565964Y172267D01*
X565943Y172377D01*
X565922Y172487D01*
X565900Y172598D01*
M02*
