M48
;Layer_Color=9474304
;FILE_FORMAT=2:5
INCH,LZ
;TYPE=PLATED
T01F00S00C0.02559
T02F00S00C0.02756
T04F00S00C0.02953
T05F00S00C0.03150
T07F00S00C0.03346
T08F00S00C0.03543
T09F00S00C0.03937
;TYPE=NON_PLATED
T10F00S00C0.04724
T11F00S00C0.16535
%
T01
X0204724Y0375827
Y0395827
X0060578Y0381373
X0041784Y0374533
X0176362Y0445685
X016222Y0459827
T02
X0220472Y0370276
Y0375394
Y0380512
Y038563
X0122047Y0492126
X0114442Y0494164
X0106836Y0496202
X0137259Y048805
X016853Y0471271
X0172451Y0467981
X0176372Y0464692
X0180293Y0461402
X0193431Y0447234
X0196367Y0443041
X0199302Y0438849
X0202238Y0434656
X0211045Y0419185
X0212369Y0414242
X0213694Y0409298
X0215019Y0404354
T04
X0107518Y0458476
X0120828Y045491
T05
X0056929Y0492126
X0066929Y0492126
X0076929Y0492126
T07
X0001187Y0481456
X0038183Y0494922
X0077582Y0463896
X0087772Y0425868
T08
X014173Y031135
X0151293Y0308426
X0160856Y0305502
X0170419Y0302578
X0179982Y0299655
X0189545Y0296731
X0199108Y0293807
X0194601Y034747
X0197524Y0357033
X0187961Y0359957
X0185038Y0350394
X0178398Y036288
X0168835Y0365804
X0159272Y0368728
X014572Y0341501
X0136157Y0344424
X0207088Y0354109
X0216651Y0351186
X0037366Y0338189
X0011453Y0323228
X0035866Y0392216
X0045263Y0395636
X005466Y0399057
X0035809Y0450851
X0026412Y044743
X0017015Y044401
X-0026575Y0460551
Y0470551
X0167602Y0412372
X0177165Y0409449
X0186728Y0406525
T09
X0077886Y0209802
X0070749Y0218178
X0077671Y0234486
X0088654Y0235171
T10
X0132205Y-0010492
X0127284Y-0001969
X0100394Y0005237
X0093189Y-0021654
X009811Y-0030177
T11
X0082677Y0090551
X0122047Y0208661
M30
